<svg width="526" height="582" viewBox="0 0 526 582" fill="none" xmlns="http://www.w3.org/2000/svg">
<path d="M76.3018 96.36C70.6352 96.36 65.4785 95.0283 60.8318 92.365C56.2418 89.645 52.5868 85.9617 49.8668 81.315C47.2035 76.6117 45.8718 71.4267 45.8718 65.76C45.8718 59.98 47.1752 54.7667 49.7818 50.12C52.3885 45.4733 55.9585 41.8467 60.4918 39.24C65.0252 36.5767 70.1252 35.245 75.7918 35.245C78.8518 35.245 81.8552 35.6133 84.8018 36.35C87.7485 37.0867 90.2702 38.135 92.3668 39.495L90.0718 52.67C85.9918 51.14 82.3085 50.375 79.0218 50.375C74.4885 50.375 71.0035 51.7067 68.5668 54.37C66.1302 56.9767 64.9118 60.745 64.9118 65.675C64.9118 70.4917 66.1868 74.26 68.7368 76.98C71.3435 79.6433 74.9418 80.975 79.5318 80.975C81.2885 80.975 82.9318 80.805 84.4618 80.465C85.9918 80.125 87.8618 79.5017 90.0718 78.595L92.4518 92.025C87.5218 94.915 82.1385 96.36 76.3018 96.36ZM127.372 96.36C121.252 96.36 115.812 95.0567 111.052 92.45C106.348 89.8433 102.665 86.245 100.002 81.655C97.3949 77.0083 96.0915 71.7383 96.0915 65.845C96.0915 59.895 97.3949 54.5967 100.002 49.95C102.665 45.3033 106.348 41.705 111.052 39.155C115.812 36.5483 121.252 35.245 127.372 35.245C133.492 35.245 138.903 36.5483 143.607 39.155C148.367 41.705 152.05 45.3033 154.657 49.95C157.32 54.54 158.652 59.8383 158.652 65.845C158.652 71.7383 157.32 77.0083 154.657 81.655C152.05 86.245 148.367 89.8433 143.607 92.45C138.847 95.0567 133.435 96.36 127.372 96.36ZM127.372 80.89C130.942 80.89 133.86 79.5017 136.127 76.725C138.45 73.9483 139.612 70.2933 139.612 65.76C139.612 62.7567 139.073 60.0933 137.997 57.77C136.977 55.39 135.532 53.5483 133.662 52.245C131.792 50.885 129.667 50.205 127.287 50.205C124.963 50.205 122.867 50.885 120.997 52.245C119.127 53.5483 117.682 55.39 116.662 57.77C115.642 60.0933 115.132 62.7567 115.132 65.76C115.132 70.2933 116.265 73.9483 118.532 76.725C120.798 79.5017 123.745 80.89 127.372 80.89ZM166.799 36.52H183.884L207.174 68.055V36.52H222.389V95H205.389L181.929 64.57V95H166.799V36.52ZM242.549 49.44H230.394V36.52H274.509V49.44H262.354V95H242.549V49.44ZM289.245 36.52H315.085L332 95H312.025L309.815 83.78H294.685L292.22 95H273.095L289.245 36.52ZM307.775 73.325L302.25 47.74L296.47 73.325H307.775ZM365.169 96.36C359.502 96.36 354.346 95.0283 349.699 92.365C345.109 89.645 341.454 85.9617 338.734 81.315C336.071 76.6117 334.739 71.4267 334.739 65.76C334.739 59.98 336.042 54.7667 338.649 50.12C341.256 45.4733 344.826 41.8467 349.359 39.24C353.892 36.5767 358.992 35.245 364.659 35.245C367.719 35.245 370.722 35.6133 373.669 36.35C376.616 37.0867 379.137 38.135 381.234 39.495L378.939 52.67C374.859 51.14 371.176 50.375 367.889 50.375C363.356 50.375 359.871 51.7067 357.434 54.37C354.997 56.9767 353.779 60.745 353.779 65.675C353.779 70.4917 355.054 74.26 357.604 76.98C360.211 79.6433 363.809 80.975 368.399 80.975C370.156 80.975 371.799 80.805 373.329 80.465C374.859 80.125 376.729 79.5017 378.939 78.595L381.319 92.025C376.389 94.915 371.006 96.36 365.169 96.36ZM398.023 49.44H385.868V36.52H429.983V49.44H417.828V95H398.023V49.44ZM456.09 96.36C448.1 96.36 441.357 94.8867 435.86 91.94L440.11 78.765C445.947 80.8617 451.16 81.91 455.75 81.91C458.244 81.91 460.057 81.6267 461.19 81.06C462.38 80.4367 462.975 79.53 462.975 78.34C462.975 77.5467 462.664 76.8667 462.04 76.3C461.417 75.6767 460.17 74.9967 458.3 74.26C456.43 73.5233 453.625 72.6167 449.885 71.54C445.295 70.18 441.725 67.97 439.175 64.91C436.625 61.7933 435.35 58.2233 435.35 54.2C435.35 47.9667 437.39 43.2633 441.47 40.09C445.607 36.86 451.16 35.245 458.13 35.245C461.757 35.245 465.327 35.6417 468.84 36.435C472.354 37.1717 475.47 38.2767 478.19 39.75L473.6 52.585C470.427 51.5083 467.65 50.7433 465.27 50.29C462.947 49.78 460.68 49.525 458.47 49.525C454.73 49.525 452.86 50.545 452.86 52.585C452.86 53.605 453.455 54.4833 454.645 55.22C455.892 55.9 458.414 56.7783 462.21 57.855C468.16 59.4417 472.665 61.8783 475.725 65.165C478.785 68.395 480.315 72.2767 480.315 76.81C480.315 83.1 478.275 87.945 474.195 91.345C470.115 94.6883 464.08 96.36 456.09 96.36Z" fill="#252424"/>
<path d="M160.307 272.595C169.855 257.442 167.752 238.853 155.61 231.074C143.469 223.296 125.886 229.274 116.338 244.427C106.79 259.58 108.893 278.169 121.034 285.948C133.176 293.726 150.759 287.748 160.307 272.595Z" fill="#121413"/>
<path d="M308.513 202.132C326.145 199.64 338.819 185.975 336.822 171.61C334.825 157.246 318.913 147.622 301.281 150.114C283.649 152.607 270.974 166.272 272.971 180.636C274.968 195 290.881 204.624 308.513 202.132Z" fill="#121413"/>
<path d="M159.99 234.795C159.99 234.795 165.757 222.119 179.114 218.158C192.471 214.197 208.971 211.028 227.828 198.352C232.64 194.529 237.109 190.287 241.185 185.676C246.449 179.528 253.223 174.883 260.828 172.207C264.603 170.778 268.583 169.975 272.613 169.831C272.613 169.831 334.975 183.101 336.004 181.199C337.033 179.298 347.255 166.63 337.827 152.369C328.398 138.109 299.327 138.109 289.899 139.693C280.47 141.278 253.756 141.278 238.828 148.408C223.899 155.538 208.185 158.707 188.543 171.383C168.9 184.059 142.186 202.281 131.972 214.957C131.972 214.957 111.543 235.556 108.401 248.232C105.258 260.908 103.686 279.922 114.686 286.26C125.686 292.598 135.429 289.215 135.429 289.215L159.99 234.795Z" fill="#121413"/>
<path d="M127.259 284.676C127.259 284.676 117.044 279.922 119.402 272C121.759 264.077 131.973 250.609 145.33 249.024C158.687 247.44 159.473 251.401 159.473 251.401C159.473 251.401 164.973 257.739 159.473 267.246L164.187 258.531C164.187 258.531 164.973 244.271 153.973 245.063C142.973 245.855 131.187 247.44 125.687 255.362C120.187 263.285 116.259 265.662 117.044 272.792C117.83 279.922 119.402 279.922 127.259 284.676Z" fill="#625D5D"/>
<path d="M334.002 182.031C334.002 182.031 336.359 170.94 328.659 168.088C320.959 165.235 304.145 165.386 294.873 175.218C285.602 185.05 288.266 188.052 288.266 188.052C288.266 188.052 289.994 196.292 300.837 197.559L291.094 196.133C291.094 196.133 279.308 188.211 286.545 179.805C293.781 171.399 302.102 162.859 311.687 163.168C321.273 163.477 325.524 161.75 330.702 166.662C335.879 171.573 334.976 172.841 334.002 182.031Z" fill="#625D5D"/>
<path d="M182.256 195.943L152.4 217.334C152.4 217.334 151.614 220.503 153.185 219.711C154.757 218.919 182.256 195.943 182.256 195.943Z" fill="#625D5D" stroke="black" stroke-miterlimit="10"/>
<path d="M200.328 184.852C202.685 184.06 225.47 171.384 230.97 169.799C236.47 168.215 262.398 158.708 263.97 158.708C265.541 158.708 265.541 161.877 265.541 161.877C265.541 161.877 241.97 166.63 237.256 169.007C232.542 171.384 200.328 184.852 200.328 184.852Z" fill="#625D5D" stroke="black" stroke-miterlimit="10"/>
<path d="M252.185 313.197C252.185 313.197 244.328 316.366 242.756 323.496L223.899 328.25C223.899 328.25 214.471 332.211 211.328 341.718C208.185 351.225 200.328 371.824 200.328 371.824L195.614 382.916L186.185 394.007L145.328 433.62C145.328 433.62 140.614 440.75 140.614 449.465C140.614 458.18 145.328 489.078 145.328 489.078C145.328 489.078 149.257 503.338 163.4 502.546C177.542 501.754 307.97 480.363 307.97 480.363C307.97 480.363 333.898 472.44 340.969 456.595L391.255 394.799L395.969 390.046C395.969 390.046 392.826 352.018 391.255 349.641C389.683 347.264 385.755 348.056 385.755 348.056C385.755 348.056 387.326 345.68 387.326 344.887C387.326 344.095 384.969 342.511 381.826 340.134C378.683 337.757 371.612 329.834 369.255 325.081C366.898 320.327 362.184 306.859 362.184 304.482C362.184 302.106 358.255 291.014 342.541 294.183L252.185 313.197Z" fill="#121413"/>
<path d="M242.757 323.496C242.757 323.496 308.756 310.028 309.542 310.028C310.328 310.028 317.399 308.443 319.756 315.574C319.846 317.182 320.109 318.776 320.542 320.327C321.328 323.496 322.113 326.665 325.256 325.081C328.399 323.496 339.399 314.781 339.399 314.781L346.47 310.028C346.47 310.028 348.042 308.443 348.042 306.859C348.042 305.274 346.47 302.105 347.256 298.936C348.042 295.767 347.421 296.393 349.699 293.699C349.613 293.39 351.019 293.874 351.019 293.874C350.606 293.98 350.241 294.226 349.985 294.57C349.729 294.915 349.598 295.337 349.613 295.767C349.613 297.352 348.827 298.144 349.613 302.105C350.399 306.066 350.399 307.651 348.827 310.028C347.256 312.405 333.899 321.119 333.899 321.119L326.827 326.665C326.827 326.665 321.328 329.042 319.756 324.288C318.185 319.535 318.97 313.197 315.828 312.405C312.685 311.612 311.113 311.612 306.399 312.405C301.685 313.197 265.542 319.535 265.542 319.535L242.757 323.496Z" fill="#636162"/>
<path d="M319.756 314.782C320.542 314.782 322.113 315.574 322.113 314.782C322.113 313.989 320.542 312.405 322.113 311.613C323.684 310.82 329.184 309.236 329.97 310.028C330.418 310.439 330.698 311.004 330.756 311.613L347.256 307.651L346.47 310.028L331.541 313.197L332.327 317.951C332.327 318.371 332.162 318.774 331.867 319.071C331.572 319.368 331.173 319.535 330.756 319.535C329.184 319.535 324.47 321.912 323.684 320.327C323.173 319.07 322.906 317.725 322.899 316.366H320.542C319.756 316.366 319.756 314.782 319.756 314.782Z" fill="#636162"/>
<path d="M255.329 325.873C255.329 325.873 225.472 331.418 215.258 354.394C205.044 377.369 202.687 396.383 226.258 401.137C249.829 405.89 274.972 392.422 282.829 385.292C290.686 378.161 314.257 324.288 255.329 325.873Z" fill="#636162"/>
<path d="M255.116 327.774C255.116 327.774 226.752 333.043 217.048 354.869C207.345 376.696 205.106 394.759 227.498 399.236C249.891 403.712 273.776 390.957 281.241 384.183C288.705 377.409 311.097 326.269 255.116 327.774Z" fill="#121413"/>
<path d="M261.614 331.419C261.614 331.419 252.971 337.757 256.9 341.718C260.828 345.679 267.9 341.718 267.9 341.718C267.9 341.718 275.757 329.834 261.614 331.419Z" fill="#BBB6B0"/>
<path d="M276.543 340.926C276.543 340.926 267.9 347.264 271.829 351.225C275.757 355.186 282.828 351.225 282.828 351.225C282.828 351.225 290.686 339.341 276.543 340.926Z" fill="#BBB6B0"/>
<path d="M279.684 358.355C279.684 358.355 271.042 364.693 274.97 368.655C278.899 372.616 285.97 368.655 285.97 368.655C285.97 368.655 293.827 356.771 279.684 358.355Z" fill="#BBB6B0"/>
<path d="M271.828 373.408C271.828 373.408 263.185 379.746 267.114 383.707C271.042 387.669 278.114 383.707 278.114 383.707C278.114 383.707 285.971 371.824 271.828 373.408Z" fill="#BBB6B0"/>
<path d="M255.329 383.707C255.329 383.707 246.686 390.045 250.615 394.007C254.543 397.968 261.615 394.007 261.615 394.007C261.615 394.007 269.472 382.123 255.329 383.707Z" fill="#BBB6B0"/>
<path d="M220.758 378.954C220.758 378.954 212.115 385.292 216.043 389.253C219.972 393.215 227.043 389.253 227.043 389.253C227.043 389.253 234.9 377.37 220.758 378.954Z" fill="#BBB6B0"/>
<path d="M220.758 363.109C220.758 363.109 212.115 369.447 216.043 373.408C219.972 377.369 227.043 373.408 227.043 373.408C227.043 373.408 234.9 361.524 220.758 363.109Z" fill="#BBB6B0"/>
<path d="M227.043 347.264C227.043 347.264 218.401 353.602 222.329 357.563C226.258 361.524 233.329 357.563 233.329 357.563C233.329 357.563 241.186 345.679 227.043 347.264Z" fill="#BBB6B0"/>
<path d="M241.972 334.588C241.972 334.588 233.329 340.926 237.257 344.887C241.186 348.848 248.257 344.887 248.257 344.887C248.257 344.887 256.114 333.003 241.972 334.588Z" fill="#BBB6B0"/>
<path d="M235.686 385.292C235.686 385.292 227.043 391.63 230.972 395.591C234.9 399.553 241.972 395.591 241.972 395.591C241.972 395.591 249.829 383.707 235.686 385.292Z" fill="#BBB6B0"/>
<path d="M250.615 350.433C250.615 350.433 230.972 358.355 234.901 374.2C238.829 390.045 260.829 377.369 263.186 374.2C265.543 371.031 272.615 359.94 264.758 355.186C256.901 350.433 250.615 350.433 250.615 350.433Z" fill="#837F7A"/>
<path d="M195.613 382.916C194.828 385.292 178.328 409.852 178.328 409.852L176.756 409.06L195.613 382.916Z" fill="#636162"/>
<path d="M188.543 416.982C189.329 416.982 281.256 401.137 281.256 401.137V404.306L188.543 416.982Z" fill="#636162"/>
<path d="M314.388 312.056C312.982 314.944 311.884 317.974 311.112 321.096C310.326 325.057 304.826 349.617 304.826 350.409C304.826 351.201 296.969 395.568 296.969 395.568L299.326 396.36L304.041 366.254L308.755 337.733L313.469 318.719L315.826 312.381L314.388 312.056Z" fill="#636162"/>
<path d="M367.683 334.588C366.897 335.38 314.255 382.123 314.255 382.123C314.255 382.123 315.826 385.292 315.826 384.5C315.826 383.708 367.683 334.588 367.683 334.588Z" fill="#636162"/>
<path d="M381.04 352.018L320.541 415.398C320.541 415.398 320.541 419.359 322.112 417.775C323.683 416.19 381.04 352.018 381.04 352.018Z" fill="#636162"/>
<path d="M145.329 448.672C146.114 448.672 302.47 423.32 302.47 423.32V426.489C302.47 427.282 145.329 448.672 145.329 448.672Z" fill="#636162"/>
<path d="M253.028 452.662L200.198 460.699L202.659 477.15L255.489 469.113L253.028 452.662Z" fill="#837F7A"/>
<path d="M406.641 382.202C408.306 380.618 407.686 377.227 405.258 374.684C402.83 372.141 399.522 371.38 397.864 372.988C396.206 374.597 396.827 377.956 399.247 380.507C401.667 383.058 404.983 383.811 406.641 382.202ZM401.447 378.653L400.158 375.484L400.041 373.701C400.442 374.473 401.114 375.067 401.926 375.365C403.396 375.975 404.378 379.849 404.378 379.849L401.447 378.653Z" fill="#121413"/>
<path d="M398.484 374.929C398.484 374.929 391.68 379.152 392.874 382.852L390.399 383.05C390.399 383.05 389.551 373.622 399.278 371.958L400.134 374.335L398.484 374.929Z" fill="#121413"/>
<path d="M352.418 146.221C350.305 145.294 347.46 147.164 346.062 150.396C344.663 153.629 345.229 157.004 347.342 157.931C349.456 158.858 352.292 156.996 353.699 153.764C355.105 150.531 354.524 147.148 352.418 146.221ZM351.153 152.425L348.796 154.801L347.225 155.594C347.769 154.927 348.049 154.08 348.01 153.217C348.01 151.632 351.153 149.216 351.153 149.216V152.425Z" fill="#121413"/>
<path d="M340.656 158.065L346.054 156.6L347.256 157.915L348.144 158.065L341.387 160.822L340.656 158.065Z" fill="#121413"/>
<path d="M349.173 158.098C349.173 158.098 353.541 160.292 355.898 157.915L357.47 160.292C357.47 160.292 352.15 165.046 346.564 158.708L348.041 157.123L349.173 158.098Z" fill="#121413"/>
<path d="M361.477 147.014C359.371 146.087 356.527 147.957 355.121 151.189C353.714 154.421 354.296 157.796 356.401 158.723C358.507 159.65 361.359 157.788 362.758 154.556C364.156 151.324 363.591 147.941 361.477 147.014ZM360.22 153.217L357.863 155.594L356.291 156.386C356.836 155.719 357.116 154.872 357.077 154.009C357.077 152.425 360.22 150.008 360.22 150.008V153.217Z" fill="#121413"/>
<path d="M358.239 158.89C358.239 158.89 362.608 161.084 364.965 158.707L366.537 161.084C366.537 161.084 361.217 165.838 355.623 159.5L357.108 157.915L358.239 158.89Z" fill="#121413"/>
<path d="M370.906 147.014C368.801 146.087 365.956 147.957 364.55 151.189C363.144 154.421 363.725 157.796 365.831 158.723C367.936 159.65 370.788 157.788 372.187 154.556C373.586 151.324 373.02 147.941 370.906 147.014ZM369.649 153.217L367.292 155.594L365.721 156.386C366.265 155.719 366.545 154.872 366.506 154.009C366.506 152.425 369.649 150.008 369.649 150.008V153.217Z" fill="#121413"/>
<path d="M367.669 158.89C367.669 158.89 372.037 161.084 374.394 158.707L375.966 161.084C375.966 161.084 370.646 165.838 365.052 159.5L366.537 157.915L367.669 158.89Z" fill="#121413"/>
<path d="M380.334 149.391C378.228 148.464 375.384 150.334 373.977 153.566C372.571 156.798 373.152 160.173 375.258 161.1C377.364 162.027 380.216 160.165 381.614 156.933C383.013 153.701 382.447 150.318 380.334 149.391ZM379.076 155.594L376.719 157.971L375.148 158.763C375.692 158.096 375.972 157.249 375.934 156.386C375.934 154.802 379.076 152.385 379.076 152.385V155.594Z" fill="#121413"/>
<path d="M377.096 161.266C377.096 161.266 381.464 163.461 383.822 161.084L385.393 163.461C385.393 163.461 380.074 168.215 374.479 161.877L375.964 160.292L377.096 161.266Z" fill="#121413"/>
<path d="M391.467 154.58C389.621 153.193 386.431 154.374 384.349 157.21C382.266 160.046 382.07 163.461 383.916 164.839C385.763 166.218 388.953 165.045 391.035 162.209C393.117 159.373 393.313 155.982 391.467 154.58ZM388.859 160.331L386.046 162.13L384.317 162.558C385.004 162.025 385.469 161.254 385.621 160.395C385.983 158.81 389.605 157.226 389.605 157.226L388.859 160.331Z" fill="#121413"/>
<path d="M384.639 164.903C384.639 164.903 387.585 168.825 390.744 167.755L391.105 170.583C391.105 170.583 384.238 172.469 382.03 164.245L384.057 163.453L384.639 164.903Z" fill="#121413"/>
<path d="M399.324 163.572C397.815 161.821 394.452 162.273 391.805 164.594C389.157 166.915 388.245 170.203 389.754 171.954C391.262 173.705 394.633 173.246 397.273 170.932C399.913 168.619 400.832 165.323 399.324 163.572ZM395.552 168.658L392.41 169.799H390.642C391.424 169.43 392.043 168.78 392.378 167.977C393.054 166.535 396.943 165.743 396.943 165.743L395.552 168.658Z" fill="#121413"/>
<path d="M390.455 172.167C390.455 172.167 392.49 176.636 395.805 176.279L395.554 179.123C395.554 179.123 388.443 179.472 388.042 170.995L390.18 170.694L390.455 172.167Z" fill="#121413"/>
<path d="M406.159 175.313C405.334 173.15 402.011 172.429 398.75 173.728C395.489 175.028 393.509 177.785 394.342 179.948C395.175 182.111 398.491 182.831 401.759 181.532C405.028 180.233 406.992 177.476 406.159 175.313ZM400.911 178.775H397.548L395.866 178.165C396.728 178.084 397.529 177.683 398.113 177.04C399.237 175.915 403.158 176.493 403.158 176.493L400.911 178.775Z" fill="#121413"/>
<path d="M394.908 180.97C394.908 180.97 393.195 185.826 396.047 187.918L393.753 189.898C393.753 189.898 387.947 185.081 393.886 178.347L395.788 179.654L394.908 180.97Z" fill="#121413"/>
<path d="M404.496 188.068C404.331 185.755 401.353 184.107 397.872 184.337C394.392 184.567 391.689 186.666 391.854 188.979C392.019 191.293 394.997 192.941 398.469 192.711C401.942 192.481 404.661 190.382 404.496 188.068ZM398.462 189.827L395.256 188.821L393.818 187.775C394.662 187.953 395.541 187.809 396.285 187.371C397.692 186.626 401.274 188.338 401.274 188.338L398.462 189.827Z" fill="#121413"/>
<path d="M392.921 190.508C392.921 190.508 391.004 195.262 393.769 197.504L391.412 199.381C391.412 199.381 385.818 194.311 392.041 187.846L393.879 189.233L392.921 190.508Z" fill="#121413"/>
<path d="M400.635 202.376C401.547 200.253 399.684 197.385 396.471 195.983C393.257 194.581 389.918 195.191 388.999 197.306C388.08 199.421 389.949 202.297 393.163 203.699C396.377 205.102 399.724 204.508 400.635 202.376ZM394.483 201.141L392.126 198.764L391.34 197.179C392.002 197.727 392.842 198.01 393.697 197.971C395.269 197.971 397.673 201.141 397.673 201.141H394.483Z" fill="#121413"/>
<path d="M389.25 198.367C389.25 198.367 385.369 201.711 386.807 204.967L383.829 205.521C383.829 205.521 381.189 198.391 389.667 195.586L390.664 197.662L389.25 198.367Z" fill="#121413"/>
<path d="M394.35 208.714C395.261 206.591 393.399 203.723 390.186 202.321C386.972 200.919 383.633 201.529 382.714 203.644C381.794 205.759 383.664 208.635 386.878 210.037C390.091 211.44 393.439 210.845 394.35 208.714ZM388.198 207.478L385.841 205.102L385.055 203.517C385.717 204.065 386.556 204.347 387.412 204.309C388.984 204.309 391.388 207.478 391.388 207.478H388.198Z" fill="#121413"/>
<path d="M382.965 204.706C382.965 204.706 379.084 208.049 380.521 211.305L377.544 211.86C377.544 211.86 374.904 204.729 383.381 201.925L384.379 204.001L382.965 204.706Z" fill="#121413"/>
<path d="M388.064 215.845C388.976 213.721 387.114 210.853 383.9 209.451C380.687 208.049 377.347 208.659 376.428 210.774C375.509 212.89 377.379 215.765 380.592 217.168C383.806 218.57 387.153 217.976 388.064 215.845ZM381.912 214.609L379.555 212.232L378.769 210.648C379.431 211.196 380.271 211.478 381.127 211.44C382.698 211.44 385.102 214.609 385.102 214.609H381.912Z" fill="#121413"/>
<path d="M376.679 211.835C376.679 211.835 372.798 215.179 374.236 218.435L371.258 218.99C371.258 218.99 368.618 211.859 377.096 209.055L378.094 211.13L376.679 211.835Z" fill="#121413"/>
<path d="M383.352 223.767C384.263 221.644 382.401 218.776 379.188 217.374C375.974 215.971 372.635 216.581 371.716 218.697C370.796 220.812 372.666 223.688 375.88 225.09C379.093 226.492 382.44 225.898 383.352 223.767ZM377.2 222.531L374.843 220.154L374.057 218.57C374.719 219.118 375.558 219.4 376.414 219.362C377.986 219.362 380.39 222.531 380.39 222.531H377.2Z" fill="#121413"/>
<path d="M371.965 219.758C371.965 219.758 368.083 223.102 369.521 226.358L366.543 226.912C366.543 226.912 363.903 219.782 372.381 216.978L373.379 219.053L371.965 219.758Z" fill="#121413"/>
<path d="M379.422 232.482C380.333 230.359 378.471 227.491 375.257 226.088C372.044 224.686 368.705 225.296 367.785 227.411C366.866 229.527 368.736 232.403 371.95 233.805C375.163 235.207 378.51 234.613 379.422 232.482ZM373.27 231.246L370.913 228.869L370.127 227.285C370.789 227.833 371.628 228.115 372.484 228.077C374.055 228.077 376.46 231.246 376.46 231.246H373.27Z" fill="#121413"/>
<path d="M368.038 228.473C368.038 228.473 365.861 234.28 367.291 237.537L364.934 239.121C364.934 239.121 359.976 228.529 368.454 225.692L369.452 227.768L368.038 228.473Z" fill="#121413"/>
<path d="M378.017 243.13C376.492 241.395 373.13 241.886 370.513 244.231C367.897 246.576 367.009 249.88 368.533 251.615C370.057 253.35 373.428 252.859 376.045 250.513C378.661 248.168 379.549 244.896 378.017 243.13ZM374.261 248.256L371.118 249.42L369.342 249.476C370.123 249.1 370.737 248.445 371.063 247.638C371.723 246.188 375.605 245.348 375.605 245.348L374.261 248.256Z" fill="#121413"/>
<path d="M370.703 251.766C370.703 251.766 372.408 256.48 375.935 256.519L376.721 259.688C376.721 259.688 367.34 259.134 368.377 250.181H370.671L370.703 251.766Z" fill="#121413"/>
<path d="M396.73 255.323C395.01 253.786 391.726 254.681 389.408 257.319C387.09 259.957 386.595 263.348 388.316 264.885C390.036 266.422 393.32 265.535 395.638 262.897C397.956 260.258 398.451 256.867 396.73 255.323ZM393.635 260.868L390.641 262.405L388.889 262.675C389.618 262.206 390.148 261.48 390.374 260.639C390.861 259.117 394.609 257.826 394.609 257.826L393.635 260.868Z" fill="#121413"/>
<path d="M389.764 265.155C389.764 265.155 393.833 268.862 397.149 267.642L396.466 271.104C396.466 271.104 389.261 273.275 387.037 264.552L389.19 263.729L389.764 265.155Z" fill="#121413"/>
<path d="M404.793 258.975C402.962 257.573 399.757 258.706 397.635 261.518C395.514 264.331 395.278 267.738 397.117 269.148C398.955 270.558 402.153 269.409 404.267 266.605C406.38 263.8 406.624 260.385 404.793 258.975ZM402.114 264.703L399.246 266.462L397.517 266.866C398.209 266.342 398.683 265.576 398.845 264.719C399.222 263.135 402.868 261.59 402.868 261.59L402.114 264.703Z" fill="#121413"/>
<path d="M399.238 269.995C399.238 269.995 402.444 274.543 406.058 273.101L406.365 276.476C406.365 276.476 398.508 279.066 396.308 269.346L398.625 268.339L399.238 269.995Z" fill="#121413"/>
<path d="M414.22 263.729C412.389 262.326 409.184 263.459 407.062 266.272C404.941 269.084 404.705 272.491 406.544 273.901C408.382 275.311 411.58 274.163 413.694 271.358C415.807 268.554 416.051 265.139 414.22 263.729ZM411.541 269.457L408.673 271.215L406.945 271.62C407.637 271.095 408.11 270.33 408.272 269.473C408.65 267.888 412.295 266.343 412.295 266.343L411.541 269.457Z" fill="#121413"/>
<path d="M407.393 273.964C407.393 273.964 412.516 276.056 414.794 272.879L416.853 275.557C416.853 275.557 411.636 281.99 404.588 275.034L406.01 272.926L407.393 273.964Z" fill="#121413"/>
<path d="M423.814 265.828C421.866 264.592 418.778 266.01 416.908 268.997C415.038 271.984 415.109 275.406 417.057 276.642C419.006 277.878 422.093 276.46 423.956 273.473C425.818 270.486 425.763 267.064 423.814 265.828ZM421.646 271.77L418.943 273.782L417.254 274.329C417.9 273.75 418.307 272.946 418.393 272.079C418.629 270.494 422.125 268.609 422.125 268.609L421.646 271.77Z" fill="#121413"/>
<path d="M416.438 275.153C416.438 275.153 422.134 280.802 425.434 278.734L426.22 281.111C426.22 281.111 417.349 284.201 413.437 275.074L415.542 273.664L416.438 275.153Z" fill="#121413"/>
<path d="M434.03 270.582C432.081 269.346 428.994 270.764 427.124 273.751C425.254 276.738 425.324 280.16 427.273 281.396C429.221 282.632 432.309 281.214 434.171 278.227C436.034 275.24 435.979 271.818 434.03 270.582ZM431.861 276.524L429.159 278.536L427.469 279.083C428.116 278.504 428.523 277.7 428.609 276.833C428.844 275.248 432.341 273.363 432.341 273.363L431.861 276.524Z" fill="#121413"/>
<path d="M426.651 279.114C426.651 279.114 432.348 284.763 435.648 282.695L436.433 285.072C436.433 285.072 427.563 288.162 423.65 279.035L425.756 277.625L426.651 279.114Z" fill="#121413"/>
<path d="M443.073 274.82C441.195 273.473 438.036 274.717 436.001 277.593C433.966 280.469 433.841 283.884 435.719 285.23C437.596 286.577 440.755 285.341 442.79 282.465C444.825 279.59 444.974 276.127 443.073 274.82ZM440.574 280.627L437.761 282.481L436.049 282.941C436.724 282.395 437.175 281.616 437.314 280.754C437.636 279.17 441.242 277.498 441.242 277.498L440.574 280.627Z" fill="#121413"/>
<path d="M436.009 284.462C436.009 284.462 441.383 290.428 444.793 288.55L445.445 290.927C445.445 290.927 436.417 293.509 433.023 284.177L435.207 282.885L436.009 284.462Z" fill="#121413"/>
<path d="M451.684 281.539C449.947 280.01 446.679 280.937 444.377 283.598C442.075 286.26 441.619 289.651 443.355 291.172C445.092 292.694 448.36 291.775 450.662 289.113C452.965 286.451 453.42 283.06 451.684 281.539ZM448.635 287.084L445.658 288.669L443.905 288.954C444.631 288.482 445.155 287.753 445.375 286.91C445.854 285.381 449.586 284.05 449.586 284.05L448.635 287.084Z" fill="#121413"/>
<path d="M443.723 290.475C443.723 290.475 448.493 296.94 452.068 295.411L452.484 297.875C452.484 297.875 443.244 299.562 440.769 289.952L443.063 288.883L443.723 290.475Z" fill="#121413"/>
<path d="M459.203 290.396C457.741 288.605 454.363 288.962 451.66 291.188C448.957 293.414 447.936 296.734 449.397 298.493C450.859 300.251 454.229 299.927 456.94 297.7C459.651 295.474 460.688 292.194 459.203 290.396ZM455.274 295.339L452.076 296.385H450.301C451.095 296.041 451.733 295.411 452.092 294.618C452.807 293.192 456.712 292.511 456.712 292.511L455.274 295.339Z" fill="#121413"/>
<path d="M449.869 297.875C449.869 297.875 453.507 305.053 457.286 304.141V306.645C457.286 306.645 447.897 306.748 447.072 296.845L449.515 296.171L449.869 297.875Z" fill="#121413"/>
<path d="M463.918 298.318C462.456 296.528 459.078 296.884 456.375 299.11C453.672 301.337 452.651 304.656 454.112 306.415C455.573 308.174 458.944 307.849 461.655 305.623C464.365 303.396 465.403 300.117 463.918 298.318ZM459.989 303.262L456.791 304.308H455.016C455.81 303.963 456.448 303.334 456.807 302.541C457.522 301.115 461.427 300.433 461.427 300.433L459.989 303.262Z" fill="#121413"/>
<path d="M454.584 305.797C454.584 305.797 458.222 312.975 462.001 312.064V314.567C462.001 314.567 452.612 314.67 451.787 304.767L454.23 304.094L454.584 305.797Z" fill="#121413"/>
<path d="M468.458 310.947C468.089 308.657 464.985 307.263 461.536 307.833C458.087 308.404 455.58 310.725 455.957 313.015C456.335 315.304 459.43 316.699 462.88 316.12C466.329 315.542 468.835 313.236 468.458 310.947ZM462.612 313.252L459.328 312.539L457.804 311.636C458.66 311.733 459.522 311.507 460.224 311.002C461.56 310.131 465.276 311.509 465.276 311.509L462.612 313.252Z" fill="#121413"/>
<path d="M456.681 312.706C456.681 312.706 456.265 320.755 459.989 321.88L458.74 324.043C458.74 324.043 450.561 319.4 454.749 310.4L457.192 311.05L456.681 312.706Z" fill="#121413"/>
<path d="M467.532 325.302C468.255 323.1 466.157 320.414 462.818 319.297C459.479 318.18 456.218 319.059 455.488 321.262C454.757 323.464 456.863 326.15 460.202 327.267C463.541 328.384 466.802 327.505 467.532 325.302ZM461.294 324.597L458.709 322.427L457.774 320.905C458.489 321.397 459.36 321.603 460.218 321.484C461.789 321.341 464.445 324.312 464.445 324.312L461.294 324.597Z" fill="#121413"/>
<path d="M456.281 321.334C456.281 321.334 452.203 328.258 454.976 330.999L452.871 332.33C452.871 332.33 447.779 324.407 455.644 318.378L457.506 320.098L456.281 321.334Z" fill="#121413"/>
<path d="M462.748 335.095C463.761 333.011 462.033 330.064 458.882 328.511C455.731 326.958 452.377 327.394 451.363 329.486C450.349 331.577 452.086 334.517 455.229 336.061C458.371 337.606 461.742 337.179 462.748 335.095ZM456.659 333.566L454.404 331.07L453.673 329.438C454.318 330.027 455.16 330.35 456.03 330.341C457.601 330.413 459.849 333.709 459.849 333.709L456.659 333.566Z" fill="#121413"/>
<path d="M452.124 329.66C452.124 329.66 447.166 335.998 449.562 339.064L447.331 340.11C447.331 340.11 443.332 331.546 451.911 326.642L453.53 328.598L452.124 329.66Z" fill="#121413"/>
<path d="M455.566 346.194C457.137 344.515 456.399 341.179 453.869 338.739C451.339 336.299 447.999 335.681 446.404 337.361C444.809 339.04 445.579 342.368 448.109 344.808C450.639 347.248 453.979 347.866 455.566 346.194ZM450.223 342.867L448.809 339.793L448.612 338.018C449.045 338.774 449.743 339.339 450.569 339.603C452.061 340.157 453.201 343.984 453.201 343.984L450.223 342.867Z" fill="#121413"/>
<path d="M445.509 338.549C445.509 338.549 438.886 343.057 440.237 346.725L437.77 347.034C437.77 347.034 436.529 337.646 446.177 335.602L447.136 337.978L445.509 338.549Z" fill="#121413"/>
<path d="M447.498 352.889C449.163 351.304 448.543 347.914 446.115 345.37C443.687 342.827 440.379 342.067 438.721 343.675C437.063 345.283 437.684 348.642 440.104 351.193C442.524 353.745 445.84 354.497 447.498 352.889ZM442.304 349.34L441.015 346.171L440.898 344.388C441.299 345.16 441.971 345.753 442.783 346.052C444.253 346.662 445.235 350.536 445.235 350.536L442.304 349.34Z" fill="#121413"/>
<path d="M437.77 344.823C437.77 344.823 430.965 349.046 432.16 352.746L429.685 352.944C429.685 352.944 428.836 343.516 438.563 341.853L439.42 344.229L437.77 344.823Z" fill="#121413"/>
<path d="M438.854 359.227C440.52 357.642 439.899 354.251 437.472 351.708C435.044 349.165 431.736 348.405 430.078 350.013C428.42 351.621 429.041 354.98 431.461 357.531C433.881 360.082 437.197 360.835 438.854 359.227ZM433.661 355.677L432.372 352.508L432.255 350.726C432.656 351.498 433.328 352.091 434.14 352.39C435.609 353 436.592 356.874 436.592 356.874L433.661 355.677Z" fill="#121413"/>
<path d="M430.18 350.789C430.18 350.789 422.951 354.22 423.737 358.062L421.254 357.983C421.254 357.983 421.442 348.476 431.287 347.977L431.877 350.456L430.18 350.789Z" fill="#121413"/>
<path d="M430.996 364.773C432.662 363.188 432.041 359.797 429.613 357.254C427.185 354.711 423.878 353.951 422.22 355.559C420.562 357.167 421.183 360.526 423.603 363.077C426.023 365.628 429.338 366.381 430.996 364.773ZM425.803 361.223L424.514 358.054L424.396 356.272C424.797 357.044 425.47 357.637 426.282 357.936C427.751 358.546 428.733 362.42 428.733 362.42L425.803 361.223Z" fill="#121413"/>
<path d="M421.269 356.707C421.269 356.707 414.464 360.93 415.659 364.63L413.184 364.828C413.184 364.828 412.335 355.4 422.062 353.736L422.919 356.113L421.269 356.707Z" fill="#121413"/>
<path d="M423.14 369.526C424.806 367.942 424.185 364.551 421.757 362.008C419.329 359.464 416.022 358.704 414.364 360.312C412.706 361.92 413.327 365.28 415.747 367.831C418.167 370.382 421.482 371.134 423.14 369.526ZM417.947 365.977L416.658 362.808L416.54 361.025C416.941 361.797 417.614 362.39 418.426 362.689C419.895 363.299 420.877 367.173 420.877 367.173L417.947 365.977Z" fill="#121413"/>
<path d="M414.199 361.461C414.199 361.461 407.395 365.684 408.589 369.384L406.114 369.582C406.114 369.582 405.265 360.154 414.992 358.49L415.849 360.867L414.199 361.461Z" fill="#121413"/>
<path d="M413.71 375.072C415.376 373.488 414.755 370.097 412.328 367.554C409.9 365.01 406.592 364.25 404.934 365.858C403.276 367.466 403.897 370.826 406.317 373.377C408.737 375.928 412.053 376.68 413.71 375.072ZM408.517 371.523L407.228 368.354L407.11 366.571C407.512 367.343 408.184 367.936 408.996 368.235C410.465 368.845 411.448 372.719 411.448 372.719L408.517 371.523Z" fill="#121413"/>
<path d="M405.556 367.799C405.556 367.799 398.752 372.022 399.946 375.722L397.471 375.92C397.471 375.92 396.622 366.492 406.349 364.828L407.206 367.205L405.556 367.799Z" fill="#121413"/>
<path d="M378.865 238.868C379.187 236.57 376.641 234.304 373.176 233.813C369.711 233.322 366.639 234.78 366.309 237.077C365.979 239.375 368.533 241.633 372.005 242.132C375.478 242.631 378.542 241.165 378.865 238.868ZM372.579 239.303L369.648 237.64L368.462 236.316C369.25 236.671 370.141 236.716 370.96 236.443C372.492 236.015 375.627 238.448 375.627 238.448L372.579 239.303Z" fill="#121413"/>
<path d="M367.62 238.82C367.62 238.82 366.63 244.287 368.861 247.044L365.719 249.42C365.719 249.42 359.849 241.022 367.29 236.031L368.799 237.774L367.62 238.82Z" fill="#121413"/>
<path d="M365.719 249.42C365.719 249.42 368.209 252.272 368.532 251.639C368.854 251.005 368.862 247.836 368.862 247.836V247.043L365.719 249.42Z" fill="#121413"/>
<path d="M385.873 251.052C384.348 249.317 380.986 249.809 378.369 252.154C375.753 254.499 374.865 257.802 376.389 259.538C377.913 261.273 381.284 260.781 383.9 258.436C386.517 256.091 387.405 252.819 385.873 251.052ZM382.117 256.178L378.974 257.343L377.198 257.398C377.979 257.023 378.592 256.368 378.919 255.56C379.579 254.111 383.46 253.271 383.46 253.271L382.117 256.178Z" fill="#121413"/>
<path d="M377.797 260.005C377.797 260.005 380.327 264.473 383.761 263.665V266.715C383.761 266.715 376.351 267.999 375.173 259.07L377.389 258.468L377.797 260.005Z" fill="#121413"/>
<path d="M383.004 263.681H388.504V266.058L387.687 266.779L383.004 266.85V263.681Z" fill="#121413"/>
<path d="M268.292 581.375C332.514 581.375 384.577 570.556 384.577 557.211C384.577 543.866 332.514 533.047 268.292 533.047C204.07 533.047 152.007 543.866 152.007 557.211C152.007 570.556 204.07 581.375 268.292 581.375Z" fill="#121413"/>
</svg>
