<svg width="400" height="428" viewBox="0 0 400 428" fill="none" xmlns="http://www.w3.org/2000/svg">
<path d="M18 127.648C18 139.523 10.947 150.148 1 150.148C10.947 150.148 18 160.773 18 172.648C18 160.773 25.053 150.148 35 150.148C25.053 150.148 18 139.523 18 127.648Z" fill="black"/>
<path d="M377 120.648C377 132.523 369.947 143.148 360 143.148C369.947 143.148 377 153.773 377 165.648C377 153.773 384.053 143.148 394 143.148C384.053 143.148 377 132.523 377 120.648Z" fill="black"/>
<path d="M304.355 81.2946C306.354 84.8634 305.437 90.0063 301.733 96.4082C298.048 102.777 291.693 110.234 283.147 118.301C266.061 134.429 240.303 152.92 209.921 169.937C179.54 186.955 150.318 199.261 127.639 205.405C116.296 208.478 106.618 210.003 99.2623 209.818C91.8686 209.632 87.0041 207.727 85.0051 204.159C83.0062 200.59 83.9232 195.447 87.627 189.045C91.3115 182.676 97.6668 175.22 106.213 167.153C123.299 151.024 149.057 132.533 179.438 115.516C209.82 98.4984 239.042 86.1926 261.721 80.048C273.064 76.9747 282.742 75.4506 290.098 75.6355C297.491 75.8213 302.356 77.7259 304.355 81.2946Z" stroke="#464646"/>
<path d="M95.312 165.985C95.2561 167.315 94.5709 168.251 93.2563 168.792C91.9874 169.331 89.6584 169.648 86.2692 169.742C82.88 169.836 80.0324 169.617 77.7264 169.085C75.465 168.506 74.3213 167.736 74.2954 166.774C74.2658 165.675 76.1153 158.611 79.8438 145.582C83.5711 132.507 85.706 124.977 86.2484 122.991C86.4613 122.389 88.2804 121.857 91.7055 121.395C95.1752 120.887 98.8795 120.577 102.818 120.468C106.803 120.358 109.02 120.984 109.469 122.346C118.899 150.869 123.621 165.359 123.633 165.817C123.645 166.275 123.383 166.741 122.846 167.214C121.59 168.257 119.062 168.832 115.261 168.937C107.154 169.162 102.983 168.315 102.748 166.397L102.147 161.945L95.5519 162.128L95.312 165.985ZM100.353 148.931L98.9897 136.594L97.4783 136.636L96.6433 149.034L100.353 148.931Z" fill="black"/>
<path d="M147.981 168.029L132.936 168.446C130.646 168.51 129.107 168.392 128.32 168.093C127.533 167.794 127.13 167.301 127.111 166.614L125.922 122.439C125.863 120.241 132.452 118.958 145.688 118.591C153.291 118.379 158.554 118.967 161.479 120.352C164.451 121.782 166.381 123.654 167.268 125.967C167.763 127.328 168.035 128.925 168.084 130.757C168.18 134.329 167.634 137.026 166.446 138.846C165.303 140.666 164.025 141.709 162.611 141.978C164.776 142.376 166.591 143.38 168.055 144.989C169.519 146.599 170.304 149.373 170.41 153.312C170.533 157.892 169.228 161.32 166.493 163.596C164.118 165.587 160.44 166.904 155.462 167.546C153.36 167.788 150.866 167.949 147.981 168.029ZM147.243 138.073C149.579 138.008 150.705 136.419 150.621 133.304C150.579 131.747 150.228 130.611 149.567 129.896C148.951 129.134 148.253 128.763 147.475 128.785L145.276 128.846L145.526 138.121L147.243 138.073ZM146.057 157.838L147.774 157.79C150.11 157.726 151.236 156.136 151.152 153.021C151.11 151.464 150.759 150.328 150.098 149.613C149.481 148.851 148.784 148.481 148.005 148.502L145.807 148.563L146.057 157.838Z" fill="black"/>
<path d="M198.841 167.236C195.039 167.341 191.755 167.089 188.989 166.478C186.267 165.82 183.736 164.607 181.397 162.838C176.674 159.349 174.174 152.474 173.898 142.215C173.782 137.909 174.3 134.136 175.45 130.896C176.646 127.654 178.341 125.063 180.534 123.123C184.833 119.337 190.485 117.347 197.493 117.152C201.111 117.052 204.257 117.285 206.931 117.853C209.65 118.419 212.223 119.516 214.65 121.145C219.553 124.492 222.136 131.067 222.4 140.868C222.637 149.662 220.636 156.203 216.397 160.492C212.158 164.78 206.306 167.028 198.841 167.236ZM196.257 155.551C196.824 156.177 197.589 156.476 198.55 156.45C199.512 156.423 200.259 156.081 200.792 155.425C201.323 154.722 201.743 153.29 202.051 151.127C202.358 148.919 202.459 145.868 202.355 141.975C202.25 138.082 201.986 135.087 201.563 132.99C201.14 130.893 200.645 129.532 200.078 128.906C199.511 128.28 198.747 127.98 197.785 128.007C196.823 128.034 196.076 128.375 195.544 129.032C195.011 129.688 194.59 131.075 194.281 133.192C193.971 135.309 193.869 138.314 193.973 142.207C194.078 146.1 194.343 149.141 194.769 151.329C195.193 153.472 195.689 154.879 196.257 155.551Z" fill="black"/>
<path d="M271.395 145.421C271.573 152.016 269.805 157.015 266.093 160.418C262.424 163.775 256.995 165.552 249.805 165.752C242.66 165.95 237.12 164.477 233.185 161.332C229.249 158.141 227.193 153.248 227.015 146.653L226.336 121.439C226.306 120.294 227.56 119.228 230.1 118.241C232.686 117.252 235.697 116.711 239.132 116.615C241.88 116.539 243.68 117.016 244.533 118.047C245.15 118.854 245.467 119.556 245.483 120.151L246.034 140.624C246.174 145.8 246.449 149.23 246.861 150.914C247.318 152.552 248.187 153.353 249.47 153.317C250.752 153.282 251.532 152.458 251.81 150.846C252.132 149.187 252.221 145.701 252.078 140.388L251.549 120.739C251.518 119.594 252.773 118.528 255.313 117.541C257.899 116.553 260.887 116.011 264.276 115.917C267.161 115.837 269.007 116.313 269.814 117.345C270.386 118.154 270.68 118.856 270.696 119.452L271.395 145.421Z" fill="black"/>
<path d="M306.532 161.977C306.545 162.481 305.136 162.933 302.306 163.332C299.519 163.684 296.706 163.9 293.867 163.979C291.073 164.056 289.284 163.991 288.499 163.784C287.759 163.53 287.38 163.105 287.364 162.509L286.569 132.968L277.02 133.233C276.516 133.247 276.064 132.618 275.663 131.345C275.262 130.073 275.028 128.177 274.96 125.658C274.891 123.094 275.104 120.796 275.599 118.765C276.093 116.689 276.798 115.638 277.714 115.613L314.881 114.581C315.568 114.562 316.043 115.19 316.307 116.467C316.616 117.741 316.803 119.592 316.869 122.02C316.934 124.447 316.744 126.744 316.298 128.911C315.852 131.078 315.194 132.173 314.324 132.197L305.736 132.436L306.532 161.977Z" fill="black"/>
<path fill-rule="evenodd" clip-rule="evenodd" d="M118.955 169.08C117.7 170.123 115.171 170.697 111.37 170.803C103.263 171.028 99.0925 170.182 98.8576 168.263L98.2566 163.811L91.6614 163.994L91.4214 167.851C91.3655 169.182 90.6802 170.117 89.3656 170.658C88.0967 171.198 85.7677 171.514 82.3785 171.609C78.9893 171.703 76.1417 171.484 73.8357 170.952C71.5743 170.373 70.4307 169.603 70.4048 168.641C70.3752 167.542 72.2249 160.478 75.9539 147.449C79.6816 134.374 81.8167 126.843 82.3591 124.857C82.5721 124.256 84.3912 123.724 87.8163 123.262C91.286 122.753 94.9902 122.444 98.929 122.334C102.914 122.223 105.13 122.849 105.58 124.212C115.009 152.734 119.73 167.225 119.742 167.683C119.755 168.141 119.492 168.606 118.955 169.08ZM107.619 123.536C112.334 137.798 115.872 148.555 118.234 155.804C119.415 159.428 120.303 162.181 120.898 164.058C120.918 164.123 120.938 164.187 120.958 164.25L119.886 124.364C119.837 122.543 121.211 121.474 122.226 120.933C123.325 120.346 124.806 119.92 126.521 119.585C129.995 118.909 135.095 118.493 141.741 118.308C149.342 118.097 155.076 118.649 158.511 120.275L158.522 120.281C161.82 121.868 164.243 124.086 165.384 127.06L165.39 127.078L165.397 127.095C165.988 128.722 166.288 130.557 166.342 132.561C166.442 136.306 165.893 139.515 164.364 141.867C164.034 142.392 163.678 142.885 163.294 143.337C164.189 143.9 165.011 144.591 165.754 145.407C167.751 147.603 168.557 151.035 168.667 155.116C168.802 160.147 167.357 164.294 163.978 167.108C161.149 169.478 156.999 170.875 151.844 171.541L151.829 171.543L151.815 171.544C149.633 171.795 147.075 171.959 144.148 172.04L129.103 172.459C127.915 172.492 126.878 172.479 126.008 172.413C125.174 172.349 124.348 172.226 123.665 171.967C123.03 171.725 122.377 171.341 121.873 170.725C121.606 170.398 121.41 170.042 121.279 169.668C121.011 170.073 120.687 170.415 120.374 170.691L120.35 170.711L120.327 170.731C119.329 171.56 118.011 172.065 116.591 172.387C115.143 172.716 113.41 172.895 111.428 172.95C107.33 173.064 104.063 172.915 101.733 172.442C100.577 172.207 99.4934 171.863 98.6289 171.32C97.7363 170.76 96.895 169.858 96.7279 168.542L96.3862 166.011L93.6829 166.086L93.5661 167.963C93.5194 168.98 93.2231 169.965 92.5978 170.819C91.9763 171.667 91.1286 172.253 90.1925 172.64C88.5068 173.352 85.8053 173.662 82.4362 173.756C78.9362 173.853 75.8932 173.631 73.3514 173.045L73.3263 173.039L73.3014 173.033C72.074 172.719 70.9495 172.307 70.081 171.722C69.1997 171.129 68.2967 170.143 68.2579 168.701C68.248 168.332 68.3094 167.916 68.3645 167.592C68.4282 167.217 68.5212 166.761 68.6388 166.233C68.8748 165.175 69.2274 163.752 69.6923 161.976C70.6233 158.421 72.023 153.38 73.8886 146.862C77.6185 133.779 79.749 126.264 80.2874 124.293L80.3082 124.217L80.3346 124.142C80.6579 123.229 81.3994 122.753 81.775 122.544C82.2294 122.29 82.7565 122.099 83.2822 121.946C84.3444 121.635 85.7767 121.37 87.5188 121.135C91.0779 120.614 94.8629 120.299 98.8713 120.187C100.947 120.13 102.749 120.254 104.165 120.654C105.533 121.04 107.061 121.845 107.619 123.536ZM162.603 165.46C165.337 163.184 166.643 159.756 166.52 155.176C166.414 151.237 165.629 148.463 164.165 146.853C163.417 146.032 162.579 145.368 161.649 144.862C160.757 144.377 159.781 144.037 158.721 143.842C159.638 143.668 160.498 143.168 161.301 142.341C161.736 141.893 162.154 141.35 162.556 140.71C163.744 138.89 164.291 136.193 164.195 132.621C164.145 130.789 163.873 129.192 163.378 127.831C162.491 125.518 160.562 123.646 157.59 122.216C154.665 120.831 149.401 120.244 141.798 120.455C128.562 120.823 121.974 122.106 122.033 124.305L123.221 168.48C123.239 169.167 123.642 169.66 124.429 169.959C125.216 170.258 126.755 170.375 129.045 170.312L144.09 169.894C146.976 169.813 149.469 169.652 151.571 169.411C156.55 168.768 160.227 167.451 162.603 165.46ZM93.5886 138.502L95.1 138.46L96.463 150.798L92.7532 150.901L93.5886 138.502ZM144.052 133.167L144.007 133.112C143.838 132.903 143.724 132.83 143.684 132.808C143.658 132.795 143.656 132.796 143.643 132.797L143.591 132.798L143.724 137.743C144.025 137.675 144.131 137.551 144.198 137.456C144.374 137.208 144.621 136.579 144.585 135.228C144.549 133.897 144.249 133.381 144.1 133.219L144.052 133.167ZM143.782 139.907C143.644 139.924 143.501 139.934 143.354 139.938L141.636 139.986L141.387 130.711L143.585 130.65C144.364 130.628 145.061 130.998 145.677 131.76C146.338 132.475 146.69 133.612 146.732 135.169C146.81 138.086 145.827 139.666 143.782 139.907ZM144.582 152.884L144.537 152.829C144.368 152.62 144.254 152.547 144.214 152.526C144.188 152.512 144.186 152.514 144.173 152.514L144.121 152.515L144.254 157.46C144.555 157.393 144.661 157.268 144.728 157.174C144.904 156.926 145.151 156.297 145.115 154.946C145.079 153.614 144.779 153.098 144.63 152.936L144.582 152.884ZM144.313 159.624C144.174 159.641 144.031 159.651 143.884 159.655L142.166 159.703L141.917 150.428L144.115 150.367C144.894 150.345 145.591 150.716 146.208 151.478C146.869 152.193 147.22 153.329 147.262 154.886C147.34 157.803 146.357 159.383 144.313 159.624ZM184.613 170.434L184.592 170.429C181.574 169.7 178.78 168.356 176.219 166.423C170.681 162.324 168.142 154.577 167.861 144.138C167.74 139.633 168.278 135.587 169.536 132.043L169.541 132.03L169.545 132.018C170.842 128.503 172.719 125.593 175.223 123.379L175.226 123.376C179.981 119.188 186.153 117.074 193.546 116.869C197.281 116.765 200.603 117.003 203.486 117.614C206.488 118.24 209.315 119.45 211.959 121.224L211.966 121.228L211.973 121.233C217.734 125.167 220.387 132.63 220.657 142.671C220.902 151.779 218.842 158.998 214.033 163.863C209.317 168.635 202.887 171.027 195.008 171.246C191.086 171.355 187.618 171.097 184.634 170.439L184.613 170.434ZM203.041 119.716C200.368 119.148 197.222 118.915 193.603 119.015C186.596 119.21 180.943 121.201 176.645 124.987C174.451 126.927 172.756 129.518 171.56 132.76C170.41 136 169.892 139.773 170.008 144.078C170.284 154.338 172.783 161.212 177.506 164.702C179.846 166.471 182.376 167.684 185.098 168.341C187.865 168.952 191.149 169.204 194.95 169.099C202.415 168.891 208.267 166.643 212.506 162.354C216.745 158.066 218.747 151.524 218.51 142.73C218.247 132.929 215.664 126.355 210.761 123.008C208.334 121.379 205.761 120.282 203.041 119.716ZM193.99 156.004C194.077 156.089 194.219 156.176 194.602 156.166C194.986 156.155 195.123 156.06 195.205 155.97C195.258 155.886 195.393 155.631 195.554 155.084C195.724 154.502 195.888 153.714 196.034 152.696C196.317 150.66 196.421 147.745 196.318 143.897C196.214 140.045 195.954 137.195 195.568 135.28C195.369 134.292 195.164 133.54 194.966 132.995C194.868 132.725 194.779 132.528 194.705 132.39C194.636 132.259 194.595 132.211 194.595 132.211L194.596 132.212C194.511 132.118 194.385 132.005 193.953 132.017C193.521 132.029 193.402 132.148 193.322 132.247L193.323 132.246C193.323 132.246 193.284 132.297 193.222 132.431C193.156 132.573 193.078 132.775 192.994 133.05C192.825 133.605 192.662 134.367 192.516 135.364C192.233 137.298 192.127 140.158 192.23 144.011C192.334 147.857 192.594 150.76 192.986 152.777C193.186 153.787 193.392 154.566 193.594 155.139C193.784 155.676 193.932 155.923 193.99 156.004ZM192.367 157.414C191.799 156.742 191.303 155.335 190.879 153.193C190.453 151.004 190.188 147.964 190.083 144.071C189.979 140.177 190.081 137.172 190.391 135.055C190.701 132.938 191.122 131.552 191.654 130.895C192.186 130.239 192.933 129.897 193.895 129.87C194.857 129.844 195.621 130.143 196.188 130.769C196.755 131.395 197.25 132.756 197.673 134.853C198.096 136.95 198.36 139.945 198.465 143.838C198.569 147.731 198.468 150.782 198.161 152.99C197.852 155.153 197.432 156.586 196.901 157.288C196.369 157.944 195.622 158.286 194.66 158.313C193.698 158.339 192.934 158.04 192.367 157.414ZM263.652 163.862L263.651 163.864C259.462 167.696 253.451 169.553 245.971 169.761C238.528 169.967 232.421 168.444 227.953 164.872L227.941 164.863C223.381 161.166 221.167 155.595 220.978 148.575L220.3 123.361C220.261 121.891 221.077 120.77 221.975 120.007C222.866 119.25 224.068 118.633 225.435 118.101L225.446 118.097C228.305 117.004 231.564 116.431 235.185 116.33C236.676 116.289 238.037 116.392 239.206 116.701C240.373 117.011 241.495 117.567 242.299 118.538L242.325 118.57L242.35 118.603C243.068 119.542 243.707 120.686 243.741 121.953L244.291 142.426C244.43 147.599 244.704 150.789 245.049 152.23C245.212 152.798 245.382 152.989 245.421 153.024C245.422 153.025 245.423 153.026 245.424 153.026C245.438 153.029 245.469 153.033 245.522 153.032C245.55 153.031 245.573 153.029 245.589 153.027C245.632 152.958 245.73 152.766 245.803 152.345L245.807 152.322L245.811 152.3C246.08 150.914 246.185 147.671 246.041 142.309L245.513 122.66C245.473 121.19 246.29 120.069 247.188 119.306C248.079 118.549 249.28 117.932 250.647 117.401L250.659 117.396C253.515 116.304 256.75 115.731 260.329 115.631C261.88 115.588 263.283 115.688 264.473 115.995C265.653 116.299 266.817 116.858 267.617 117.881L267.649 117.922L267.679 117.965C268.35 118.914 268.921 120.036 268.954 121.253L269.024 123.858C269.137 122.548 269.335 121.302 269.623 120.122C269.894 118.985 270.267 117.919 270.826 117.085C271.407 116.22 272.371 115.365 273.767 115.326L310.934 114.294C312.08 114.262 312.992 114.827 313.577 115.601C314.084 116.272 314.353 117.092 314.513 117.853C314.871 119.346 315.06 121.365 315.126 123.82C315.195 126.396 314.994 128.859 314.512 131.202C314.27 132.375 313.934 133.467 313.421 134.322C312.904 135.182 311.965 136.163 310.492 136.204L304.051 136.383L304.788 163.777C304.821 165.021 303.96 165.728 303.597 165.977C303.168 166.27 302.674 166.462 302.248 166.599C301.366 166.882 300.16 167.114 298.713 167.319L298.698 167.321L298.682 167.323C295.825 167.684 292.942 167.905 290.033 167.986C288.613 168.025 287.417 168.03 286.459 167.995C285.548 167.962 284.698 167.89 284.057 167.721L283.982 167.701L283.908 167.676C283.314 167.472 282.673 167.135 282.164 166.563C281.622 165.954 281.348 165.207 281.327 164.429L280.59 137.035L273.188 137.24C271.901 137.276 271.077 136.455 270.669 135.887C270.247 135.301 269.952 134.574 269.725 133.853C269.518 133.196 269.355 132.437 269.231 131.588L269.652 147.222C269.84 154.234 267.957 159.916 263.652 163.862ZM282.679 134.828L283.474 164.37C283.49 164.965 283.868 165.39 284.608 165.644C285.393 165.852 287.182 165.917 289.976 165.839C292.815 165.76 295.628 165.544 298.415 165.192C301.246 164.792 302.654 164.341 302.641 163.837L301.847 134.295L310.434 134.057C311.304 134.032 311.962 132.937 312.408 130.77C312.854 128.604 313.044 126.307 312.979 123.879C312.914 121.452 312.727 119.601 312.417 118.326C312.154 117.05 311.679 116.421 310.992 116.44L273.825 117.473C272.909 117.499 272.204 118.55 271.71 120.626C271.214 122.657 271.001 124.954 271.07 127.519C271.138 130.038 271.372 131.934 271.773 133.206C272.174 134.478 272.626 135.107 273.13 135.093L282.679 134.828ZM242.971 152.776C242.559 151.092 242.283 147.662 242.144 142.486L241.594 122.013C241.578 121.418 241.261 120.716 240.644 119.908C239.791 118.878 237.99 118.401 235.242 118.477C231.807 118.572 228.797 119.114 226.211 120.103C223.671 121.09 222.416 122.157 222.447 123.302L223.125 148.515C223.302 155.11 225.359 160.003 229.295 163.194C233.229 166.339 238.769 167.812 245.914 167.614C253.104 167.414 258.534 165.636 262.202 162.279C265.914 158.876 267.682 153.877 267.505 147.282L266.807 121.312C266.791 120.717 266.497 120.015 265.925 119.206C265.118 118.174 263.272 117.698 260.387 117.778C256.997 117.872 254.01 118.414 251.424 119.402C248.884 120.39 247.629 121.456 247.66 122.601L248.188 142.249C248.331 147.562 248.241 151.048 247.919 152.707C247.642 154.319 246.862 155.143 245.579 155.179C244.297 155.214 243.427 154.413 242.971 152.776Z" fill="black"/>
<path d="M101.412 163.895C101.356 165.226 100.671 166.161 99.356 166.702C98.0872 167.241 95.7582 167.558 92.369 167.652C88.9798 167.746 86.1322 167.527 83.8262 166.996C81.5647 166.417 80.421 165.646 80.3951 164.684C80.3655 163.585 82.215 156.521 85.9435 143.492C89.6708 130.417 91.8056 122.887 92.348 120.901C92.5609 120.299 94.38 119.767 97.8051 119.306C101.275 118.797 104.979 118.488 108.918 118.378C112.902 118.268 115.119 118.894 115.569 120.256C124.999 148.779 129.72 163.269 129.733 163.727C129.745 164.185 129.483 164.651 128.945 165.124C127.69 166.168 125.162 166.742 121.36 166.847C113.254 167.072 109.083 166.226 108.848 164.307L108.247 159.855L101.652 160.038L101.412 163.895ZM106.453 146.842L105.089 134.504L103.578 134.546L102.743 146.945L106.453 146.842Z" fill="#F2E8D9"/>
<path d="M154.081 165.939L139.035 166.357C136.745 166.42 135.207 166.303 134.42 166.004C133.632 165.705 133.23 165.212 133.211 164.525L132.022 120.35C131.963 118.151 138.551 116.868 151.787 116.501C159.39 116.29 164.654 116.877 167.579 118.263C170.551 119.693 172.48 121.564 173.368 123.877C173.862 125.238 174.135 126.835 174.184 128.667C174.28 132.24 173.734 134.936 172.545 136.757C171.403 138.576 170.125 139.62 168.711 139.888C170.876 140.287 172.69 141.29 174.155 142.9C175.619 144.509 176.404 147.283 176.51 151.222C176.633 155.802 175.328 159.23 172.593 161.506C170.217 163.497 166.54 164.814 161.562 165.456C159.46 165.698 156.966 165.859 154.081 165.939ZM153.343 135.983C155.679 135.919 156.805 134.329 156.721 131.214C156.679 129.657 156.328 128.521 155.667 127.806C155.05 127.044 154.353 126.674 153.574 126.695L151.376 126.756L151.626 136.031L153.343 135.983ZM152.156 155.748L153.874 155.701C156.21 155.636 157.336 154.046 157.252 150.932C157.21 149.375 156.858 148.238 156.198 147.523C155.581 146.761 154.884 146.391 154.105 146.413L151.907 146.474L152.156 155.748Z" fill="#F2E8D9"/>
<path d="M204.941 165.146C201.139 165.252 197.855 164.999 195.089 164.388C192.367 163.731 189.836 162.517 187.497 160.749C182.774 157.259 180.274 150.384 179.998 140.125C179.882 135.82 180.399 132.047 181.549 128.806C182.746 125.565 184.44 122.974 186.634 121.034C190.932 117.248 196.585 115.257 203.592 115.063C207.211 114.962 210.356 115.196 213.03 115.763C215.75 116.33 218.323 117.427 220.75 119.055C225.653 122.403 228.236 128.977 228.5 138.779C228.737 147.572 226.736 154.114 222.497 158.402C218.258 162.691 212.406 164.939 204.941 165.146ZM202.357 153.461C202.924 154.087 203.688 154.387 204.65 154.36C205.612 154.333 206.359 153.992 206.891 153.335C207.423 152.633 207.842 151.2 208.151 149.038C208.458 146.829 208.559 143.778 208.454 139.885C208.35 135.992 208.086 132.997 207.662 130.9C207.239 128.804 206.744 127.442 206.178 126.817C205.611 126.191 204.846 125.891 203.885 125.918C202.923 125.944 202.176 126.286 201.643 126.942C201.111 127.599 200.69 128.986 200.38 131.103C200.071 133.22 199.968 136.225 200.073 140.118C200.178 144.011 200.443 147.052 200.869 149.24C201.293 151.382 201.789 152.789 202.357 153.461Z" fill="#F2E8D9"/>
<path d="M277.495 143.331C277.672 149.927 275.905 154.926 272.192 158.329C268.524 161.685 263.095 163.463 255.904 163.663C248.76 163.861 243.22 162.388 239.285 159.243C235.349 156.052 233.292 151.159 233.115 144.563L232.436 119.35C232.405 118.205 233.66 117.139 236.2 116.152C238.786 115.163 241.796 114.621 245.231 114.526C247.979 114.449 249.78 114.927 250.633 115.957C251.25 116.765 251.567 117.467 251.583 118.062L252.134 138.535C252.273 143.711 252.549 147.141 252.961 148.825C253.418 150.462 254.287 151.263 255.57 151.228C256.852 151.192 257.632 150.368 257.909 148.756C258.231 147.097 258.321 143.612 258.178 138.299L257.649 118.65C257.618 117.505 258.873 116.439 261.413 115.452C263.999 114.463 266.986 113.922 270.376 113.828C273.261 113.748 275.107 114.224 275.914 115.255C276.486 116.065 276.78 116.767 276.796 117.362L277.495 143.331Z" fill="#F2E8D9"/>
<path d="M312.631 159.888C312.645 160.392 311.236 160.843 308.405 161.243C305.619 161.595 302.806 161.811 299.966 161.89C297.173 161.967 295.383 161.902 294.598 161.695C293.858 161.44 293.48 161.015 293.464 160.42L292.669 130.878L283.12 131.144C282.616 131.157 282.163 130.528 281.763 129.256C281.362 127.984 281.127 126.088 281.059 123.569C280.99 121.004 281.204 118.707 281.699 116.676C282.193 114.6 282.898 113.549 283.814 113.524L320.981 112.492C321.668 112.473 322.143 113.101 322.406 114.377C322.716 115.652 322.903 117.503 322.968 119.931C323.034 122.358 322.844 124.655 322.398 126.822C321.952 128.988 321.294 130.084 320.424 130.108L311.836 130.346L312.631 159.888Z" fill="#F2E8D9"/>
<path fill-rule="evenodd" clip-rule="evenodd" d="M128.945 165.125C127.69 166.168 125.161 166.742 121.36 166.848C113.253 167.073 109.083 166.226 108.848 164.308L108.246 159.855L101.651 160.038L101.411 163.895C101.355 165.226 100.67 166.162 99.3556 166.702C98.0868 167.242 95.7577 167.558 92.3686 167.653C88.9794 167.747 86.1318 167.528 83.8257 166.996C81.5643 166.417 80.4206 165.647 80.3947 164.685C80.3651 163.586 82.2146 156.521 85.9431 143.492C89.6704 130.418 91.8052 122.887 92.3476 120.901C92.5605 120.3 94.3796 119.768 97.8047 119.306C101.274 118.797 104.979 118.488 108.917 118.379C112.902 118.268 115.119 118.894 115.568 120.257C124.999 148.779 129.72 163.27 129.732 163.728C129.745 164.186 129.482 164.651 128.945 165.125ZM117.607 119.581C122.323 133.843 125.862 144.6 128.224 151.85C129.405 155.474 130.293 158.226 130.888 160.103C130.908 160.168 130.928 160.232 130.948 160.295L129.875 120.41C129.826 118.589 131.2 117.519 132.214 116.978C133.314 116.392 134.794 115.965 136.51 115.631C139.983 114.954 145.083 114.539 151.729 114.354C159.33 114.143 165.065 114.695 168.499 116.322L168.511 116.327C171.808 117.914 174.231 120.133 175.372 123.107L175.379 123.124L175.386 123.142C175.977 124.769 176.276 126.603 176.33 128.608C176.431 132.353 175.882 135.562 174.354 137.914C174.023 138.438 173.667 138.932 173.283 139.384C174.178 139.947 175 140.637 175.743 141.454C177.741 143.65 178.546 147.082 178.656 151.163C178.792 156.193 177.347 160.341 173.968 163.155C171.139 165.525 166.99 166.922 161.834 167.587L161.819 167.589L161.805 167.591C159.624 167.841 157.065 168.005 154.138 168.086L139.093 168.504C137.905 168.537 136.868 168.525 135.998 168.458C135.164 168.394 134.339 168.271 133.655 168.012C133.02 167.771 132.367 167.387 131.863 166.77C131.597 166.444 131.4 166.087 131.269 165.713C131.001 166.118 130.677 166.46 130.364 166.736L130.34 166.756L130.317 166.776C129.32 167.605 128.001 168.11 126.581 168.432C125.133 168.761 123.4 168.94 121.418 168.995C117.32 169.108 114.053 168.959 111.723 168.486C110.567 168.252 109.484 167.908 108.619 167.365C107.726 166.805 106.885 165.903 106.718 164.587L106.376 162.056L103.673 162.131L103.556 164.008C103.509 165.025 103.213 166.009 102.588 166.863C101.966 167.712 101.119 168.297 100.183 168.684C98.4969 169.397 95.7954 169.706 92.4263 169.799C88.9263 169.897 85.8834 169.675 83.3415 169.089L83.3164 169.083L83.2915 169.077C82.064 168.762 80.9395 168.351 80.0711 167.766C79.1897 167.172 78.2867 166.187 78.2479 164.744C78.2379 164.375 78.2993 163.96 78.3544 163.635C78.418 163.26 78.511 162.804 78.6287 162.276C78.8646 161.218 79.2171 159.796 79.682 158.02C80.6129 154.465 82.0124 149.424 83.8778 142.905C87.6073 129.823 89.7375 122.308 90.2758 120.337L90.2967 120.261L90.323 120.186C90.6463 119.273 91.3877 118.797 91.7634 118.588C92.2178 118.334 92.7449 118.143 93.2706 117.99C94.3328 117.679 95.7651 117.414 97.5071 117.179C101.066 116.658 104.851 116.343 108.86 116.232C110.935 116.174 112.738 116.299 114.154 116.698C115.522 117.085 117.049 117.89 117.607 119.581ZM172.593 161.507C175.327 159.231 176.633 155.803 176.509 151.223C176.403 147.284 175.618 144.51 174.154 142.9C173.407 142.079 172.568 141.415 171.638 140.909C170.746 140.424 169.77 140.084 168.711 139.889C169.627 139.715 170.487 139.214 171.29 138.388C171.725 137.94 172.143 137.396 172.545 136.757C173.734 134.937 174.28 132.24 174.184 128.668C174.134 126.836 173.862 125.239 173.367 123.878C172.48 121.565 170.55 119.693 167.578 118.263C164.654 116.877 159.39 116.29 151.787 116.501C138.551 116.869 131.962 118.152 132.021 120.35L133.211 164.525C133.229 165.212 133.632 165.705 134.419 166.004C135.206 166.303 136.745 166.421 139.035 166.357L154.08 165.94C156.966 165.859 159.459 165.699 161.561 165.457C166.54 164.814 170.217 163.498 172.593 161.507ZM103.578 134.546L105.089 134.504L106.452 146.842L102.743 146.945L103.578 134.546ZM154.041 129.213L153.996 129.158C153.827 128.949 153.713 128.876 153.673 128.855C153.649 128.842 153.645 128.842 153.635 128.843L153.632 128.843L153.58 128.844L153.713 133.789C154.014 133.721 154.12 133.597 154.187 133.503C154.363 133.254 154.61 132.625 154.574 131.274C154.538 129.943 154.238 129.427 154.089 129.265L154.041 129.213ZM153.772 135.953C153.633 135.97 153.49 135.98 153.343 135.984L151.625 136.032L151.375 126.757L153.574 126.696C154.352 126.674 155.05 127.044 155.666 127.807C156.327 128.522 156.679 129.658 156.721 131.215C156.799 134.132 155.816 135.712 153.772 135.953ZM154.571 148.93L154.527 148.875C154.358 148.666 154.243 148.593 154.204 148.572C154.192 148.566 154.185 148.563 154.18 148.561C154.173 148.559 154.169 148.56 154.162 148.56L154.111 148.561L154.244 153.506C154.545 153.439 154.651 153.314 154.718 153.22C154.893 152.972 155.141 152.343 155.104 150.992C155.069 149.66 154.769 149.144 154.619 148.982L154.571 148.93ZM154.302 155.671C154.164 155.687 154.021 155.697 153.873 155.701L152.156 155.749L151.906 146.474L154.105 146.413C154.883 146.391 155.581 146.762 156.197 147.524C156.858 148.239 157.209 149.375 157.251 150.932C157.33 153.85 156.347 155.429 154.302 155.671ZM194.603 166.481L194.582 166.476C191.564 165.747 188.77 164.404 186.209 162.47C180.671 158.371 178.132 150.624 177.851 140.185C177.729 135.68 178.267 131.634 179.525 128.09L179.53 128.077L179.534 128.065C180.831 124.55 182.708 121.64 185.212 119.426L185.215 119.423C189.969 115.235 196.141 113.122 203.534 112.916C207.269 112.813 210.592 113.051 213.474 113.662C216.477 114.288 219.304 115.499 221.947 117.272L221.954 117.277L221.962 117.282C227.723 121.215 230.376 128.678 230.646 138.719C230.892 147.828 228.832 155.047 224.023 159.912C219.307 164.684 212.877 167.075 204.998 167.293C201.077 167.402 197.609 167.145 194.624 166.486L194.603 166.481ZM213.03 115.764C210.356 115.196 207.21 114.963 203.592 115.063C196.585 115.258 190.932 117.248 186.634 121.034C184.44 122.974 182.745 125.565 181.549 128.807C180.399 132.047 179.882 135.82 179.997 140.125C180.274 150.385 182.773 157.259 187.496 160.749C189.836 162.518 192.366 163.731 195.088 164.389C197.855 164.999 201.139 165.252 204.94 165.147C212.406 164.939 218.258 162.691 222.496 158.403C226.735 154.114 228.736 147.573 228.499 138.779C228.236 128.978 225.652 122.403 220.75 119.056C218.322 117.427 215.749 116.33 213.03 115.764ZM203.98 152.051C204.066 152.137 204.208 152.224 204.592 152.214C204.976 152.203 205.113 152.108 205.195 152.017C205.248 151.934 205.383 151.679 205.543 151.132C205.714 150.55 205.878 149.762 206.023 148.744C206.306 146.708 206.411 143.793 206.307 139.945C206.203 136.093 205.943 133.243 205.557 131.327C205.358 130.34 205.153 129.588 204.955 129.043C204.857 128.773 204.768 128.575 204.694 128.438C204.619 128.296 204.577 128.251 204.585 128.259C204.5 128.165 204.374 128.053 203.942 128.065C203.51 128.077 203.391 128.196 203.311 128.294C203.306 128.301 203.269 128.354 203.211 128.479C203.145 128.621 203.066 128.822 202.983 129.098C202.814 129.653 202.651 130.415 202.505 131.412C202.222 133.346 202.116 136.206 202.219 140.059C202.323 143.904 202.584 146.807 202.976 148.825C203.176 149.835 203.382 150.614 203.584 151.187C203.773 151.724 203.922 151.971 203.98 152.051ZM202.357 153.462C201.789 152.79 201.292 151.383 200.868 149.24C200.443 147.052 200.177 144.011 200.073 140.118C199.968 136.225 200.07 133.22 200.38 131.103C200.69 128.986 201.111 127.599 201.643 126.943C202.175 126.286 202.922 125.945 203.884 125.918C204.846 125.891 205.61 126.191 206.177 126.817C206.744 127.443 207.239 128.804 207.662 130.901C208.085 132.998 208.349 135.992 208.454 139.886C208.559 143.779 208.458 146.829 208.15 149.038C207.842 151.201 207.422 152.633 206.891 153.336C206.359 153.992 205.612 154.334 204.65 154.36C203.688 154.387 202.924 154.087 202.357 153.462ZM273.642 159.912L273.641 159.914C269.452 163.746 263.442 165.602 255.962 165.81C248.519 166.017 242.411 164.493 237.943 160.921L237.931 160.912C233.371 157.215 231.156 151.643 230.967 144.623L230.289 119.41C230.249 117.939 231.066 116.819 231.964 116.056C232.854 115.299 234.056 114.681 235.423 114.15L235.434 114.146C238.294 113.053 241.552 112.48 245.173 112.379C246.665 112.338 248.025 112.441 249.194 112.751C250.362 113.06 251.483 113.616 252.287 114.587L252.314 114.619L252.339 114.652C253.056 115.591 253.695 116.736 253.729 118.003L254.281 138.476C254.42 143.649 254.694 146.838 255.039 148.279C255.201 148.848 255.372 149.038 255.411 149.074C255.412 149.075 255.413 149.075 255.413 149.076C255.427 149.079 255.458 149.083 255.511 149.081C255.54 149.08 255.562 149.079 255.579 149.076C255.622 149.008 255.72 148.815 255.792 148.394L255.796 148.372L255.801 148.349C256.07 146.963 256.175 143.72 256.031 138.359L255.502 118.71C255.462 117.24 256.279 116.119 257.177 115.356C258.067 114.599 259.269 113.982 260.636 113.45L260.647 113.446C263.504 112.354 266.739 111.781 270.317 111.681C271.869 111.638 273.272 111.739 274.461 112.045C275.641 112.349 276.805 112.908 277.606 113.932L277.638 113.973L277.668 114.015C278.338 114.964 278.909 116.087 278.942 117.303L279.012 119.908C279.125 118.6 279.323 117.355 279.611 116.176C279.882 115.037 280.255 113.97 280.815 113.136C281.395 112.27 282.359 111.416 283.756 111.377L320.922 110.345C322.069 110.314 322.98 110.879 323.565 111.653C324.073 112.324 324.341 113.144 324.502 113.905C324.859 115.398 325.049 117.417 325.115 119.872C325.184 122.448 324.983 124.911 324.501 127.253C324.259 128.427 323.923 129.519 323.41 130.374C322.893 131.234 321.954 132.214 320.481 132.255L314.04 132.434L314.778 159.829C314.811 161.073 313.95 161.78 313.587 162.028C313.158 162.322 312.664 162.514 312.239 162.65C311.356 162.933 310.15 163.166 308.703 163.37L308.688 163.372L308.673 163.374C305.816 163.735 302.933 163.956 300.024 164.037C298.603 164.076 297.407 164.081 296.449 164.046C295.539 164.013 294.689 163.941 294.048 163.772L293.972 163.752L293.898 163.726C293.305 163.522 292.663 163.186 292.154 162.614C291.612 162.005 291.338 161.258 291.317 160.48L290.579 133.085L283.177 133.291C281.89 133.327 281.066 132.505 280.658 131.937C280.236 131.351 279.941 130.624 279.714 129.904C279.507 129.246 279.344 128.488 279.22 127.638L279.641 143.272C279.83 150.284 277.947 155.967 273.642 159.912ZM292.668 130.879L293.464 160.42C293.48 161.016 293.858 161.441 294.598 161.695C295.383 161.903 297.172 161.968 299.966 161.89C302.805 161.811 305.618 161.596 308.405 161.243C311.236 160.844 312.645 160.392 312.631 159.888L311.836 130.347L320.423 130.108C321.293 130.084 321.951 128.989 322.397 126.822C322.843 124.656 323.033 122.359 322.968 119.931C322.903 117.504 322.715 115.653 322.406 114.378C322.143 113.102 321.667 112.473 320.98 112.492L283.814 113.524C282.898 113.549 282.193 114.6 281.698 116.677C281.203 118.707 280.99 121.005 281.059 123.57C281.127 126.089 281.361 127.984 281.762 129.257C282.163 130.529 282.615 131.158 283.119 131.144L292.668 130.879ZM252.961 148.825C252.549 147.141 252.273 143.711 252.134 138.536L251.583 118.063C251.567 117.467 251.25 116.765 250.632 115.958C249.779 114.927 247.979 114.45 245.231 114.526C241.796 114.622 238.786 115.163 236.2 116.152C233.659 117.139 232.405 118.205 232.436 119.35L233.114 144.564C233.292 151.159 235.349 156.052 239.285 159.243C243.219 162.388 248.759 163.861 255.904 163.663C263.094 163.464 268.524 161.686 272.192 158.33C275.904 154.926 277.672 149.927 277.494 143.332L276.795 117.363C276.779 116.767 276.485 116.065 275.914 115.256C275.107 114.224 273.26 113.748 270.375 113.828C266.986 113.922 263.998 114.464 261.412 115.452C258.872 116.439 257.618 117.505 257.648 118.65L258.177 138.299C258.32 143.612 258.231 147.098 257.909 148.757C257.631 150.369 256.852 151.193 255.569 151.228C254.287 151.264 253.417 150.463 252.961 148.825Z" fill="black"/>
</svg>
