<svg width="104" height="140" viewBox="0 0 104 140" fill="none" xmlns="http://www.w3.org/2000/svg">
<path d="M23.0742 132.263C23.0742 132.263 23.568 136.684 25.0644 136.684H73.6975L75.2613 132.263H23.0742Z" fill="white" stroke="black" stroke-miterlimit="10"/>
<path d="M83.7534 40.0844C82.9603 36.4002 79.0023 33.4971 79.0023 33.4971V29.8129L49.0069 29.2087V28.3687L16.086 29.1055V32.7897C16.086 32.7897 12.345 35.7371 11.5968 39.4213C10.8486 43.1055 10.8486 127.105 10.8486 127.105C10.8486 127.105 13.8414 131.527 18.3306 132.263H76.623C81.3741 131.527 84.5465 127.142 84.5465 127.142C84.5465 127.142 84.5465 43.7392 83.7534 40.0844Z" fill="#306091" stroke="black" stroke-miterlimit="10"/>
<path d="M79.3094 24.5371H16.4605C15.0142 24.5371 13.8418 25.6917 13.8418 27.1161V27.4182C13.8418 28.8425 15.0142 29.9971 16.4605 29.9971H79.3094C80.7557 29.9971 81.9281 28.8425 81.9281 27.4182V27.1161C81.9281 25.6917 80.7557 24.5371 79.3094 24.5371Z" fill="white" stroke="black" stroke-miterlimit="10"/>
<path d="M21.3232 36.4741L75.1937 35.7373" stroke="black" stroke-miterlimit="10"/>
<path d="M24.8547 50.8423C24.8547 50.8423 22.6101 70.2212 19.6173 79.9033C16.5938 89.3037 15.0791 99.1112 15.1281 108.972C15.1281 119.626 18.8691 131.254 18.8691 131.254C18.8691 131.254 26.3511 133.192 26.3511 131.254C26.3511 129.316 22.236 116.237 22.9842 110.423C23.7324 104.61 22.9842 92.0023 24.4806 85.2307C25.977 78.4591 27.4734 55.2044 24.8547 50.8423Z" fill="#F9FCF4" stroke="black" stroke-miterlimit="10"/>
<path d="M82.3018 56C82.3018 56 80.2592 73.6179 77.5357 82.4305C74.79 90.9759 73.4143 99.8908 73.458 108.854C73.458 118.551 76.8624 129.117 76.8624 129.117C76.8624 129.117 83.6635 130.878 83.6635 129.117C83.6635 127.356 79.9225 115.463 80.6034 110.18C81.2842 104.897 80.6034 93.439 81.9651 87.2716C83.3268 81.1042 84.711 59.9642 82.3018 56Z" fill="#F9FCF4" stroke="black" stroke-miterlimit="10"/>
<path d="M56.9601 57.9896V53.259H53.3613C53.1139 53.262 52.8711 53.1939 52.6624 53.063C52.4538 52.9322 52.2884 52.7442 52.1866 52.5222C51.9295 51.9411 51.7969 51.314 51.7969 50.6801C51.7969 50.0462 51.9295 49.4191 52.1866 48.838C52.285 48.6166 52.4475 48.4286 52.6538 48.2976C52.86 48.1665 53.1009 48.0982 53.3463 48.1011H63.1403C63.3988 48.0906 63.6543 48.1603 63.8704 48.3004C64.0866 48.4406 64.2525 48.6441 64.3449 48.8822C64.6359 49.6771 64.7606 50.5218 64.7115 51.3654V57.9969C64.7361 59.5058 64.6611 61.0145 64.487 62.5138C64.3593 63.4436 64.1077 64.3529 63.7388 65.218C63.472 65.881 63.0489 66.4721 62.5043 66.9422C62.0488 67.3288 61.467 67.5407 60.8657 67.539C59.5738 67.539 58.5937 66.7383 57.9253 65.1369C57.2893 63.5306 56.9601 61.158 56.9601 57.9896ZM62.7811 56.7369V53.259H58.898V56.7369C58.8911 57.7575 58.9611 58.7771 59.1075 59.7875C59.1805 60.4446 59.3921 61.0796 59.7285 61.6517C59.8438 61.8484 60.0095 62.0118 60.2091 62.1256C60.4087 62.2394 60.6351 62.2996 60.8657 62.3001C61.1671 62.2822 61.4568 62.1787 61.6997 62.0022C61.9427 61.8257 62.1286 61.5836 62.2349 61.3054C62.5991 60.5685 62.7811 59.0457 62.7811 56.7369Z" fill="white"/>
<path d="M57.4468 78.7761V76.9634H53.3616C53.1114 76.9713 52.8644 76.9053 52.6525 76.774C52.4405 76.6428 52.2732 76.4521 52.172 76.2266C51.8948 75.6443 51.7639 75.0049 51.7904 74.3624C51.7558 73.7034 51.8923 73.0466 52.187 72.454C52.2974 72.243 52.4665 72.0672 52.6745 71.9472C52.8824 71.8272 53.1207 71.7678 53.3616 71.7761H63.1406C63.3934 71.7652 63.6436 71.8298 63.8585 71.9612C64.0734 72.0927 64.2431 72.285 64.3452 72.5129C64.6401 73.2839 64.7675 74.1072 64.7193 74.9298V83.3224C64.7193 84.4792 64.7193 85.474 64.6445 86.2698C64.6033 87.0131 64.5032 87.7522 64.3452 88.4803C64.1941 89.2176 63.9425 89.9315 63.597 90.6024C63.3433 91.1433 62.9701 91.6217 62.5047 92.0024C62.137 92.3054 61.6747 92.4745 61.1953 92.4813C60.7039 92.4545 60.2309 92.2887 59.8327 92.0038C59.4346 91.7189 59.1284 91.327 58.9507 90.875C58.2651 89.3301 57.8575 87.6796 57.7461 85.9971C57.5049 86.913 57.1454 87.7946 56.6762 88.6203C56.2391 89.3959 55.7387 90.1352 55.1798 90.8308C54.7444 91.3819 54.2613 91.8947 53.7357 92.3634C53.3018 92.7245 52.9875 92.9087 52.8454 92.9087C52.7421 92.8965 52.643 92.8608 52.5561 92.8046C52.4691 92.7483 52.3965 92.673 52.3441 92.5845C52.1567 92.3205 52.0245 92.0224 51.955 91.7076C51.8568 91.2872 51.8091 90.8569 51.8129 90.4255C51.7984 89.9268 51.8667 89.429 52.0149 88.9519C52.1381 88.5909 52.3119 88.2487 52.5311 87.935C52.7406 87.6476 53.0474 87.2645 53.4514 86.7782L55.1723 84.7076C55.7146 84.0912 56.1956 83.425 56.6088 82.7182C56.9263 82.1646 57.1535 81.5654 57.2822 80.9424C57.4062 80.227 57.4613 79.5017 57.4468 78.7761ZM62.7815 81.7234V76.9634H59.2949V81.5908C59.2846 82.6344 59.3371 83.6776 59.452 84.715C59.5078 85.3892 59.6932 86.0468 59.9982 86.6529C60.0922 86.8526 60.242 87.0218 60.4302 87.1406C60.6184 87.2594 60.8371 87.3228 61.0606 87.3234C61.2481 87.3149 61.4305 87.2615 61.5922 87.1678C61.7539 87.074 61.8899 86.9428 61.9884 86.7855C62.292 86.341 62.4984 85.8392 62.5945 85.3119C62.758 84.1229 62.8205 82.9226 62.7815 81.7234Z" fill="white"/>
<path d="M64.9363 108.648C64.9775 110.939 64.7083 113.227 64.1357 115.449C63.7696 117.047 62.9973 118.528 61.8911 119.752C61.4454 120.218 60.9074 120.589 60.3103 120.843C59.7132 121.096 59.0697 121.226 58.4195 121.225C57.4639 121.236 56.5284 120.955 55.7409 120.422C54.8571 119.804 54.1404 118.982 53.6534 118.028C53.0022 116.794 52.5456 115.469 52.2992 114.1C51.6607 110.564 51.6607 106.945 52.2992 103.409C52.5403 102.039 52.9893 100.712 53.631 99.4738C54.1262 98.5228 54.8475 97.7038 55.7334 97.0865C56.5186 96.5592 57.4467 96.2768 58.397 96.2759C59.3597 96.2714 60.2994 96.5653 61.0831 97.1159C61.9648 97.7561 62.678 98.595 63.1631 99.5622C63.7923 100.789 64.236 102.1 64.4799 103.453C64.7976 105.166 64.9504 106.906 64.9363 108.648ZM58.397 116.016C59.2906 116.029 60.1555 115.705 60.8137 115.11C61.5606 114.406 62.0965 113.514 62.3625 112.531C62.7311 111.282 62.9076 109.985 62.8862 108.684C62.8925 107.724 62.7972 106.766 62.6019 105.825C62.4378 105.034 62.1527 104.271 61.7564 103.563C61.4075 102.968 60.9203 102.463 60.3349 102.09C59.7564 101.726 59.083 101.537 58.397 101.544C57.7041 101.538 57.0237 101.727 56.4367 102.09C55.8334 102.483 55.3354 103.014 54.9852 103.637C54.5825 104.354 54.2924 105.126 54.1248 105.929C53.9258 106.864 53.8305 107.817 53.8405 108.773C53.8281 110.003 53.9944 111.229 54.3343 112.413C54.5907 113.408 55.1065 114.32 55.8307 115.058C56.1752 115.371 56.5794 115.614 57.02 115.772C57.4605 115.93 57.9286 116.001 58.397 115.979V116.016Z" fill="white"/>
<path d="M44.9438 50.5107V55.5286C44.9568 56.6497 44.8868 57.7702 44.7343 58.8813C44.6231 59.7599 44.3705 60.6155 43.9861 61.416C43.0134 63.3809 41.5369 64.3634 39.5567 64.3634C38.9398 64.3872 38.3236 64.2998 37.7386 64.1055C37.1918 63.9065 36.6944 63.595 36.2796 63.1918C35.8081 62.7221 35.4143 62.1826 35.1124 61.5928C34.8416 61.0621 34.6308 60.5037 34.4839 59.9276C34.3207 59.2862 34.2082 58.6334 34.1472 57.9749C34.0799 57.2823 34.0499 56.5013 34.0499 55.6244V50.6139C34.029 50.08 34.0895 49.5459 34.2295 49.0297C34.3056 48.7424 34.4903 48.4947 34.7458 48.337C35.0169 48.2212 35.3108 48.1659 35.6062 48.1749H43.5895C43.7978 48.1622 44.0055 48.2081 44.1884 48.3072C44.3712 48.4064 44.5216 48.5547 44.622 48.7349C44.8732 49.2926 44.9836 49.9019 44.9438 50.5107ZM43.2004 51.9844H35.8082V54.9318C35.8082 55.5728 35.8082 56.0739 35.8082 56.4055C35.8279 56.7842 35.8754 57.1609 35.9504 57.5328C36.0195 57.8818 36.1326 58.2209 36.2871 58.5423C36.5596 59.1502 37.0149 59.6612 37.5915 60.0064C38.1681 60.3516 38.8383 60.5144 39.5118 60.4728C39.9523 60.5051 40.3948 60.4464 40.811 60.3004C41.2272 60.1545 41.6078 59.9246 41.9285 59.6255C42.4697 59.042 42.8238 58.3139 42.9461 57.5328C43.1083 56.5389 43.1834 55.5331 43.1705 54.5265L43.2004 51.9844Z" fill="white"/>
<path d="M38.5541 67.7897H43.7915C43.9911 67.7789 44.1899 67.822 44.3666 67.9141C44.5432 68.0063 44.691 68.1442 44.7941 68.3129C45.0365 68.7342 45.1532 69.2144 45.1308 69.6981C45.1557 70.1915 45.039 70.6818 44.7941 71.1129C44.6923 71.2827 44.5447 71.4215 44.3678 71.5138C44.1908 71.6061 43.9914 71.6484 43.7915 71.636H38.4344C37.9118 71.6222 37.3949 71.7469 36.938 71.9971C36.4801 72.2934 36.1435 72.7397 35.9878 73.2571C35.7318 74.0799 35.618 74.9392 35.6511 75.7992C35.5532 76.9041 35.7929 78.0126 36.3394 78.9823C36.5803 79.2958 36.8964 79.5454 37.2595 79.7088C37.6226 79.8721 38.0211 79.944 38.4194 79.9181H43.8214C44.0213 79.9069 44.2206 79.9488 44.3983 80.0396C44.5761 80.1303 44.7257 80.2665 44.8315 80.4339C45.0698 80.8566 45.1838 81.3363 45.1607 81.8192C45.1807 82.3089 45.067 82.7948 44.8315 83.2265C44.7279 83.3975 44.5794 83.5377 44.4016 83.6324C44.2238 83.727 44.0234 83.7727 43.8214 83.7644H38.584C37.8483 83.7882 37.1174 83.6392 36.4517 83.3297C35.7974 82.9415 35.2762 82.3692 34.9553 81.6865C34.5664 80.9278 34.2964 80.1154 34.1547 79.2771C33.9753 78.2155 33.8902 77.1406 33.9003 76.0644C33.8839 74.8039 33.9765 73.5443 34.1771 72.2992C34.3041 71.3985 34.5875 70.5261 35.0151 69.7202C35.3439 69.101 35.8482 68.5891 36.4666 68.2466C37.1149 67.9309 37.8311 67.7742 38.5541 67.7897Z" fill="white"/>
<path d="M37.4925 104.094C37.0797 104.07 36.686 103.915 36.3702 103.652C35.8819 103.262 35.4731 102.784 35.1656 102.245C34.7247 101.481 34.4043 100.656 34.2154 99.7982C33.9576 98.6592 33.8346 97.4946 33.8487 96.3277C33.8457 95.414 33.9007 94.501 34.0134 93.594C34.1092 92.8426 34.2797 92.1022 34.5221 91.3835C34.7454 90.7313 35.0522 90.1098 35.4349 89.534C35.7566 89.0581 36.1416 88.6269 36.5797 88.2519C36.9829 87.9103 37.4438 87.6409 37.9414 87.4561C38.4203 87.2811 38.927 87.1912 39.4378 87.1909C40.2725 87.1791 41.0922 87.4098 41.7946 87.854C42.5321 88.3468 43.142 89.0029 43.5754 89.7698C44.1042 90.6882 44.483 91.6828 44.6977 92.7172C44.9644 93.8875 45.0949 95.084 45.0867 96.2835C45.1052 97.6693 44.9264 99.0508 44.5555 100.388C44.3055 101.38 43.8635 102.316 43.2536 103.143C43.0937 103.404 42.876 103.625 42.6168 103.791C42.3577 103.957 42.0638 104.063 41.7572 104.101C41.6142 104.09 41.4769 104.041 41.3597 103.959C41.2426 103.877 41.1499 103.766 41.0913 103.637C40.8882 103.296 40.7871 102.905 40.7995 102.51C40.7767 102.131 40.8459 101.752 41.0016 101.405C41.1837 101.094 41.4162 100.815 41.6899 100.579C42.223 100.086 42.6372 99.4821 42.902 98.8109C43.1928 98.0076 43.3298 97.1581 43.306 96.3056C43.376 94.9721 43.0145 93.6512 42.2735 92.533C41.6841 91.8036 40.8387 91.3181 39.9039 91.1722C38.9691 91.0262 38.0127 91.2304 37.2231 91.7445C36.6347 92.1961 36.1948 92.8087 35.9587 93.5056C35.6672 94.3674 35.528 95.2721 35.5472 96.1803C35.5212 97.1347 35.6812 98.0852 36.0185 98.9803C36.2854 99.6855 36.7694 100.291 37.4027 100.712C37.6759 100.865 37.9151 101.07 38.106 101.316C38.314 101.671 38.4079 102.079 38.3754 102.488C38.3878 102.898 38.2924 103.304 38.0985 103.667C38.0408 103.781 37.9553 103.88 37.8497 103.955C37.744 104.029 37.6213 104.077 37.4925 104.094Z" fill="white"/>
<path d="M43.1264 119.884V115.684H35.2104C35.0088 115.696 34.808 115.652 34.6298 115.559C34.4516 115.465 34.303 115.325 34.2004 115.154C33.9604 114.734 33.8438 114.257 33.8637 113.776C33.843 113.29 33.9596 112.808 34.2004 112.383C34.3039 112.212 34.4525 112.072 34.6303 111.978C34.808 111.883 35.0085 111.837 35.2104 111.845H43.1264V107.653C43.0962 107.15 43.1805 106.646 43.3733 106.179C43.4239 106.045 43.5132 105.928 43.6301 105.843C43.747 105.758 43.8866 105.708 44.0317 105.7C44.1808 105.709 44.3239 105.761 44.4426 105.85C44.5613 105.94 44.6501 106.062 44.6976 106.201C44.8904 106.668 44.9748 107.172 44.9445 107.675V119.884C44.9742 120.388 44.8872 120.892 44.6901 121.358C44.6471 121.497 44.5599 121.619 44.4414 121.705C44.3228 121.792 44.1792 121.838 44.0317 121.838C43.8842 121.838 43.7406 121.792 43.6221 121.705C43.5035 121.619 43.4163 121.497 43.3733 121.358C43.1843 120.89 43.1001 120.387 43.1264 119.884Z" fill="white"/>
<path d="M96.5991 34.188C99.4954 27.8853 91.925 18.3553 79.69 12.9022C67.455 7.44911 55.1886 8.13783 52.2922 14.4405C49.3958 20.7432 56.9663 30.2732 69.2013 35.7263C81.4363 41.1794 93.7027 40.4907 96.5991 34.188Z" fill="#ECE01E" stroke="black" stroke-miterlimit="10"/>
<path d="M67.1136 23.1888L65.2655 22.3635C65.3597 22.7399 65.5057 23.1019 65.6995 23.4393C65.9214 23.8157 66.1715 24.1753 66.4477 24.5151C66.1334 24.714 65.8865 24.8761 65.6995 25.0161C65.4738 25.1874 65.259 25.3719 65.056 25.5688C64.8908 25.3381 64.7504 25.0911 64.637 24.8319C64.5572 24.6551 64.4525 24.4095 64.3228 24.0951L63.0733 26.814L61.6667 26.1877L62.8264 23.6677C62.4523 23.8519 62.0782 24.014 61.734 24.1614C61.3529 24.3177 60.9632 24.453 60.5668 24.5667L60.4396 23.9846L60.3199 23.4319C60.275 23.233 60.2301 23.0488 60.1777 22.8867C60.809 22.7715 61.4242 22.5835 62.0108 22.3267C62.5136 22.1049 62.9988 21.8463 63.4623 21.553L61.5769 20.7203L62.1904 19.3867L64.3452 20.3372L64.7343 19.4825L62.4897 18.4951L63.0957 17.1614L64.3452 17.6846C64.3452 17.4414 64.42 17.2056 64.45 16.9477C64.4799 16.6898 64.45 16.3067 64.45 16.0193L65.3553 16.0856L63.9337 15.474L64.5472 14.1403L66.5898 15.0614L67.1809 13.7793L68.3032 14.2803C68.6174 14.4203 68.7521 14.553 68.7072 14.6856C68.6731 14.7541 68.6238 14.8142 68.563 14.8614C68.5021 14.9086 68.4312 14.9417 68.3556 14.9582L68.0189 15.6951L70.054 16.6014L69.4405 17.9351L68.0114 17.3014L68.4977 17.6919C68.7147 17.8614 68.797 18.0014 68.7446 18.0898C68.6923 18.1782 68.5726 18.2077 68.3705 18.1856L67.8543 18.7235L67.4652 19.0919L68.9167 19.7403L68.3032 21.074L66.111 20.094L65.7144 20.9488L67.7196 21.8403L67.1136 23.1888ZM73.376 23.3803L72.4333 22.9603L69.4405 29.5477L68.0413 28.9214L71.0341 22.334L69.9492 21.8477C69.3317 23.3274 68.53 24.7258 67.5625 26.0109C66.8267 26.8684 65.8509 27.4937 64.7567 27.8088C64.637 27.5067 64.5023 27.2119 64.3527 26.9098C64.2031 26.6077 64.0759 26.3572 63.9187 26.0846C64.4891 25.9658 65.0353 25.7541 65.5349 25.4582C65.9942 25.1562 66.401 24.7829 66.7395 24.353C67.1256 23.856 67.4615 23.3229 67.7421 22.7614C67.989 22.3046 68.3331 21.5898 68.7821 20.6246L70.7573 16.3288L71.6776 16.9477C72.1704 17.0495 72.6709 17.1111 73.174 17.1319C73.6737 17.1395 74.1734 17.1173 74.6704 17.0656L75.0969 18.3625C75.2016 18.6646 75.1792 18.834 75.0295 18.8635C74.9387 18.8685 74.8479 18.8547 74.7628 18.8229C74.6778 18.7912 74.6004 18.7423 74.5357 18.6793C74.036 18.6906 73.536 18.6685 73.0393 18.613C72.5354 18.5552 72.0356 18.4666 71.5429 18.3477L70.5553 20.4993L73.997 22.0319L73.376 23.3803ZM64.9812 17.994L66.7918 18.8046L66.2681 18.3625C66.4776 18.1635 66.6646 17.9793 66.8367 17.7951C67.0088 17.6109 67.2782 17.3161 67.4877 17.0582L65.7892 16.3214C65.7892 16.7046 65.7892 17.014 65.7892 17.2498C65.7892 17.4856 65.7892 17.8246 65.7369 18.0898L64.9812 17.994Z" fill="#F44920"/>
<path d="M76.7951 32.679L75.3585 32.038L75.6279 31.4485L73.8771 30.7117L73.5629 31.4043L72.1338 30.7633L74.9021 24.7506L79.511 26.8064L76.7951 32.679ZM75.7102 26.6959L74.4906 29.3411L76.219 30.078L77.4311 27.4401L75.7102 26.6959ZM83.6112 28.0001L82.1148 27.3296L82.4141 26.6885L78.2765 24.8464L77.9548 25.5833L76.4584 24.9348L78.9873 19.438L86.0803 22.599L83.6112 28.0001ZM82.0475 35.0296L80.6109 34.3811L80.8803 33.799L79.1145 33.0106L78.8003 33.7033L77.3712 33.0696L80.1321 27.0569L84.7634 29.1201L82.0475 35.0296ZM79.8552 21.4201L78.905 23.4906L83.0351 25.3327L83.9853 23.2622L79.8552 21.4201ZM80.9401 29.039L79.728 31.6843L81.4639 32.4211L82.6834 29.7833L80.9401 29.039Z" fill="#F44920"/>
</svg>
