<svg width="90" height="120" viewBox="0 0 90 120" fill="none" xmlns="http://www.w3.org/2000/svg">
<path d="M18.6299 111.534C18.6299 111.534 19.1249 115.951 20.6249 115.951H69.3749L70.9424 111.534H18.6299Z" fill="white" stroke="black" stroke-miterlimit="10"/>
<path d="M79.455 19.4355C78.66 15.7545 74.6925 12.8539 74.6925 12.8539V9.17293L44.625 8.56924V7.72998L11.625 8.46618V12.1472C11.625 12.1472 7.875 15.0919 7.125 18.7729C6.375 22.4539 6.375 106.38 6.375 106.38C6.375 106.38 9.375 110.797 13.875 111.534H72.3075C77.07 110.797 80.25 106.417 80.25 106.417C80.25 106.417 80.25 23.087 79.455 19.4355Z" fill="#0B843B" stroke="black" stroke-miterlimit="10"/>
<path d="M75 3.90186H12C10.5503 3.90186 9.375 5.05548 9.375 6.47854V6.78038C9.375 8.20345 10.5503 9.35707 12 9.35707H75C76.4497 9.35707 77.625 8.20345 77.625 6.78038V6.47854C77.625 5.05548 76.4497 3.90186 75 3.90186Z" fill="white" stroke="black" stroke-miterlimit="10"/>
<path d="M16.875 15.828L70.875 15.0918" stroke="black" stroke-miterlimit="10"/>
<path d="M79.125 19.5094C79.125 19.5094 46.125 31.2885 33.375 40.8591C20.625 50.4296 21.375 51.1658 21.375 51.1658C21.375 51.1658 12.375 38.4664 9.375 39.6591L6.375 40.8591L7.125 18.7732C7.8501 16.1426 9.43011 13.8162 11.625 12.1474V9.20264H74.6925L74.625 12.8836C74.625 12.8836 75.2475 13.0014 76.44 14.4149C77.6325 15.8284 78.375 15.8284 79.125 19.5094Z" fill="#E6BE18" stroke="black" stroke-miterlimit="10"/>
<path d="M19.1621 67.73C20.2446 67.5254 21.3529 67.4882 22.4471 67.6195C22.7659 67.6785 23.0912 67.6959 23.4146 67.6711C23.7794 67.5557 24.1254 67.3896 24.4421 67.1778C24.613 67.0871 24.798 67.0249 24.9896 66.9938C25.2762 66.9657 25.5655 67.0044 25.8339 67.1067C26.1024 67.209 26.3425 67.3721 26.5346 67.5827C27.3782 68.2947 27.9473 69.2692 28.1471 70.3434C28.2799 70.9532 28.1979 71.5891 27.9146 72.1471C27.7783 72.3968 27.5847 72.6119 27.3491 72.7755C27.1135 72.939 26.8423 73.0465 26.5571 73.0895C26.0167 73.1717 25.4637 73.0787 24.9821 72.8244C24.5214 72.5215 24.0851 72.1844 23.6771 71.8158C23.2073 71.3669 22.6372 71.0319 22.0122 70.8376C21.3871 70.6433 20.7245 70.5951 20.0771 70.6968C19.5611 70.7689 19.0699 70.9599 18.6436 71.2542C18.2173 71.5486 17.8681 71.9378 17.6246 72.3901C17.0951 73.4581 16.9625 74.6742 17.2496 75.8281C17.5377 77.6857 18.4326 79.4012 19.7996 80.7165C20.2767 81.1578 20.8407 81.4985 21.4571 81.7177C22.0102 81.9192 22.6069 81.9776 23.1896 81.887C23.396 81.8537 23.5934 81.7798 23.77 81.6697C23.9465 81.5597 24.0986 81.4157 24.2171 81.2465C24.4513 80.8889 24.5322 80.455 24.4421 80.0392C24.4275 79.8736 24.3721 79.714 24.2807 79.5742C24.1892 79.4344 24.0644 79.3186 23.9171 79.2367C23.8265 79.1908 23.7265 79.1656 23.6246 79.1631C23.5421 79.1631 23.2946 79.2073 22.8746 79.2809C22.7054 79.3165 22.5307 79.3186 22.3607 79.287C22.1906 79.2554 22.0288 79.1908 21.8846 79.0968C21.7415 79.0059 21.6199 78.8859 21.5281 78.7449C21.4362 78.604 21.3762 78.4453 21.3521 78.2796C21.2171 77.5803 21.5996 76.9913 22.4921 76.5201C23.6043 75.9687 24.7954 75.5864 26.0246 75.3864C27.257 75.1344 28.5203 75.06 29.7746 75.1655C30.7646 75.2833 31.3346 75.7177 31.4771 76.476C31.5071 76.6224 31.5073 76.7733 31.4777 76.9199C31.4481 77.0664 31.3893 77.2058 31.3046 77.33C31.1303 77.5965 30.8641 77.7925 30.5546 77.8821C30.3439 77.9284 30.1513 78.0331 29.9996 78.1839C29.8913 78.4146 29.8374 78.6662 29.8421 78.9201C29.7376 80.3056 29.1978 81.6251 28.2971 82.6968C27.6276 83.4976 26.8078 84.1649 25.8821 84.6625C24.879 85.2052 23.7921 85.5832 22.6646 85.7815C20.8559 86.1089 18.9919 85.9771 17.2496 85.3987C15.656 84.8906 14.2326 83.9677 13.1311 82.7283C12.0296 81.4889 11.2912 79.9794 10.9946 78.3606C10.7106 76.813 10.8663 75.2185 11.4446 73.752C12.0604 72.1126 13.1466 70.6833 14.5721 69.6367C15.924 68.6487 17.4984 67.9947 19.1621 67.73Z" fill="white"/>
<path d="M38.9999 72.8247L40.4999 74.5621C40.5898 74.6773 40.6988 74.7769 40.8224 74.8566C40.9145 74.9038 41.0194 74.9218 41.1224 74.9081C41.3699 74.9081 41.5199 74.967 41.5724 75.1658C41.6011 75.288 41.5871 75.4162 41.5327 75.5296C41.4783 75.6431 41.3866 75.7354 41.2724 75.7916C40.8404 76.0357 40.3723 76.212 39.8849 76.3143C39.3322 76.4683 38.7679 76.5791 38.1974 76.6456C38.0449 76.6637 37.8905 76.6354 37.7549 76.5646C37.698 76.537 37.6477 76.4978 37.6076 76.4495C37.5675 76.4013 37.5384 76.3451 37.5224 76.2848C37.4906 76.2043 37.4906 76.115 37.5224 76.0345C37.5813 75.9416 37.6641 75.8654 37.7624 75.8137C37.8236 75.7865 37.8734 75.7394 37.9035 75.6805C37.9335 75.6215 37.942 75.5541 37.9274 75.4897C37.8674 75.2762 37.7024 75.1805 37.4249 75.21C37.01 75.2682 36.5992 75.3518 36.1949 75.4603C35.9306 75.5114 35.6771 75.606 35.4449 75.74C35.3944 75.8011 35.3631 75.8753 35.3549 75.9535C35.3358 76.0384 35.3358 76.1263 35.3549 76.2112C35.3549 76.2848 35.3999 76.329 35.4299 76.3364C35.532 76.3492 35.6353 76.3492 35.7374 76.3364C35.8248 76.3285 35.9122 76.3517 35.9838 76.4017C36.0553 76.4516 36.1062 76.5251 36.1274 76.6087C36.2324 76.9989 35.8124 77.3449 34.8674 77.5511C34.4756 77.6692 34.0695 77.736 33.6599 77.7499C33.5517 77.7522 33.4461 77.7175 33.3612 77.6516C33.2764 77.5858 33.2175 77.493 33.1949 77.3891C33.1603 77.3066 33.1603 77.214 33.1949 77.1314C33.2551 77.0421 33.3344 76.9667 33.4274 76.9106C33.6017 76.8066 33.7422 76.6559 33.8324 76.4762C33.9524 76.1576 34.0354 75.8267 34.0799 75.4897L34.3799 73.8038C34.4693 73.3513 34.5319 72.8941 34.5674 72.4345C34.5851 72.1502 34.5598 71.8649 34.4924 71.5879C34.4384 71.3953 34.4032 71.1981 34.3874 70.9989C34.4009 70.8843 34.4393 70.7739 34.4999 70.675C34.5802 70.5363 34.6879 70.4148 34.8167 70.3174C34.9455 70.2201 35.0928 70.1489 35.2499 70.1081C35.6105 70.0288 35.9882 70.0784 36.3149 70.248C37.3472 70.9573 38.2542 71.8277 38.9999 72.8247ZM35.7149 74.2971L36.6824 74.0468C36.8624 74.0026 36.9449 73.9364 36.9224 73.8627C36.7728 73.5856 36.5748 73.3364 36.3374 73.1265C36.2317 73.0368 36.1189 72.9555 35.9999 72.8836C35.9706 72.8608 35.9368 72.8445 35.9006 72.8356C35.8643 72.8267 35.8266 72.8255 35.7899 72.8321C35.6699 72.8321 35.5949 73.0014 35.5724 73.237C35.5724 73.237 35.5724 73.3989 35.5274 73.6198C35.4856 73.8332 35.468 74.0505 35.4749 74.2676C35.5049 74.356 35.5874 74.356 35.7449 74.356L35.7149 74.2971Z" fill="white"/>
<path d="M43.905 70.3509L44.4975 72.5595C44.5565 72.8976 44.6896 73.2191 44.8875 73.5018C44.9964 73.574 45.1216 73.6192 45.2523 73.6333C45.383 73.6474 45.5152 73.6301 45.6375 73.5828C45.9574 73.5181 46.2471 73.3527 46.4625 73.1116C46.6486 72.8575 46.7387 72.5478 46.7175 72.2356C46.7175 72.0073 46.7925 71.8748 46.9725 71.8307C47.0579 71.8097 47.1473 71.8102 47.2325 71.8321C47.3177 71.8539 47.3959 71.8965 47.46 71.9558C47.6263 72.1043 47.7415 72.2998 47.79 72.5153C47.8912 72.9854 47.8495 73.4744 47.67 73.9215C47.6354 74.051 47.5769 74.1733 47.4975 74.2822C47.4381 74.358 47.3529 74.4103 47.2575 74.4294L46.125 74.584L42.6525 75.4675C42.4911 75.5221 42.3187 75.5372 42.15 75.5116C42.0797 75.4961 42.0151 75.4617 41.9634 75.4123C41.9118 75.363 41.8751 75.3005 41.8575 75.2319C41.8291 75.1609 41.8291 75.082 41.8575 75.011C41.9355 74.907 42.029 74.8152 42.135 74.7386C42.2093 74.6836 42.271 74.6139 42.3162 74.534C42.3614 74.4541 42.3891 74.3658 42.3975 74.2748C42.3554 73.875 42.2725 73.4804 42.15 73.0969C42.075 72.7951 41.9475 72.3607 41.7825 71.8159C41.6175 71.2712 41.505 70.8736 41.43 70.6012C41.3949 70.4188 41.3263 70.2442 41.2275 70.0859C41.1895 70.0404 41.1413 70.0041 41.0866 69.9798C41.032 69.9555 40.9724 69.944 40.9125 69.946C40.7551 69.939 40.5991 69.9143 40.4475 69.8724C40.3931 69.8529 40.3439 69.8216 40.3036 69.7808C40.2634 69.74 40.2331 69.6908 40.215 69.6368C40.155 69.3938 40.305 69.1656 40.6725 68.9006C41.092 68.6953 41.5389 68.5491 42 68.4662C42.49 68.3287 42.9923 68.2375 43.5 68.1938C43.935 68.1938 44.19 68.2969 44.25 68.5619C44.2695 68.6035 44.2796 68.6487 44.2796 68.6945C44.2796 68.7402 44.2695 68.7854 44.25 68.827C44.1536 68.9458 44.0398 69.0499 43.9125 69.1362C43.8592 69.1754 43.8163 69.2266 43.7876 69.2856C43.7589 69.3446 43.7451 69.4095 43.7475 69.4748C43.7705 69.7712 43.8232 70.0647 43.905 70.3509Z" fill="white"/>
<path d="M50.3324 68.7017L50.9324 70.9103C50.987 71.2473 51.1205 71.5673 51.3224 71.8452C51.4282 71.9238 51.5534 71.9733 51.6852 71.9889C51.817 72.0044 51.9506 71.9853 52.0724 71.9336C52.3909 71.8655 52.6796 71.7006 52.8974 71.4624C53.0858 71.2094 53.1762 70.8988 53.1524 70.5863C53.1524 70.3581 53.2349 70.2256 53.4074 70.1814C53.4934 70.1596 53.5836 70.1589 53.6699 70.1794C53.7563 70.2 53.8361 70.2411 53.9024 70.2992C54.0647 70.4496 54.1771 70.6446 54.2249 70.8587C54.3255 71.3283 54.2864 71.8164 54.1124 72.2649C54.0709 72.3942 54.013 72.5179 53.9399 72.633C53.8754 72.7066 53.7887 72.7582 53.6924 72.7802L52.5599 72.9274L49.0874 73.8182C48.9286 73.8728 48.7586 73.888 48.5924 73.8624C48.5203 73.848 48.4541 73.8131 48.4021 73.762C48.3501 73.711 48.3146 73.646 48.2999 73.5753C48.2846 73.5404 48.2767 73.5028 48.2767 73.4649C48.2767 73.4269 48.2846 73.3893 48.2999 73.3544C48.3829 73.257 48.4759 73.1682 48.5774 73.0894C48.6516 73.0343 48.7134 72.9646 48.7586 72.8848C48.8038 72.8049 48.8315 72.7166 48.8399 72.6256C48.7983 72.2239 48.7179 71.8271 48.5999 71.4403C48.5174 71.1459 48.3974 70.7041 48.2324 70.1594C48.0674 69.6146 47.9549 69.2244 47.8799 68.952C47.8378 68.7682 47.7669 68.5918 47.6699 68.4293C47.6305 68.3854 47.582 68.3502 47.5277 68.3261C47.4734 68.3019 47.4145 68.2894 47.3549 68.2894C47.1969 68.2891 47.04 68.2642 46.8899 68.2158C46.8355 68.1964 46.7863 68.165 46.746 68.1242C46.7058 68.0834 46.6754 68.0342 46.6574 67.9802C46.5974 67.7446 46.7474 67.5164 47.1149 67.2882C47.5288 67.0543 47.9764 66.883 48.4424 66.7802C48.9315 66.6392 49.4342 66.5479 49.9424 66.5078C50.3699 66.5078 50.6249 66.6109 50.6924 66.8759C50.727 66.9584 50.727 67.051 50.6924 67.1336C50.5925 67.2519 50.4764 67.3559 50.3474 67.4428C50.2939 67.4835 50.2511 67.5361 50.2224 67.5963C50.1937 67.6564 50.18 67.7224 50.1824 67.7888C50.205 68.0968 50.2552 68.4023 50.3324 68.7017Z" fill="white"/>
<path d="M54.037 65.5217L56.587 64.8664C57.1045 64.7339 57.4795 64.6309 57.7045 64.5499C57.9348 64.4694 58.156 64.3657 58.3645 64.2407C58.4136 64.2114 58.4666 64.1891 58.522 64.1744C58.6157 64.1548 58.713 64.1587 58.8047 64.1857C58.8965 64.2127 58.9798 64.262 59.047 64.329C59.3568 64.5827 59.5729 64.9293 59.662 65.3155C59.7194 65.4902 59.7194 65.6782 59.662 65.8529C59.6365 65.9217 59.5935 65.9828 59.537 66.0305C59.4806 66.0782 59.4126 66.1108 59.3395 66.1253C59.2521 66.1551 59.157 66.1551 59.0695 66.1253C58.948 66.0668 58.8366 65.9898 58.7395 65.8971C58.5602 65.7236 58.3233 65.619 58.072 65.6026C57.6906 65.6048 57.3116 65.6618 56.947 65.772C56.5645 65.8677 56.3545 65.9928 56.302 66.1474C56.2797 66.2493 56.2797 66.3547 56.302 66.4566C56.302 66.5818 56.407 66.8836 56.5345 67.3769C56.587 67.5756 56.6545 67.6861 56.7295 67.7155C56.9117 67.7401 57.0973 67.7199 57.2695 67.6566C57.3801 67.6403 57.4797 67.5822 57.547 67.4947C57.5891 67.3856 57.5891 67.2651 57.547 67.156C57.5359 67.0213 57.5359 66.8858 57.547 66.7511C57.5557 66.673 57.5869 66.5989 57.637 66.5376C57.6859 66.4599 57.7641 66.4043 57.8545 66.383C57.9243 66.3673 57.997 66.3685 58.0662 66.3865C58.1355 66.4044 58.1992 66.4386 58.252 66.4861C58.3885 66.6149 58.4958 66.7704 58.567 66.9425C58.6811 67.1788 58.7715 67.4253 58.837 67.6787C58.9674 68.1083 58.9981 68.5611 58.927 69.0039C58.9147 69.0913 58.8759 69.1731 58.8158 69.2387C58.7556 69.3043 58.6768 69.3507 58.5895 69.372C58.55 69.3914 58.5063 69.4015 58.462 69.4015C58.4178 69.4015 58.3741 69.3914 58.3345 69.372C58.2488 69.2747 58.1826 69.1622 58.1395 69.0407C58.1153 68.9619 58.0747 68.889 58.0203 68.8264C57.9659 68.7638 57.899 68.7129 57.8236 68.677C57.7482 68.641 57.6661 68.6208 57.5824 68.6175C57.4986 68.6142 57.4151 68.6279 57.337 68.6579C57.2779 68.6674 57.2224 68.6922 57.1763 68.7297C57.1302 68.7672 57.0951 68.8161 57.0745 68.8713C57.0486 69.052 57.0666 69.2362 57.127 69.4088C57.127 69.5634 57.232 69.7548 57.3145 69.9904C57.369 70.1491 57.4341 70.304 57.5095 70.4542C57.5407 70.5032 57.5855 70.5425 57.6386 70.5673C57.6918 70.5921 57.7511 70.6014 57.8095 70.594C58.0483 70.5812 58.2849 70.5417 58.5145 70.4763C58.9093 70.3801 59.2762 70.1962 59.587 69.9388C59.8163 69.7122 59.9615 69.4167 59.9995 69.0996C60.0209 68.9431 60.0691 68.7912 60.142 68.6505C60.2083 68.5639 60.3042 68.5038 60.412 68.4812C60.4794 68.4629 60.5503 68.4614 60.6184 68.4768C60.6865 68.4922 60.7497 68.5241 60.802 68.5695C60.9318 68.6749 61.0216 68.8201 61.057 68.9818C61.0976 69.2256 61.0976 69.4742 61.057 69.718C61.036 70.0152 60.9806 70.3091 60.892 70.594C60.8596 70.688 60.8142 70.7772 60.757 70.8591C60.7153 70.914 60.6535 70.951 60.5845 70.9621C60.4937 70.9854 60.4007 71.0001 60.307 71.0063C60.0138 71.0309 59.7229 71.0776 59.437 71.1462L55.2295 72.2284C55.0934 72.2738 54.9457 72.2738 54.8095 72.2284C54.7526 72.2039 54.7025 72.1664 54.6634 72.119C54.6243 72.0716 54.5972 72.0157 54.5845 71.956C54.5568 71.8849 54.5568 71.8063 54.5845 71.7352C54.6496 71.6478 54.728 71.5708 54.817 71.5069C54.8958 71.4532 54.958 71.3794 54.997 71.2934C55.0183 71.1939 55.0183 71.0911 54.997 70.9916C54.9811 70.3178 54.8982 69.6471 54.7495 68.9891C54.5921 68.1766 54.2981 67.3953 53.8795 66.6775C53.8404 66.6332 53.7917 66.598 53.737 66.5744C53.645 66.5623 53.5516 66.5623 53.4595 66.5744C53.3698 66.5761 53.2824 66.5468 53.2125 66.4916C53.1426 66.4365 53.0946 66.3589 53.077 66.2726C53.0472 66.1741 53.0472 66.0692 53.077 65.9707C53.12 65.8762 53.1939 65.7984 53.287 65.7499C53.5282 65.6482 53.7796 65.5718 54.037 65.5217Z" fill="white"/>
<path d="M64.2977 66.9941C64.1702 66.9941 64.1026 67.0898 64.0876 67.1708C64.087 67.3506 64.1149 67.5294 64.1702 67.7008C64.2493 68.0198 64.3598 68.3305 64.5002 68.6284C64.5299 68.6784 64.5679 68.7232 64.6127 68.7609C64.6851 68.7944 64.7604 68.8215 64.8376 68.8419C64.9351 68.855 65.0265 68.8963 65.0999 68.9606C65.1734 69.0248 65.2257 69.1091 65.2502 69.2027C65.2725 69.3146 65.2558 69.4307 65.2027 69.5322C65.1497 69.6337 65.0633 69.7147 64.9577 69.7622C64.5282 69.988 64.0688 70.154 63.5927 70.2554C62.3627 70.572 61.6952 70.4984 61.5752 70.0419C61.5529 69.9775 61.5529 69.9076 61.5752 69.8432C61.6296 69.7501 61.6951 69.6636 61.7702 69.5855C61.8833 69.4737 61.9569 69.3292 61.9802 69.1732C61.9875 68.9407 61.9649 68.7081 61.9127 68.4812C61.8677 68.2456 61.6577 67.4211 61.2752 66.0002C61.2073 65.6871 61.1016 65.3831 60.9602 65.0947C60.9213 65.0219 60.8659 64.9588 60.7983 64.9103C60.7307 64.8618 60.6526 64.8292 60.5702 64.8149C60.449 64.8 60.332 64.7625 60.2252 64.7045C60.1603 64.6518 60.1154 64.5792 60.0977 64.4984C60.08 64.4404 60.0756 64.3794 60.0847 64.3196C60.0937 64.2598 60.1161 64.2027 60.1501 64.1524C60.2374 64.0249 60.3561 63.921 60.4952 63.8505C60.6764 63.7605 60.8677 63.6913 61.0652 63.6444C61.1777 63.6444 61.4552 63.5634 61.8977 63.4898C62.0317 63.4644 62.1644 63.4325 62.2952 63.3941C62.5877 63.3205 62.9852 63.2027 63.4652 63.0333L64.1177 62.8272C64.7337 62.6432 65.3937 62.6587 66.0002 62.8714C66.2393 62.9612 66.4521 63.1077 66.6196 63.2978C66.7871 63.4879 66.9041 63.7157 66.9602 63.9609C67.0388 64.2479 67.0388 64.5501 66.9602 64.837C66.8859 65.1217 66.7266 65.3781 66.5027 65.5732C66.4127 65.6542 66.3752 65.7278 66.3977 65.7941C66.4202 65.8603 66.5177 65.9487 66.6977 65.9634C67.0363 65.981 67.3588 66.1108 67.6127 66.3315C67.8926 66.6302 68.1093 66.9805 68.2502 67.3622C68.2946 67.5082 68.3773 67.6403 68.4902 67.745C68.6268 67.8046 68.7757 67.8323 68.9252 67.826C68.9983 67.8274 69.0682 67.8564 69.1202 67.907C69.1797 67.9598 69.2215 68.0291 69.2402 68.1057C69.2797 68.2128 69.2797 68.33 69.2402 68.437C69.1853 68.5629 69.1004 68.674 68.9927 68.7609C68.6688 68.9943 68.2981 69.1574 67.9052 69.2395C67.6602 69.3285 67.3977 69.3615 67.1378 69.336C66.8779 69.3105 66.6273 69.2271 66.4052 69.0922C66.2239 68.9571 66.0646 68.7958 65.9327 68.6137C65.7168 68.2958 65.519 67.9665 65.3402 67.6272C65.2336 67.4024 65.0742 67.2056 64.8752 67.053C64.789 67.0026 64.6928 66.9712 64.593 66.961C64.4933 66.9508 64.3925 66.9621 64.2977 66.9941ZM63.3527 64.5646L63.6002 65.7131C63.5976 65.7277 63.5976 65.7426 63.6002 65.7573C63.6112 65.8412 63.6509 65.9191 63.7126 65.9781C63.7495 65.9933 63.789 66.0011 63.8289 66.0011C63.8688 66.0011 63.9083 65.9933 63.9452 65.9781C64.0604 65.9575 64.1696 65.9126 64.2654 65.8465C64.3613 65.7804 64.4413 65.6947 64.5002 65.5953C64.5878 65.3574 64.5878 65.097 64.5002 64.8591C64.3352 64.2333 64.0202 63.9757 63.5702 64.1229C63.4706 64.1416 63.3821 64.1969 63.3227 64.2775C63.3042 64.374 63.3146 64.4738 63.3527 64.5646Z" fill="white"/>
<path d="M69.3526 61.4578C69.8427 61.3195 70.3449 61.2258 70.8526 61.178C70.9976 61.1644 71.1435 61.1925 71.2726 61.259C71.326 61.2834 71.3733 61.3192 71.4109 61.3638C71.4485 61.4084 71.4755 61.4606 71.4901 61.5167C71.5215 61.6099 71.5215 61.7106 71.4901 61.8038C71.43 61.9012 71.4013 62.0141 71.4076 62.1277C71.5038 62.3259 71.6512 62.496 71.8351 62.621C71.8869 62.6763 71.9512 62.7191 72.0228 62.7459C72.0944 62.7727 72.1713 62.7829 72.2476 62.7756C72.3237 62.7581 72.3905 62.7135 72.4351 62.6504C72.5096 62.5443 72.5724 62.4308 72.6226 62.3118C72.6958 62.1816 72.7272 62.0328 72.7126 61.8848C72.7035 61.8388 72.6829 61.7957 72.6526 61.7596C72.5866 61.6955 72.5137 61.6387 72.4351 61.5903C72.3438 61.5216 72.2822 61.4218 72.2626 61.3105C72.1576 60.9498 72.6151 60.6332 73.6276 60.3756C73.998 60.2633 74.3807 60.1941 74.7676 60.1694C74.8841 60.1725 74.9968 60.2111 75.0901 60.2799C75.1787 60.3458 75.2421 60.4392 75.2701 60.5449C75.2904 60.6008 75.2969 60.6607 75.2891 60.7195C75.2812 60.7784 75.2593 60.8346 75.2251 60.8835C75.1197 61.0025 74.9856 61.0936 74.8351 61.1486C74.6645 61.2256 74.5153 61.3417 74.4001 61.4872C74.1926 61.7869 74.0047 62.0992 73.8376 62.4222C73.5974 62.8224 73.4085 63.2502 73.2751 63.6958C73.2202 64.0601 73.2458 64.4317 73.3501 64.7854C73.4551 65.1608 73.5601 65.5216 73.6801 65.8161C73.7183 65.9589 73.7874 66.0919 73.8826 66.2062C73.9801 66.2891 74.0999 66.3427 74.2276 66.3608C74.3362 66.37 74.4398 66.4096 74.5262 66.4748C74.6126 66.5401 74.6782 66.6282 74.7151 66.7289C74.8276 67.1707 74.2276 67.5608 72.8926 67.8995C72.3728 68.0356 71.8398 68.117 71.3026 68.1424C70.8751 68.1424 70.6201 68.0394 70.5526 67.7743C70.5284 67.6699 70.5412 67.5604 70.5889 67.464C70.6367 67.3677 70.7164 67.2902 70.8151 67.2443C70.8836 67.21 70.9443 67.1622 70.9933 67.104C71.0424 67.0457 71.0787 66.9782 71.1001 66.9056C71.102 66.353 71.0134 65.8036 70.8376 65.2786C70.7919 65.0728 70.7107 64.8761 70.5976 64.697C70.4579 64.5141 70.291 64.3528 70.1026 64.2185C69.6245 63.8564 69.1235 63.5244 68.6026 63.2246C68.4238 63.1177 68.2248 63.0476 68.0176 63.0185C67.8619 63.0131 67.7078 62.9859 67.5601 62.9375C67.5042 62.9126 67.4553 62.8748 67.4174 62.8274C67.3796 62.78 67.3539 62.7243 67.3426 62.6651C67.2826 62.4443 67.4101 62.2455 67.7176 62.0688C68.233 61.7958 68.7827 61.5904 69.3526 61.4578Z" fill="white"/>
<path d="M55.0796 77.4183C55.2576 77.3858 55.4386 77.371 55.6196 77.3741H55.7471C55.8156 77.3465 55.881 77.312 55.9421 77.271C55.9789 77.2473 56.0194 77.2299 56.0621 77.2195C56.1238 77.2124 56.1863 77.2193 56.2449 77.2398C56.3034 77.2602 56.3563 77.2936 56.3996 77.3373C56.5033 77.4219 56.5965 77.5183 56.6771 77.6244C56.7427 77.7104 56.7911 77.8078 56.8196 77.9115C56.8309 77.9516 56.8327 77.9936 56.8249 78.0344C56.8171 78.0753 56.7999 78.1138 56.7746 78.1471C56.7268 78.215 56.6544 78.2624 56.5721 78.2796C56.5008 78.298 56.4259 78.298 56.3546 78.2796C56.2365 78.2317 56.1235 78.1725 56.0171 78.1029C55.9101 78.0156 55.7736 77.9709 55.6346 77.9778C55.5843 77.9825 55.5369 78.0032 55.4996 78.0367C55.4874 78.0633 55.4811 78.0921 55.4811 78.1213C55.4811 78.1505 55.4874 78.1794 55.4996 78.206C55.4996 78.3091 55.6421 78.3827 55.8671 78.4342C56.2009 78.4924 56.5211 78.6096 56.8121 78.7802C56.9088 78.8398 56.992 78.9182 57.0565 79.0107C57.121 79.1031 57.1655 79.2076 57.1871 79.3176C57.2193 79.4621 57.2149 79.6122 57.1744 79.7546C57.1339 79.8971 57.0584 80.0276 56.9546 80.1348C56.7604 80.357 56.4966 80.5097 56.2046 80.5692C56.0507 80.5946 55.8955 80.6118 55.7396 80.6207L55.3796 80.6649H55.2896C55.2449 80.6713 55.1994 80.6713 55.1546 80.6649C55.0725 80.6954 54.9818 80.6954 54.8996 80.6649C54.7705 80.5829 54.6606 80.475 54.5771 80.3483C54.4793 80.2291 54.4078 80.0912 54.3671 79.9434C54.3221 79.7446 54.3671 79.6342 54.5321 79.5974C54.5908 79.5798 54.6535 79.5798 54.7121 79.5974C54.8492 79.6668 54.9797 79.7481 55.1021 79.8403C55.1808 79.8973 55.2665 79.9443 55.3571 79.9802C55.4233 79.9985 55.4934 79.9985 55.5596 79.9802C55.6207 79.9689 55.6762 79.9378 55.7171 79.8919C55.7297 79.8667 55.7362 79.839 55.7362 79.8109C55.7362 79.7828 55.7297 79.7551 55.7171 79.7299C55.7171 79.6342 55.5971 79.568 55.4171 79.5238C55.1077 79.4621 54.8143 79.3394 54.5546 79.163C54.3658 79.0276 54.2349 78.8282 54.1871 78.6035C54.1192 78.3559 54.1515 78.0922 54.2771 77.8673C54.3719 77.742 54.4921 77.6373 54.6303 77.56C54.7684 77.4827 54.9215 77.4345 55.0796 77.4183Z" fill="#DAB915"/>
<path d="M58.9272 76.5646C59.2947 76.4831 59.6787 76.5113 60.0297 76.6456C60.2726 76.7483 60.4881 76.9045 60.6597 77.1021C60.846 77.3115 60.9727 77.5654 61.0272 77.8382C61.0745 78.0696 61.0645 78.3088 60.9979 78.5356C60.9313 78.7624 60.8102 78.9701 60.6447 79.1413C60.3057 79.5228 59.8463 79.782 59.3397 79.8775C58.8891 79.9911 58.4112 79.9305 58.0047 79.7082C57.8267 79.61 57.6718 79.4759 57.5503 79.3148C57.4288 79.1536 57.3434 78.9691 57.2997 78.7732C57.2401 78.5424 57.2362 78.301 57.2883 78.0685C57.3404 77.8359 57.447 77.6184 57.5997 77.4333C57.9162 76.9913 58.3898 76.6814 58.9272 76.5646ZM58.8297 77.3524C58.7863 77.3589 58.7452 77.3757 58.7099 77.4014C58.6746 77.427 58.6462 77.4607 58.6272 77.4996C58.5923 77.5948 58.5923 77.6989 58.6272 77.7941C58.6729 77.9666 58.7357 78.1342 58.8147 78.2947C58.9007 78.4834 59.001 78.6655 59.1147 78.8395C59.1481 78.9083 59.2037 78.9643 59.2729 78.9989C59.342 79.0335 59.4209 79.0448 59.4972 79.0309C59.6922 78.9867 59.7597 78.8468 59.7072 78.6113C59.6141 78.2147 59.4435 77.8397 59.2047 77.507C59.1622 77.4516 59.1037 77.4101 59.0368 77.3878C58.97 77.3655 58.8978 77.3634 58.8297 77.3818V77.3524Z" fill="#DAB915"/>
<path d="M64.4999 74.4662L65.1374 77.3521C65.1569 77.4603 65.1871 77.5663 65.2274 77.6687C65.2648 77.7196 65.3171 77.7581 65.3774 77.7791C65.4436 77.8017 65.5048 77.8367 65.5574 77.8822C65.5952 77.921 65.6212 77.9695 65.6324 78.0221C65.6324 78.1914 65.5274 78.3534 65.1974 78.5153C64.9105 78.6598 64.6053 78.7662 64.2899 78.8319C64.2436 78.847 64.1936 78.847 64.1474 78.8319C64.1144 78.7909 64.0913 78.743 64.0799 78.692C64.0424 78.5889 63.9974 78.5448 63.9299 78.5595C63.8683 78.5857 63.8161 78.6292 63.7799 78.6847C63.6143 78.9004 63.3743 79.0495 63.1049 79.1043C62.7674 79.1762 62.4147 79.1154 62.1224 78.935C61.9364 78.8208 61.7715 78.6764 61.6349 78.508C61.4507 78.2981 61.3265 78.0441 61.2749 77.7718C61.2092 77.4678 61.2299 77.152 61.3349 76.8589C61.4308 76.5731 61.6046 76.3185 61.8374 76.1227C62.0161 75.9713 62.2298 75.8652 62.4599 75.8135C62.7054 75.7478 62.9644 75.7478 63.2099 75.8135C63.2369 75.8203 63.2653 75.8203 63.2924 75.8135C63.3599 75.8135 63.3749 75.7031 63.2924 75.519C63.2849 75.4536 63.2528 75.3932 63.2024 75.3497C63.1326 75.3142 63.0559 75.2941 62.9774 75.2908C62.8274 75.2908 62.7449 75.2172 62.7224 75.1141C62.6999 75.011 62.8199 74.8049 63.1124 74.6503C63.4449 74.462 63.7969 74.309 64.1624 74.1939C64.2038 74.177 64.2492 74.1715 64.2936 74.1779C64.338 74.1844 64.3798 74.2026 64.4144 74.2306C64.4491 74.2586 64.4754 74.2953 64.4904 74.3368C64.5055 74.3783 64.5087 74.4231 64.4999 74.4662ZM63.1049 76.4319C63.0338 76.4467 62.9687 76.4819 62.918 76.533C62.8673 76.5841 62.8331 76.6488 62.8199 76.719C62.7516 76.9798 62.7516 77.2533 62.8199 77.5141C62.8574 77.7442 62.9615 77.9589 63.1199 78.1325C63.1654 78.1744 63.2205 78.2049 63.2805 78.2216C63.3405 78.2382 63.4038 78.2405 63.4649 78.2282C63.535 78.2105 63.5972 78.1706 63.6419 78.1147C63.6866 78.0588 63.7114 77.9901 63.7124 77.919C63.7359 77.6541 63.7105 77.3873 63.6374 77.1313C63.6098 76.9043 63.5218 76.6885 63.3824 76.5055C63.3443 76.4648 63.2947 76.4361 63.24 76.423C63.1853 76.4098 63.1278 76.413 63.0749 76.4319H63.1049Z" fill="#DAB915"/>
<path d="M67.0354 74.8784C67.372 74.7931 67.7278 74.819 68.0479 74.952C68.1913 75.0119 68.3156 75.1086 68.4079 75.2318C68.5061 75.3877 68.5747 75.5598 68.6104 75.7398L68.7079 76.2109C68.7378 76.4305 68.809 76.6427 68.9179 76.8367C68.9391 76.8672 68.9674 76.8925 69.0004 76.9103H69.1504C69.2179 76.9103 69.2629 76.9103 69.2779 77.0207C69.2991 77.1362 69.2806 77.2553 69.2254 77.3594C69.1636 77.4915 69.0741 77.6094 68.9629 77.7054C68.8299 77.8258 68.6669 77.9096 68.4904 77.9483C68.3909 77.9762 68.2861 77.9808 68.1845 77.9616C68.0829 77.9424 67.9873 77.9001 67.9054 77.8379C67.8454 77.7937 67.8004 77.7717 67.7629 77.779C67.6996 77.8019 67.6447 77.843 67.6054 77.8968C67.43 78.0804 67.2049 78.2111 66.9565 78.2737C66.7081 78.3363 66.4467 78.3281 66.2029 78.2502C66.072 78.1938 65.9564 78.108 65.8654 77.9999C65.7752 77.8928 65.711 77.7669 65.6779 77.6318C65.6553 77.5211 65.6563 77.4071 65.6808 77.2969C65.7054 77.1867 65.7529 77.0826 65.8204 76.9913C66.109 76.6259 66.5315 76.3855 66.9979 76.3213C67.0795 76.3119 67.1572 76.2815 67.2229 76.233C67.2229 76.233 67.2229 76.1447 67.2229 76.0563C67.1945 75.8893 67.1333 75.7293 67.0429 75.5852C67.0151 75.5437 66.975 75.5116 66.9281 75.4932C66.8812 75.4748 66.8296 75.4709 66.7804 75.4821C66.7158 75.4943 66.6575 75.5282 66.6154 75.5778C66.5574 75.6551 66.5096 75.7391 66.4729 75.8281C66.4409 75.951 66.3772 76.0636 66.2879 76.1552C66.1985 76.2468 66.0866 76.3142 65.9629 76.3508C65.9191 76.3692 65.8718 76.3787 65.8242 76.3787C65.7765 76.3787 65.7293 76.3692 65.6854 76.3508C65.6468 76.3273 65.6135 76.2962 65.5877 76.2594C65.5619 76.2227 65.5441 76.1811 65.5354 76.1373C65.5159 76.0234 65.5371 75.9063 65.5954 75.806C65.6627 75.6753 65.7573 75.5599 65.8729 75.4674C66.2016 75.1752 66.6023 74.9722 67.0354 74.8784ZM67.2229 76.7557C67.1762 76.7639 67.1321 76.7828 67.0943 76.811C67.0565 76.8391 67.026 76.8757 67.0054 76.9177C66.9766 76.9606 66.957 77.0089 66.948 77.0596C66.939 77.1102 66.9406 77.1621 66.9529 77.2121C66.9683 77.3017 67.0162 77.3828 67.0879 77.4404C67.1164 77.4668 67.1515 77.4855 67.1897 77.4946C67.2278 77.5036 67.2677 77.5027 67.3054 77.4919C67.4704 77.4551 67.5304 77.3005 67.4629 77.0134C67.4529 76.9322 67.4248 76.8543 67.3804 76.7852C67.3592 76.7669 67.3335 76.7545 67.3058 76.7493C67.278 76.7441 67.2494 76.7463 67.2229 76.7557Z" fill="#DAB915"/>
<path d="M55.875 57.0551C57.5319 57.0551 58.875 55.7367 58.875 54.1103C58.875 52.484 57.5319 51.1655 55.875 51.1655C54.2181 51.1655 52.875 52.484 52.875 54.1103C52.875 55.7367 54.2181 57.0551 55.875 57.0551Z" fill="#DAB915"/>
<path d="M60.0004 87.6074C60.1158 87.6031 60.2293 87.6367 60.3229 87.7031C60.3669 87.7284 60.4011 87.7672 60.4204 87.8135C60.4343 87.8741 60.4343 87.9369 60.4204 87.9975V88.1595C60.4079 88.2301 60.4079 88.3024 60.4204 88.373H60.4654C60.4654 88.373 60.5029 88.373 60.5029 88.4172C60.5002 88.4577 60.4845 88.4964 60.4579 88.5276C60.4275 88.5648 60.3891 88.595 60.3454 88.6159C60.2949 88.6505 60.2345 88.6686 60.1729 88.6675C60.1386 88.6683 60.1045 88.6615 60.0733 88.6475C60.0421 88.6334 60.0146 88.6126 59.9929 88.5865C59.9929 88.5865 59.9929 88.5865 59.9479 88.5865C59.9029 88.5865 59.9479 88.5865 59.8954 88.5865C59.8212 88.6392 59.732 88.6675 59.6404 88.6675C59.5577 88.6702 59.4763 88.647 59.4079 88.6012C59.3685 88.576 59.3373 88.5402 59.3179 88.4982C59.3068 88.4547 59.3068 88.4091 59.3179 88.3656C59.32 88.3278 59.3297 88.2908 59.3464 88.2567C59.3632 88.2226 59.3866 88.192 59.4154 88.1669C59.5355 88.0708 59.6884 88.0234 59.8429 88.0343C59.87 88.0409 59.8983 88.0409 59.9254 88.0343C59.9317 88.0152 59.9317 87.9946 59.9254 87.9755C59.9361 87.922 59.9361 87.867 59.9254 87.8135C59.9191 87.7974 59.9076 87.7837 59.8928 87.7744C59.8779 87.7652 59.8605 87.7608 59.8429 87.762C59.8235 87.7552 59.8023 87.7552 59.7829 87.762C59.7597 87.7838 59.7395 87.8086 59.7229 87.8356C59.6554 87.9239 59.5879 87.9755 59.5204 87.9755C59.4866 87.9754 59.4543 87.9621 59.4304 87.9386C59.4248 87.9258 59.422 87.9121 59.422 87.8981C59.422 87.8842 59.4248 87.8705 59.4304 87.8577C59.4324 87.8191 59.4484 87.7826 59.4754 87.7546C59.5058 87.7174 59.5442 87.6872 59.5879 87.6663C59.7181 87.6126 59.86 87.5923 60.0004 87.6074ZM59.9254 88.2331C59.9125 88.2272 59.8984 88.2241 59.8842 88.2241C59.8699 88.2241 59.8558 88.2272 59.8429 88.2331C59.8326 88.2617 59.8326 88.2929 59.8429 88.3215C59.8342 88.3503 59.8342 88.381 59.8429 88.4098C59.8535 88.4145 59.865 88.4169 59.8767 88.4169C59.8883 88.4169 59.8998 88.4145 59.9104 88.4098C59.9704 88.4098 60.0004 88.3583 60.0004 88.2626C60.0061 88.2359 60.0061 88.2083 60.0004 88.1816C59.9877 88.1807 59.9751 88.1838 59.9643 88.1904C59.9535 88.197 59.9451 88.2068 59.9404 88.2184L59.9254 88.2331Z" fill="white"/>
<path d="M61.2603 87.2614V87.681C61.2603 87.681 61.2603 87.681 61.3053 87.681C61.3849 87.6147 61.4859 87.5782 61.5903 87.5779C61.6913 87.5797 61.7879 87.6192 61.8603 87.6884C61.9085 87.7338 61.9462 87.7888 61.9708 87.8498C61.9954 87.9108 62.0063 87.9762 62.0028 88.0417C62.0072 88.1373 61.9884 88.2325 61.948 88.3196C61.9076 88.4066 61.8467 88.4829 61.7703 88.5423C61.6565 88.6346 61.5129 88.6842 61.3653 88.6822C61.2201 88.6844 61.0781 88.6405 60.9603 88.5571H60.8928H60.8253C60.7803 88.5571 60.7578 88.5571 60.7578 88.5571C60.7633 88.5008 60.7633 88.4441 60.7578 88.3877C60.7578 88.3141 60.7578 88.2037 60.7578 88.0565V87.762C60.7578 87.6884 60.7578 87.6368 60.7578 87.6221C60.7539 87.6108 60.747 87.6007 60.7377 87.5929C60.7285 87.5851 60.7173 87.58 60.7053 87.5779C60.7053 87.5779 60.6378 87.5779 60.6303 87.5264C60.6262 87.5171 60.624 87.5071 60.624 87.4969C60.624 87.4868 60.6262 87.4768 60.6303 87.4675C60.6303 87.4233 60.6828 87.3792 60.7878 87.3276C60.8554 87.3007 60.9258 87.2809 60.9978 87.2687C61.07 87.2594 61.1431 87.2594 61.2153 87.2687C61.2378 87.1951 61.2603 87.2172 61.2603 87.2614ZM61.3503 87.9166C61.3374 87.9107 61.3233 87.9076 61.309 87.9076C61.2948 87.9076 61.2807 87.9107 61.2678 87.9166C61.257 87.9576 61.257 88.0007 61.2678 88.0417C61.2561 88.1568 61.2561 88.2727 61.2678 88.3877C61.2677 88.399 61.2701 88.4102 61.2747 88.4205C61.2793 88.4309 61.2861 88.4401 61.2945 88.4478C61.303 88.4554 61.313 88.4612 61.3239 88.4648C61.3348 88.4684 61.3463 88.4698 61.3578 88.4687C61.3821 88.4701 61.4064 88.4646 61.4277 88.4529C61.449 88.4411 61.4663 88.4236 61.4778 88.4025C61.5119 88.3418 61.5275 88.2728 61.5228 88.2037C61.5305 88.1082 61.5068 88.0127 61.4553 87.9313C61.4235 87.9133 61.3859 87.908 61.3503 87.9166Z" fill="white"/>
<path d="M62.7079 87.6074C62.8303 87.603 62.951 87.6365 63.0529 87.7031C63.0957 87.7247 63.1316 87.7574 63.1567 87.7976C63.1819 87.8378 63.1953 87.8841 63.1954 87.9313C63.1954 87.9602 63.1894 87.9888 63.1778 88.0154C63.1662 88.042 63.1493 88.066 63.1279 88.0859C63.0874 88.1178 63.0374 88.1358 62.9854 88.1374C62.9579 88.1389 62.9305 88.1337 62.9056 88.1221C62.8807 88.1105 62.8592 88.093 62.8429 88.0712C62.8277 88.0379 62.8151 88.0034 62.8054 87.9681C62.7989 87.9434 62.7845 87.9214 62.7642 87.9055C62.7439 87.8896 62.7189 87.8806 62.6929 87.8798C62.6724 87.8788 62.652 87.883 62.6336 87.8921C62.6152 87.9011 62.5995 87.9146 62.5879 87.9313C62.5752 87.9721 62.5752 88.0157 62.5879 88.0564C62.5872 88.141 62.6194 88.2227 62.6779 88.2847C62.7032 88.3104 62.7335 88.3308 62.767 88.3447C62.8005 88.3586 62.8366 88.3657 62.8729 88.3657H62.9629H63.0604C63.0821 88.3571 63.1063 88.3571 63.1279 88.3657C63.1341 88.3923 63.1341 88.42 63.1279 88.4466C63.1259 88.4852 63.11 88.5217 63.0829 88.5497C63.0536 88.5871 63.0181 88.6194 62.9779 88.6454C62.8762 88.7055 62.7592 88.7361 62.6404 88.7337C62.4986 88.7362 62.3604 88.6893 62.2504 88.6012C62.186 88.5513 62.1342 88.4875 62.0991 88.4147C62.064 88.3419 62.0465 88.2621 62.0479 88.1816C62.0468 88.105 62.0638 88.0292 62.0976 87.9602C62.1315 87.8912 62.1812 87.8309 62.2429 87.7841C62.3041 87.7251 62.3769 87.679 62.4569 87.6486C62.5368 87.6183 62.6223 87.6042 62.7079 87.6074Z" fill="white"/>
<path d="M64.5524 87.2763V88.2628C64.5467 88.2994 64.5467 88.3366 64.5524 88.3732C64.5489 88.3877 64.5489 88.4029 64.5524 88.4174C64.5736 88.4304 64.5916 88.4481 64.6049 88.4689C64.6082 88.4758 64.6099 88.4834 64.6099 88.491C64.6099 88.4987 64.6082 88.5062 64.6049 88.5131C64.6049 88.572 64.5449 88.6162 64.4324 88.6456C64.3273 88.6742 64.2189 88.6891 64.1099 88.6898H64.0649C64.0649 88.6898 64.0649 88.6898 64.0649 88.6456C64.0649 88.6014 64.0649 88.5867 64.0649 88.5867C64.0649 88.5867 64.0649 88.5867 64.0049 88.5867C63.9353 88.6434 63.8478 88.6747 63.7574 88.6751C63.6424 88.6735 63.5323 88.6287 63.4499 88.5499C63.3986 88.5004 63.3555 88.4433 63.3224 88.3806C63.2791 88.3013 63.2559 88.2129 63.2549 88.1229C63.2565 88.0195 63.2849 87.9182 63.3374 87.8284C63.3885 87.7427 63.4641 87.6736 63.5549 87.6297C63.6227 87.5896 63.7007 87.5692 63.7799 87.5708C63.8606 87.5678 63.9408 87.5856 64.0124 87.6223C64.0124 87.6223 64.0124 87.6223 64.0124 87.5266C64.0165 87.5173 64.0186 87.5073 64.0186 87.4972C64.0186 87.487 64.0165 87.477 64.0124 87.4677C63.9906 87.4598 63.9667 87.4598 63.9449 87.4677C63.9269 87.4645 63.9105 87.4555 63.8983 87.4422C63.8861 87.4289 63.8787 87.412 63.8774 87.3941C63.8774 87.3352 63.9299 87.2984 64.0349 87.2689C64.1567 87.2308 64.2825 87.2061 64.4099 87.1953C64.4999 87.1953 64.5524 87.2248 64.5524 87.2763ZM63.9524 87.8211C63.9289 87.8232 63.9063 87.8311 63.8867 87.844C63.867 87.8568 63.851 87.8742 63.8399 87.8947C63.8 87.9773 63.782 88.0685 63.7874 88.1597C63.7813 88.2369 63.7996 88.314 63.8399 88.3806C63.8509 88.3978 63.8665 88.4118 63.885 88.4209C63.9035 88.43 63.9242 88.4339 63.9449 88.4321C63.9686 88.4304 63.9912 88.4217 64.0099 88.4073C64.0286 88.3929 64.0425 88.3733 64.0499 88.3511C64.0662 88.2635 64.0662 88.1737 64.0499 88.0861C64.0677 88.0135 64.0677 87.9378 64.0499 87.8652C64.0398 87.8493 64.0252 87.8367 64.0079 87.8288C63.9906 87.8209 63.9713 87.8183 63.9524 87.8211Z" fill="white"/>
<path d="M65.7446 88.1818H65.2496C65.2513 88.208 65.2589 88.2335 65.2719 88.2564C65.2848 88.2793 65.3028 88.2991 65.3246 88.3143C65.37 88.3537 65.429 88.3748 65.4896 88.3732C65.5293 88.38 65.5699 88.38 65.6096 88.3732C65.6473 88.3621 65.6828 88.3446 65.7146 88.3217H65.7746C65.7828 88.3178 65.7917 88.3158 65.8008 88.3158C65.8099 88.3158 65.8189 88.3178 65.8271 88.3217C65.8363 88.3454 65.8363 88.3716 65.8271 88.3953C65.8246 88.4259 65.8144 88.4554 65.7974 88.4811C65.7803 88.5068 65.757 88.5279 65.7296 88.5426C65.6133 88.6296 65.4708 88.6762 65.3246 88.6751C65.1846 88.6799 65.048 88.6325 64.9421 88.5426C64.8895 88.4999 64.8461 88.4474 64.8146 88.388C64.7704 88.309 64.7472 88.2204 64.7471 88.1303C64.7465 88.0107 64.7861 87.8943 64.8596 87.799C64.9264 87.7196 65.0111 87.6566 65.1071 87.615C65.1835 87.5855 65.265 87.5706 65.3471 87.5708C65.4777 87.5653 65.6059 87.6073 65.7071 87.6886C65.7547 87.7255 65.7953 87.7704 65.8271 87.8211C65.8544 87.8763 65.8697 87.9365 65.8721 87.9978C65.8852 88.036 65.8852 88.0774 65.8721 88.1156C65.8718 88.13 65.8676 88.1441 65.8598 88.1564C65.8521 88.1687 65.8412 88.1788 65.8282 88.1855C65.8152 88.1923 65.8006 88.1955 65.7859 88.1949C65.7712 88.1942 65.7569 88.1897 65.7446 88.1818ZM65.2571 87.9831H65.3696C65.3787 87.9843 65.388 87.9834 65.3968 87.9805C65.4056 87.9776 65.4135 87.9728 65.42 87.9663C65.4266 87.9599 65.4315 87.9521 65.4345 87.9435C65.4374 87.9349 65.4383 87.9258 65.4371 87.9168C65.4479 87.8858 65.4479 87.8521 65.4371 87.8211C65.4132 87.7976 65.3809 87.7844 65.3471 87.7843C65.3275 87.7831 65.3081 87.7873 65.2908 87.7964C65.2736 87.8055 65.2593 87.8192 65.2496 87.8358C65.2399 87.8645 65.2399 87.8955 65.2496 87.9242C65.2496 87.9242 65.2496 87.9242 65.2496 87.9683L65.2571 87.9831Z" fill="white"/>
<path d="M60.0004 91.2885C60.1158 91.2842 60.2293 91.3179 60.3229 91.3842C60.3669 91.4095 60.4011 91.4483 60.4204 91.4946C60.4343 91.5552 60.4343 91.6181 60.4204 91.6787V91.8407C60.4079 91.9113 60.4079 91.9835 60.4204 92.0542H60.4654C60.4654 92.0542 60.5029 92.0541 60.5029 92.0983C60.5002 92.1389 60.4845 92.1776 60.4579 92.2088C60.4275 92.246 60.3891 92.2761 60.3454 92.2971C60.2949 92.3317 60.2345 92.3497 60.1729 92.3486C60.1386 92.3495 60.1045 92.3427 60.0733 92.3286C60.0421 92.3146 60.0146 92.2937 59.9929 92.2676C59.9929 92.2676 59.9929 92.2676 59.9479 92.2676C59.9029 92.2676 59.9479 92.2676 59.8954 92.2676C59.8212 92.3203 59.732 92.3487 59.6404 92.3486C59.5577 92.3513 59.4763 92.3281 59.4079 92.2824C59.3685 92.2571 59.3373 92.2214 59.3179 92.1793C59.3068 92.1358 59.3068 92.0903 59.3179 92.0468C59.32 92.009 59.3297 91.972 59.3464 91.9378C59.3632 91.9037 59.3866 91.8732 59.4154 91.848C59.5355 91.752 59.6884 91.7046 59.8429 91.7155C59.87 91.7221 59.8983 91.7221 59.9254 91.7155C59.9317 91.6964 59.9317 91.6757 59.9254 91.6566C59.9361 91.6031 59.9361 91.5481 59.9254 91.4946C59.9191 91.4785 59.9076 91.4649 59.8928 91.4556C59.8779 91.4463 59.8605 91.4419 59.8429 91.4431C59.8235 91.4364 59.8023 91.4364 59.7829 91.4431C59.7597 91.465 59.7395 91.4897 59.7229 91.5167C59.6554 91.6051 59.5879 91.6566 59.5204 91.6566C59.4866 91.6565 59.4543 91.6433 59.4304 91.6198C59.4248 91.607 59.422 91.5932 59.422 91.5793C59.422 91.5654 59.4248 91.5516 59.4304 91.5388C59.4324 91.5003 59.4484 91.4637 59.4754 91.4357C59.5058 91.3985 59.5442 91.3684 59.5879 91.3474C59.7181 91.2938 59.86 91.2735 60.0004 91.2885ZM59.9254 91.9143C59.9125 91.9084 59.8984 91.9053 59.8842 91.9053C59.8699 91.9053 59.8558 91.9084 59.8429 91.9143C59.8326 91.9429 59.8326 91.974 59.8429 92.0026C59.8342 92.0314 59.8342 92.0621 59.8429 92.091C59.8535 92.0956 59.865 92.098 59.8767 92.098C59.8883 92.098 59.8998 92.0956 59.9104 92.091C59.9704 92.091 60.0004 92.0394 60.0004 91.9437C60.0061 91.917 60.0061 91.8894 60.0004 91.8627C59.9877 91.8618 59.9751 91.8649 59.9643 91.8715C59.9535 91.8782 59.9451 91.888 59.9404 91.8996L59.9254 91.9143Z" fill="white"/>
<path d="M61.2603 90.9425V91.3621C61.2603 91.3621 61.2603 91.3621 61.3053 91.3621C61.3849 91.2959 61.4859 91.2594 61.5903 91.2591C61.6913 91.2609 61.7879 91.3004 61.8603 91.3695C61.9085 91.4149 61.9462 91.47 61.9708 91.5309C61.9954 91.5919 62.0063 91.6574 62.0028 91.7229C62.0072 91.8184 61.9884 91.9137 61.948 92.0007C61.9076 92.0877 61.8467 92.1641 61.7703 92.2235C61.6565 92.3158 61.5129 92.3654 61.3653 92.3634C61.2201 92.3655 61.0781 92.3216 60.9603 92.2382H60.8928H60.8253C60.7803 92.2382 60.7578 92.2382 60.7578 92.2382C60.7633 92.1819 60.7633 92.1252 60.7578 92.0689C60.7578 91.9953 60.7578 91.8848 60.7578 91.7376V91.4431C60.7578 91.3695 60.7578 91.318 60.7578 91.3033C60.7539 91.2919 60.747 91.2818 60.7377 91.2741C60.7285 91.2663 60.7173 91.2611 60.7053 91.2591C60.7053 91.2591 60.6378 91.2591 60.6303 91.2075C60.6262 91.1983 60.624 91.1882 60.624 91.1781C60.624 91.168 60.6262 91.1579 60.6303 91.1486C60.6303 91.1045 60.6828 91.0603 60.7878 91.0088C60.8554 90.9818 60.9258 90.9621 60.9978 90.9499C61.07 90.9405 61.1431 90.9405 61.2153 90.9499C61.2378 90.8763 61.2603 90.8983 61.2603 90.9425ZM61.3503 91.5977C61.3374 91.5918 61.3233 91.5887 61.309 91.5887C61.2948 91.5887 61.2807 91.5918 61.2678 91.5977C61.257 91.6388 61.257 91.6818 61.2678 91.7229C61.2561 91.8379 61.2561 91.9538 61.2678 92.0689C61.2677 92.0802 61.2701 92.0913 61.2747 92.1017C61.2793 92.112 61.2861 92.1213 61.2945 92.1289C61.303 92.1366 61.313 92.1424 61.3239 92.146C61.3348 92.1496 61.3463 92.1509 61.3578 92.1499C61.3821 92.1513 61.4064 92.1458 61.4277 92.134C61.449 92.1223 61.4663 92.1048 61.4778 92.0836C61.5119 92.023 61.5275 91.954 61.5228 91.8848C61.5305 91.7893 61.5068 91.6939 61.4553 91.6125C61.4235 91.5945 61.3859 91.5892 61.3503 91.5977Z" fill="white"/>
<path d="M62.7079 91.2885C62.8303 91.2842 62.951 91.3177 63.0529 91.3842C63.0957 91.4058 63.1316 91.4385 63.1567 91.4787C63.1819 91.519 63.1953 91.5652 63.1954 91.6124C63.1954 91.6414 63.1894 91.67 63.1778 91.6965C63.1662 91.7231 63.1493 91.7471 63.1279 91.7671C63.0874 91.7989 63.0374 91.817 62.9854 91.8186C62.9579 91.8201 62.9305 91.8148 62.9056 91.8032C62.8807 91.7917 62.8592 91.7742 62.8429 91.7523C62.8277 91.719 62.8151 91.6845 62.8054 91.6493C62.7989 91.6246 62.7845 91.6026 62.7642 91.5867C62.7439 91.5707 62.7189 91.5617 62.6929 91.5609C62.6724 91.56 62.652 91.5642 62.6336 91.5732C62.6152 91.5822 62.5995 91.5958 62.5879 91.6124C62.5752 91.6532 62.5752 91.6968 62.5879 91.7376C62.5872 91.8222 62.6194 91.9038 62.6779 91.9658C62.7032 91.9915 62.7335 92.0119 62.767 92.0259C62.8005 92.0398 62.8366 92.0469 62.8729 92.0468H62.9629H63.0604C63.0821 92.0382 63.1063 92.0382 63.1279 92.0468C63.1341 92.0735 63.1341 92.1011 63.1279 92.1278C63.1259 92.1663 63.11 92.2029 63.0829 92.2309C63.0536 92.2682 63.0181 92.3006 62.9779 92.3266C62.8762 92.3866 62.7592 92.4173 62.6404 92.4149C62.4986 92.4174 62.3604 92.3704 62.2504 92.2824C62.186 92.2325 62.1342 92.1686 62.0991 92.0959C62.064 92.0231 62.0465 91.9433 62.0479 91.8628C62.0468 91.7862 62.0638 91.7104 62.0976 91.6414C62.1315 91.5724 62.1812 91.5121 62.2429 91.4652C62.3041 91.4062 62.3769 91.3602 62.4569 91.3298C62.5368 91.2994 62.6223 91.2854 62.7079 91.2885Z" fill="white"/>
<path d="M64.5524 90.957V91.9435C64.5467 91.9801 64.5467 92.0173 64.5524 92.0539C64.5489 92.0684 64.5489 92.0835 64.5524 92.0981C64.5736 92.1111 64.5916 92.1287 64.6049 92.1496C64.6082 92.1565 64.6099 92.164 64.6099 92.1717C64.6099 92.1793 64.6082 92.1869 64.6049 92.1938C64.6049 92.2527 64.5449 92.2968 64.4324 92.3263C64.3273 92.3549 64.2189 92.3697 64.1099 92.3705H64.0649C64.0649 92.3705 64.0649 92.3705 64.0649 92.3263C64.0649 92.2821 64.0649 92.2674 64.0649 92.2674C64.0649 92.2674 64.0649 92.2674 64.0049 92.2674C63.9353 92.3241 63.8478 92.3553 63.7574 92.3557C63.6424 92.3541 63.5323 92.3093 63.4499 92.2306C63.3986 92.1811 63.3555 92.1239 63.3224 92.0613C63.2791 91.9819 63.2559 91.8935 63.2549 91.8036C63.2565 91.7001 63.2849 91.5988 63.3374 91.5091C63.3885 91.4234 63.4641 91.3543 63.5549 91.3103C63.6227 91.2703 63.7007 91.2499 63.7799 91.2514C63.8606 91.2485 63.9408 91.2663 64.0124 91.303C64.0124 91.303 64.0124 91.303 64.0124 91.2073C64.0165 91.198 64.0186 91.1879 64.0186 91.1778C64.0186 91.1677 64.0165 91.1577 64.0124 91.1484C63.9906 91.1405 63.9667 91.1405 63.9449 91.1484C63.9269 91.1452 63.9105 91.1362 63.8983 91.1229C63.8861 91.1095 63.8787 91.0926 63.8774 91.0747C63.8774 91.0159 63.9299 90.979 64.0349 90.9496C64.1567 90.9114 64.2825 90.8867 64.4099 90.876C64.4999 90.876 64.5524 90.9054 64.5524 90.957ZM63.9524 91.5017C63.9289 91.5039 63.9063 91.5118 63.8867 91.5246C63.867 91.5375 63.851 91.5549 63.8399 91.5754C63.8 91.658 63.782 91.7491 63.7874 91.8404C63.7813 91.9176 63.7996 91.9947 63.8399 92.0613C63.8509 92.0785 63.8665 92.0924 63.885 92.1015C63.9035 92.1106 63.9242 92.1145 63.9449 92.1128C63.9686 92.111 63.9912 92.1024 64.0099 92.088C64.0286 92.0735 64.0425 92.054 64.0499 92.0318C64.0662 91.9442 64.0662 91.8544 64.0499 91.7668C64.0677 91.6942 64.0677 91.6185 64.0499 91.5459C64.0398 91.53 64.0252 91.5173 64.0079 91.5095C63.9906 91.5016 63.9713 91.4989 63.9524 91.5017Z" fill="white"/>
<path d="M65.7446 91.8625H65.2496C65.2513 91.8887 65.2589 91.9141 65.2719 91.9371C65.2848 91.96 65.3028 91.9798 65.3246 91.995C65.37 92.0344 65.429 92.0554 65.4896 92.0539C65.5293 92.0606 65.5699 92.0606 65.6096 92.0539C65.6473 92.0427 65.6828 92.0253 65.7146 92.0024H65.7746C65.7828 91.9985 65.7917 91.9964 65.8008 91.9964C65.8099 91.9964 65.8189 91.9985 65.8271 92.0024C65.8363 92.0261 65.8363 92.0523 65.8271 92.076C65.8246 92.1066 65.8144 92.1361 65.7974 92.1618C65.7803 92.1875 65.757 92.2086 65.7296 92.2232C65.6133 92.3102 65.4708 92.3568 65.3246 92.3557C65.1846 92.3605 65.048 92.3132 64.9421 92.2232C64.8895 92.1806 64.8461 92.128 64.8146 92.0686C64.7704 91.9896 64.7472 91.901 64.7471 91.811C64.7465 91.6914 64.7861 91.575 64.8596 91.4797C64.9264 91.4003 65.0111 91.3373 65.1071 91.2956C65.1835 91.2662 65.265 91.2512 65.3471 91.2515C65.4777 91.246 65.6059 91.2879 65.7071 91.3692C65.7547 91.4062 65.7953 91.451 65.8271 91.5018C65.8544 91.5569 65.8697 91.6171 65.8721 91.6784C65.8852 91.7166 65.8852 91.758 65.8721 91.7962C65.8718 91.8107 65.8676 91.8248 65.8598 91.8371C65.8521 91.8494 65.8412 91.8594 65.8282 91.8662C65.8152 91.873 65.8006 91.8762 65.7859 91.8755C65.7712 91.8749 65.7569 91.8704 65.7446 91.8625ZM65.2571 91.6637H65.3696C65.3787 91.6649 65.388 91.6641 65.3968 91.6612C65.4056 91.6583 65.4135 91.6534 65.42 91.647C65.4266 91.6406 65.4315 91.6328 65.4345 91.6242C65.4374 91.6156 65.4383 91.6065 65.4371 91.5975C65.4479 91.5665 65.4479 91.5328 65.4371 91.5018C65.4132 91.4783 65.3809 91.465 65.3471 91.4649C65.3275 91.4638 65.3081 91.468 65.2908 91.4771C65.2736 91.4862 65.2593 91.4998 65.2496 91.5165C65.2399 91.5452 65.2399 91.5762 65.2496 91.6048C65.2496 91.6048 65.2496 91.6048 65.2496 91.649L65.2571 91.6637Z" fill="white"/>
<path d="M66.7504 91.2885C66.8658 91.2842 66.9793 91.3179 67.0729 91.3842C67.1169 91.4095 67.1511 91.4483 67.1704 91.4946C67.1843 91.5552 67.1843 91.6181 67.1704 91.6787V91.8407C67.1579 91.9113 67.1579 91.9835 67.1704 92.0542H67.2154C67.2154 92.0542 67.2529 92.0541 67.2529 92.0983C67.2502 92.1389 67.2345 92.1776 67.2079 92.2088C67.1775 92.246 67.1391 92.2761 67.0954 92.2971C67.0449 92.3317 66.9845 92.3497 66.9229 92.3486C66.8886 92.3495 66.8545 92.3427 66.8233 92.3286C66.7921 92.3146 66.7646 92.2937 66.7429 92.2676C66.7429 92.2676 66.7429 92.2676 66.6979 92.2676C66.6529 92.2676 66.6979 92.2676 66.6454 92.2676C66.5712 92.3203 66.482 92.3487 66.3904 92.3486C66.3077 92.3513 66.2263 92.3281 66.1579 92.2824C66.1185 92.2571 66.0873 92.2214 66.0679 92.1793C66.0568 92.1358 66.0568 92.0903 66.0679 92.0468C66.07 92.009 66.0797 91.972 66.0964 91.9378C66.1132 91.9037 66.1366 91.8732 66.1654 91.848C66.2855 91.752 66.4384 91.7046 66.5929 91.7155C66.62 91.7221 66.6483 91.7221 66.6754 91.7155C66.6817 91.6964 66.6817 91.6757 66.6754 91.6566C66.6861 91.6031 66.6861 91.5481 66.6754 91.4946C66.6691 91.4785 66.6576 91.4649 66.6428 91.4556C66.6279 91.4463 66.6105 91.4419 66.5929 91.4431C66.5735 91.4364 66.5523 91.4364 66.5329 91.4431C66.5097 91.465 66.4895 91.4897 66.4729 91.5167C66.4054 91.6051 66.3379 91.6566 66.2704 91.6566C66.2366 91.6565 66.2043 91.6433 66.1804 91.6198C66.1748 91.607 66.172 91.5932 66.172 91.5793C66.172 91.5654 66.1748 91.5516 66.1804 91.5388C66.1824 91.5003 66.1984 91.4637 66.2254 91.4357C66.2558 91.3985 66.2942 91.3684 66.3379 91.3474C66.4681 91.2938 66.61 91.2735 66.7504 91.2885ZM66.6754 91.9143C66.6625 91.9084 66.6484 91.9053 66.6342 91.9053C66.6199 91.9053 66.6058 91.9084 66.5929 91.9143C66.5826 91.9429 66.5826 91.974 66.5929 92.0026C66.5842 92.0314 66.5842 92.0621 66.5929 92.091C66.6035 92.0956 66.615 92.098 66.6267 92.098C66.6383 92.098 66.6498 92.0956 66.6604 92.091C66.7204 92.091 66.7504 92.0394 66.7504 91.9437C66.7561 91.917 66.7561 91.8894 66.7504 91.8627C66.7377 91.8618 66.7251 91.8649 66.7143 91.8715C66.7035 91.8782 66.6951 91.888 66.6904 91.8996L66.6754 91.9143Z" fill="white"/>
<path d="M68.0103 90.9425V91.3621C68.0103 91.3621 68.0103 91.3621 68.0553 91.3621C68.1349 91.2959 68.2359 91.2594 68.3403 91.2591C68.4413 91.2609 68.5379 91.3004 68.6103 91.3695C68.6585 91.4149 68.6962 91.47 68.7208 91.5309C68.7454 91.5919 68.7563 91.6574 68.7528 91.7229C68.7572 91.8184 68.7384 91.9137 68.698 92.0007C68.6576 92.0877 68.5967 92.1641 68.5203 92.2235C68.4065 92.3158 68.2629 92.3654 68.1153 92.3634C67.9701 92.3655 67.8281 92.3216 67.7103 92.2382H67.6428H67.5753C67.5303 92.2382 67.5078 92.2382 67.5078 92.2382C67.5133 92.1819 67.5133 92.1252 67.5078 92.0689C67.5078 91.9953 67.5078 91.8848 67.5078 91.7376V91.4431C67.5078 91.3695 67.5078 91.318 67.5078 91.3033C67.5039 91.2919 67.497 91.2818 67.4877 91.2741C67.4785 91.2663 67.4673 91.2611 67.4553 91.2591C67.4553 91.2591 67.3878 91.2591 67.3803 91.2075C67.3762 91.1983 67.374 91.1882 67.374 91.1781C67.374 91.168 67.3762 91.1579 67.3803 91.1486C67.3803 91.1045 67.4328 91.0603 67.5378 91.0088C67.6054 90.9818 67.6758 90.9621 67.7478 90.9499C67.82 90.9405 67.8931 90.9405 67.9653 90.9499C67.9878 90.8763 68.0103 90.8983 68.0103 90.9425ZM68.1003 91.5977C68.0874 91.5918 68.0733 91.5887 68.059 91.5887C68.0448 91.5887 68.0307 91.5918 68.0178 91.5977C68.007 91.6388 68.007 91.6818 68.0178 91.7229C68.0061 91.8379 68.0061 91.9538 68.0178 92.0689C68.0177 92.0802 68.0201 92.0913 68.0247 92.1017C68.0293 92.112 68.0361 92.1213 68.0445 92.1289C68.053 92.1366 68.063 92.1424 68.0739 92.146C68.0848 92.1496 68.0963 92.1509 68.1078 92.1499C68.1321 92.1513 68.1564 92.1458 68.1777 92.134C68.199 92.1223 68.2163 92.1048 68.2278 92.0836C68.2619 92.023 68.2775 91.954 68.2728 91.8848C68.2805 91.7893 68.2568 91.6939 68.2053 91.6125C68.1735 91.5945 68.1359 91.5892 68.1003 91.5977Z" fill="white"/>
<path d="M69.4579 91.2885C69.5803 91.2842 69.701 91.3177 69.8029 91.3842C69.8457 91.4058 69.8816 91.4385 69.9067 91.4787C69.9319 91.519 69.9453 91.5652 69.9454 91.6124C69.9454 91.6414 69.9394 91.67 69.9278 91.6965C69.9162 91.7231 69.8993 91.7471 69.8779 91.7671C69.8374 91.7989 69.7874 91.817 69.7354 91.8186C69.7079 91.8201 69.6805 91.8148 69.6556 91.8032C69.6307 91.7917 69.6092 91.7742 69.5929 91.7523C69.5777 91.719 69.5651 91.6845 69.5554 91.6493C69.5489 91.6246 69.5345 91.6026 69.5142 91.5867C69.4939 91.5707 69.4689 91.5617 69.4429 91.5609C69.4224 91.56 69.402 91.5642 69.3836 91.5732C69.3652 91.5822 69.3495 91.5958 69.3379 91.6124C69.3252 91.6532 69.3252 91.6968 69.3379 91.7376C69.3372 91.8222 69.3694 91.9038 69.4279 91.9658C69.4532 91.9915 69.4835 92.0119 69.517 92.0259C69.5505 92.0398 69.5866 92.0469 69.6229 92.0468H69.7129H69.8104C69.8321 92.0382 69.8563 92.0382 69.8779 92.0468C69.8841 92.0735 69.8841 92.1011 69.8779 92.1278C69.8759 92.1663 69.86 92.2029 69.8329 92.2309C69.8036 92.2682 69.7681 92.3006 69.7279 92.3266C69.6262 92.3866 69.5092 92.4173 69.3904 92.4149C69.2486 92.4174 69.1104 92.3704 69.0004 92.2824C68.936 92.2325 68.8842 92.1686 68.8491 92.0959C68.814 92.0231 68.7965 91.9433 68.7979 91.8628C68.7968 91.7862 68.8138 91.7104 68.8476 91.6414C68.8815 91.5724 68.9312 91.5121 68.9929 91.4652C69.0541 91.4062 69.1269 91.3602 69.2069 91.3298C69.2868 91.2994 69.3723 91.2854 69.4579 91.2885Z" fill="white"/>
<path d="M71.3024 90.957V91.9435C71.2967 91.9801 71.2967 92.0173 71.3024 92.0539C71.2989 92.0684 71.2989 92.0835 71.3024 92.0981C71.3236 92.1111 71.3416 92.1287 71.3549 92.1496C71.3582 92.1565 71.3599 92.164 71.3599 92.1717C71.3599 92.1793 71.3582 92.1869 71.3549 92.1938C71.3549 92.2527 71.2949 92.2968 71.1824 92.3263C71.0773 92.3549 70.9689 92.3697 70.8599 92.3705H70.8149C70.8149 92.3705 70.8149 92.3705 70.8149 92.3263C70.8149 92.2821 70.8149 92.2674 70.8149 92.2674C70.8149 92.2674 70.8149 92.2674 70.7549 92.2674C70.6853 92.3241 70.5978 92.3553 70.5074 92.3557C70.3924 92.3541 70.2823 92.3093 70.1999 92.2306C70.1486 92.1811 70.1055 92.1239 70.0724 92.0613C70.0291 91.9819 70.0059 91.8935 70.0049 91.8036C70.0065 91.7001 70.0349 91.5988 70.0874 91.5091C70.1385 91.4234 70.2141 91.3543 70.3049 91.3103C70.3727 91.2703 70.4507 91.2499 70.5299 91.2514C70.6106 91.2485 70.6908 91.2663 70.7624 91.303C70.7624 91.303 70.7624 91.303 70.7624 91.2073C70.7665 91.198 70.7686 91.1879 70.7686 91.1778C70.7686 91.1677 70.7665 91.1577 70.7624 91.1484C70.7406 91.1405 70.7167 91.1405 70.6949 91.1484C70.6769 91.1452 70.6605 91.1362 70.6483 91.1229C70.6361 91.1095 70.6287 91.0926 70.6274 91.0747C70.6274 91.0159 70.6799 90.979 70.7849 90.9496C70.9067 90.9114 71.0325 90.8867 71.1599 90.876C71.2499 90.876 71.3024 90.9054 71.3024 90.957ZM70.7024 91.5017C70.6789 91.5039 70.6563 91.5118 70.6367 91.5246C70.617 91.5375 70.601 91.5549 70.5899 91.5754C70.55 91.658 70.532 91.7491 70.5374 91.8404C70.5313 91.9176 70.5496 91.9947 70.5899 92.0613C70.6009 92.0785 70.6165 92.0924 70.635 92.1015C70.6535 92.1106 70.6742 92.1145 70.6949 92.1128C70.7186 92.111 70.7412 92.1024 70.7599 92.088C70.7786 92.0735 70.7925 92.054 70.7999 92.0318C70.8162 91.9442 70.8162 91.8544 70.7999 91.7668C70.8177 91.6942 70.8177 91.6185 70.7999 91.5459C70.7898 91.53 70.7752 91.5173 70.7579 91.5095C70.7406 91.5016 70.7213 91.4989 70.7024 91.5017Z" fill="white"/>
<path d="M72.4946 91.8625H71.9996C72.0013 91.8887 72.0089 91.9141 72.0219 91.9371C72.0348 91.96 72.0528 91.9798 72.0746 91.995C72.12 92.0344 72.179 92.0554 72.2396 92.0539C72.2793 92.0606 72.3199 92.0606 72.3596 92.0539C72.3973 92.0427 72.4328 92.0253 72.4646 92.0024H72.5246C72.5328 91.9985 72.5417 91.9964 72.5508 91.9964C72.5599 91.9964 72.5689 91.9985 72.5771 92.0024C72.5863 92.0261 72.5863 92.0523 72.5771 92.076C72.5746 92.1066 72.5644 92.1361 72.5474 92.1618C72.5303 92.1875 72.507 92.2086 72.4796 92.2232C72.3633 92.3102 72.2208 92.3568 72.0746 92.3557C71.9346 92.3605 71.798 92.3132 71.6921 92.2232C71.6395 92.1806 71.5961 92.128 71.5646 92.0686C71.5204 91.9896 71.4972 91.901 71.4971 91.811C71.4965 91.6914 71.5361 91.575 71.6096 91.4797C71.6764 91.4003 71.7611 91.3373 71.8571 91.2956C71.9335 91.2662 72.015 91.2512 72.0971 91.2515C72.2277 91.246 72.3559 91.2879 72.4571 91.3692C72.5047 91.4062 72.5453 91.451 72.5771 91.5018C72.6044 91.5569 72.6197 91.6171 72.6221 91.6784C72.6352 91.7166 72.6352 91.758 72.6221 91.7962C72.6218 91.8107 72.6176 91.8248 72.6098 91.8371C72.6021 91.8494 72.5912 91.8594 72.5782 91.8662C72.5652 91.873 72.5506 91.8762 72.5359 91.8755C72.5212 91.8749 72.5069 91.8704 72.4946 91.8625ZM72.0071 91.6637H72.1196C72.1287 91.6649 72.138 91.6641 72.1468 91.6612C72.1556 91.6583 72.1635 91.6534 72.17 91.647C72.1766 91.6406 72.1815 91.6328 72.1845 91.6242C72.1874 91.6156 72.1883 91.6065 72.1871 91.5975C72.1979 91.5665 72.1979 91.5328 72.1871 91.5018C72.1632 91.4783 72.1309 91.465 72.0971 91.4649C72.0775 91.4638 72.0581 91.468 72.0408 91.4771C72.0236 91.4862 72.0093 91.4998 71.9996 91.5165C71.9899 91.5452 71.9899 91.5762 71.9996 91.6048C71.9996 91.6048 71.9996 91.6048 71.9996 91.649L72.0071 91.6637Z" fill="white"/>
<path d="M59.2504 94.9691C59.3658 94.9648 59.4793 94.9985 59.5729 95.0648C59.6169 95.0902 59.6511 95.1289 59.6704 95.1753C59.6843 95.2358 59.6843 95.2987 59.6704 95.3593V95.5213C59.6579 95.5919 59.6579 95.6641 59.6704 95.7348H59.7154C59.7154 95.7348 59.7529 95.7348 59.7529 95.7789C59.7502 95.8195 59.7345 95.8582 59.7079 95.8894C59.6775 95.9266 59.6391 95.9567 59.5954 95.9777C59.5449 96.0123 59.4845 96.0303 59.4229 96.0292C59.3886 96.0301 59.3545 96.0233 59.3233 96.0092C59.2921 95.9952 59.2646 95.9743 59.2429 95.9483C59.2429 95.9483 59.2429 95.9483 59.1979 95.9483C59.1529 95.9483 59.1979 95.9483 59.1454 95.9483C59.0712 96.0009 58.982 96.0293 58.8904 96.0292C58.8077 96.0319 58.7263 96.0087 58.6579 95.963C58.6185 95.9377 58.5873 95.902 58.5679 95.8599C58.5568 95.8164 58.5568 95.7709 58.5679 95.7274C58.57 95.6896 58.5797 95.6526 58.5964 95.6185C58.6132 95.5843 58.6366 95.5538 58.6654 95.5286C58.7855 95.4326 58.9384 95.3852 59.0929 95.3961C59.12 95.4027 59.1483 95.4027 59.1754 95.3961C59.1817 95.377 59.1817 95.3564 59.1754 95.3372C59.1861 95.2837 59.1861 95.2287 59.1754 95.1753C59.1691 95.1591 59.1576 95.1455 59.1428 95.1362C59.1279 95.1269 59.1105 95.1226 59.0929 95.1237C59.0735 95.117 59.0523 95.117 59.0329 95.1237C59.0097 95.1456 58.9895 95.1703 58.9729 95.1973C58.9054 95.2857 58.8379 95.3372 58.7704 95.3372C58.7414 95.348 58.7094 95.348 58.6804 95.3372C58.6748 95.3244 58.672 95.3106 58.672 95.2967C58.672 95.2828 58.6748 95.269 58.6804 95.2562C58.6824 95.2177 58.6984 95.1812 58.7254 95.1532C58.7558 95.1159 58.7942 95.0858 58.8379 95.0648C58.9647 94.9985 59.1068 94.9655 59.2504 94.9691ZM59.1754 95.5949C59.1625 95.589 59.1484 95.5859 59.1342 95.5859C59.1199 95.5859 59.1058 95.589 59.0929 95.5949C59.0826 95.6235 59.0826 95.6546 59.0929 95.6832C59.0842 95.712 59.0842 95.7427 59.0929 95.7716C59.1035 95.7762 59.115 95.7787 59.1267 95.7787C59.1383 95.7787 59.1498 95.7762 59.1604 95.7716C59.2204 95.7716 59.2504 95.72 59.2504 95.6243C59.2561 95.5976 59.2561 95.5701 59.2504 95.5433L59.1754 95.5949Z" fill="white"/>
<path d="M60.5103 94.6236V95.0432H60.5553C60.6349 94.9769 60.7359 94.9404 60.8403 94.9401C60.9413 94.9419 61.0379 94.9814 61.1103 95.0505C61.1585 95.0959 61.1962 95.151 61.2208 95.212C61.2454 95.273 61.2563 95.3384 61.2528 95.4039C61.2572 95.4995 61.2384 95.5947 61.198 95.6817C61.1576 95.7688 61.0967 95.8451 61.0203 95.9045C60.9065 95.9968 60.7629 96.0464 60.6153 96.0444C60.4701 96.0465 60.3281 96.0026 60.2103 95.9193H60.1428H60.0753C60.0303 95.9193 60.0078 95.9193 60.0078 95.8825C60.0042 95.8704 60.0042 95.8577 60.0078 95.8456C60.0133 95.7893 60.0133 95.7326 60.0078 95.6763C60.0078 95.6027 60.0078 95.4923 60.0078 95.345V95.0505C60.0078 94.9769 60.0078 94.9254 60.0078 94.9107C60.0039 94.8993 59.997 94.8893 59.9877 94.8815C59.9785 94.8737 59.9673 94.8685 59.9553 94.8665C59.9553 94.8665 59.8878 94.8665 59.8803 94.815C59.8762 94.8057 59.874 94.7956 59.874 94.7855C59.874 94.7754 59.8762 94.7654 59.8803 94.7561C59.8803 94.7119 59.9328 94.6677 60.0378 94.6162C60.1054 94.5892 60.1758 94.5695 60.2478 94.5573C60.32 94.548 60.3931 94.548 60.4653 94.5573C60.4878 94.5573 60.5103 94.5794 60.5103 94.6236ZM60.6003 95.2788C60.5845 95.2779 60.5688 95.2808 60.5544 95.2872C60.54 95.2936 60.5275 95.3033 60.5178 95.3156C60.507 95.3566 60.507 95.3997 60.5178 95.4407C60.5061 95.5558 60.5061 95.6717 60.5178 95.7867C60.5177 95.798 60.5201 95.8092 60.5247 95.8195C60.5293 95.8299 60.5361 95.8391 60.5445 95.8468C60.553 95.8544 60.563 95.8602 60.5739 95.8638C60.5848 95.8674 60.5963 95.8687 60.6078 95.8677C60.6321 95.8691 60.6564 95.8636 60.6777 95.8519C60.699 95.8401 60.7163 95.8226 60.7278 95.8015C60.7619 95.7408 60.7775 95.6718 60.7728 95.6027C60.7805 95.5072 60.7568 95.4117 60.7053 95.3303C60.6925 95.3149 60.6765 95.3023 60.6584 95.2934C60.6403 95.2845 60.6205 95.2795 60.6003 95.2788Z" fill="white"/>
<path d="M61.9574 94.9692C62.0798 94.9649 62.2004 94.9983 62.3024 95.0649C62.3452 95.0865 62.3811 95.1192 62.4062 95.1594C62.4313 95.1997 62.4447 95.2459 62.4449 95.2931C62.4449 95.322 62.4389 95.3506 62.4273 95.3772C62.4157 95.4038 62.3987 95.4278 62.3774 95.4477C62.3368 95.4796 62.2868 95.4977 62.2349 95.4992C62.2074 95.5008 62.1799 95.4955 62.1551 95.4839C62.1302 95.4723 62.1086 95.4548 62.0924 95.433C62.0771 95.3997 62.0646 95.3652 62.0549 95.3299C62.0484 95.3052 62.0339 95.2833 62.0136 95.2673C61.9934 95.2514 61.9684 95.2424 61.9424 95.2416C61.9219 95.2406 61.9014 95.2449 61.883 95.2539C61.8646 95.2629 61.8489 95.2764 61.8374 95.2931C61.8246 95.3339 61.8246 95.3775 61.8374 95.4183C61.8366 95.5028 61.8688 95.5845 61.9274 95.6465C61.9527 95.6722 61.983 95.6926 62.0165 95.7065C62.05 95.7204 62.086 95.7276 62.1224 95.7275H62.2124L62.2499 95.7054C62.2715 95.6968 62.2957 95.6968 62.3174 95.7054C62.3235 95.732 62.3235 95.7597 62.3174 95.7864C62.3154 95.8249 62.2994 95.8614 62.2724 95.8894C62.243 95.9268 62.2075 95.9592 62.1674 95.9851C62.0656 96.0452 61.9486 96.0758 61.8299 96.0735C61.688 96.076 61.5498 96.029 61.4399 95.941C61.3755 95.8911 61.3237 95.8272 61.2886 95.7544C61.2534 95.6816 61.2359 95.6019 61.2374 95.5213C61.2362 95.4448 61.2532 95.369 61.2871 95.3C61.3209 95.231 61.3707 95.1706 61.4324 95.1238C61.5024 95.0609 61.586 95.0143 61.6769 94.9875C61.7678 94.9607 61.8637 94.9545 61.9574 94.9692Z" fill="white"/>
<path d="M63.8024 94.6381V95.6246C63.7967 95.6612 63.7967 95.6984 63.8024 95.735C63.7989 95.7496 63.7989 95.7647 63.8024 95.7792L63.8549 95.8307C63.8582 95.8376 63.8599 95.8452 63.8599 95.8528C63.8599 95.8605 63.8582 95.868 63.8549 95.8749C63.8549 95.9338 63.7949 95.978 63.6824 96.0074C63.5773 96.036 63.4689 96.0509 63.3599 96.0516C63.3455 96.0573 63.3293 96.0573 63.3149 96.0516C63.3149 96.0516 63.3149 96.0516 63.3149 96.0074C63.3149 95.9633 63.3149 95.9485 63.3149 95.9485C63.3149 95.9485 63.3149 95.9485 63.2549 95.9854C63.1853 96.0421 63.0978 96.0733 63.0074 96.0737C62.8924 96.0721 62.7823 96.0273 62.6999 95.9485C62.6486 95.899 62.6055 95.8419 62.5724 95.7792C62.5291 95.6999 62.5059 95.6115 62.5049 95.5215C62.5065 95.4181 62.5349 95.3168 62.5874 95.2271C62.6385 95.1414 62.7141 95.0723 62.8049 95.0283C62.8727 94.9882 62.9507 94.9678 63.0299 94.9694C63.1106 94.9665 63.1908 94.9842 63.2624 95.0209C63.2624 95.0209 63.2624 95.0209 63.2624 94.9252C63.2665 94.9159 63.2686 94.9059 63.2686 94.8958C63.2686 94.8856 63.2665 94.8756 63.2624 94.8663C63.2543 94.856 63.2441 94.8474 63.2325 94.8411C63.2209 94.8348 63.2081 94.8308 63.1949 94.8295C63.1769 94.8263 63.1605 94.8173 63.1483 94.804C63.1361 94.7907 63.1287 94.7738 63.1274 94.7559C63.1274 94.697 63.1799 94.6602 63.2849 94.6307C63.4067 94.5926 63.5325 94.5679 63.6599 94.5571C63.7499 94.5571 63.8024 94.5866 63.8024 94.6381ZM63.2024 95.1829C63.1789 95.1851 63.1563 95.1929 63.1367 95.2058C63.117 95.2186 63.101 95.2361 63.0899 95.2565C63.05 95.3391 63.032 95.4303 63.0374 95.5215C63.0313 95.5987 63.0496 95.6759 63.0899 95.7424C63.1009 95.7597 63.1165 95.7736 63.135 95.7827C63.1535 95.7918 63.1742 95.7957 63.1949 95.7939C63.2186 95.7922 63.2412 95.7835 63.2599 95.7691C63.2786 95.7547 63.2925 95.7351 63.2999 95.713C63.3162 95.6253 63.3162 95.5355 63.2999 95.4479C63.3177 95.3753 63.3177 95.2997 63.2999 95.2271C63.2898 95.2111 63.2752 95.1985 63.2579 95.1906C63.2406 95.1828 63.2213 95.1801 63.2024 95.1829Z" fill="white"/>
<path d="M64.9946 95.5436H64.4996C64.5013 95.5698 64.5089 95.5953 64.5219 95.6182C64.5348 95.6411 64.5528 95.6609 64.5746 95.6762C64.62 95.7156 64.679 95.7366 64.7396 95.7351C64.7793 95.7418 64.8199 95.7418 64.8596 95.7351C64.8973 95.7239 64.9328 95.7065 64.9646 95.6835H65.0246C65.0328 95.6796 65.0417 95.6776 65.0508 95.6776C65.0599 95.6776 65.0689 95.6796 65.0771 95.6835C65.0863 95.7072 65.0863 95.7334 65.0771 95.7572C65.0746 95.7877 65.0644 95.8172 65.0474 95.8429C65.0303 95.8686 65.007 95.8898 64.9796 95.9044C64.8633 95.9914 64.7208 96.038 64.5746 96.0369C64.4346 96.0417 64.298 95.9943 64.1921 95.9044C64.1395 95.8617 64.0961 95.8092 64.0646 95.7498C64.0204 95.6708 63.9972 95.5822 63.9971 95.4921C63.9965 95.3726 64.0361 95.2561 64.1096 95.1608C64.1764 95.0814 64.2611 95.0184 64.3571 94.9768C64.4335 94.9474 64.515 94.9324 64.5971 94.9326C64.7277 94.9271 64.8559 94.9691 64.9571 95.0504C65.0047 95.0873 65.0453 95.1322 65.0771 95.1829C65.1044 95.2381 65.1197 95.2983 65.1221 95.3596C65.1352 95.3978 65.1352 95.4392 65.1221 95.4774C65.1218 95.4918 65.1176 95.5059 65.1098 95.5182C65.1021 95.5305 65.0912 95.5406 65.0782 95.5474C65.0652 95.5541 65.0506 95.5573 65.0359 95.5567C65.0212 95.556 65.0069 95.5515 64.9946 95.5436ZM64.5071 95.3449H64.6196C64.6287 95.3461 64.638 95.3452 64.6468 95.3423C64.6556 95.3394 64.6635 95.3346 64.67 95.3282C64.6766 95.3217 64.6815 95.3139 64.6845 95.3053C64.6874 95.2967 64.6883 95.2876 64.6871 95.2786C64.6979 95.2476 64.6979 95.2139 64.6871 95.1829C64.6581 95.1722 64.6261 95.1722 64.5971 95.1829C64.5775 95.1817 64.5581 95.1859 64.5408 95.195C64.5236 95.2041 64.5093 95.2178 64.4996 95.2344C64.4899 95.2631 64.4899 95.2941 64.4996 95.3228C64.4996 95.3228 64.4996 95.3228 64.4996 95.367L64.5071 95.3449Z" fill="white"/>
<path d="M66.0004 94.9691C66.1158 94.9648 66.2293 94.9985 66.3229 95.0648C66.3669 95.0902 66.4011 95.1289 66.4204 95.1753C66.4343 95.2358 66.4343 95.2987 66.4204 95.3593V95.5213C66.4079 95.5919 66.4079 95.6641 66.4204 95.7348H66.4654C66.4654 95.7348 66.5029 95.7348 66.5029 95.7789C66.5002 95.8195 66.4845 95.8582 66.4579 95.8894C66.4275 95.9266 66.3891 95.9567 66.3454 95.9777C66.2949 96.0123 66.2345 96.0303 66.1729 96.0292C66.1386 96.0301 66.1045 96.0233 66.0733 96.0092C66.0421 95.9952 66.0146 95.9743 65.9929 95.9483C65.9929 95.9483 65.9929 95.9483 65.9479 95.9483C65.9029 95.9483 65.9479 95.9483 65.8954 95.9483C65.8212 96.0009 65.732 96.0293 65.6404 96.0292C65.5577 96.0319 65.4763 96.0087 65.4079 95.963C65.3685 95.9377 65.3373 95.902 65.3179 95.8599C65.3068 95.8164 65.3068 95.7709 65.3179 95.7274C65.32 95.6896 65.3297 95.6526 65.3464 95.6185C65.3632 95.5843 65.3866 95.5538 65.4154 95.5286C65.5355 95.4326 65.6884 95.3852 65.8429 95.3961C65.87 95.4027 65.8983 95.4027 65.9254 95.3961C65.9317 95.377 65.9317 95.3564 65.9254 95.3372C65.9361 95.2837 65.9361 95.2287 65.9254 95.1753C65.9191 95.1591 65.9076 95.1455 65.8928 95.1362C65.8779 95.1269 65.8605 95.1226 65.8429 95.1237C65.8235 95.117 65.8023 95.117 65.7829 95.1237C65.7597 95.1456 65.7395 95.1703 65.7229 95.1973C65.6554 95.2857 65.5879 95.3372 65.5204 95.3372C65.4914 95.348 65.4594 95.348 65.4304 95.3372C65.4248 95.3244 65.422 95.3106 65.422 95.2967C65.422 95.2828 65.4248 95.269 65.4304 95.2562C65.4324 95.2177 65.4484 95.1812 65.4754 95.1532C65.5058 95.1159 65.5442 95.0858 65.5879 95.0648C65.7147 94.9985 65.8568 94.9655 66.0004 94.9691ZM65.9254 95.5949C65.9125 95.589 65.8984 95.5859 65.8842 95.5859C65.8699 95.5859 65.8558 95.589 65.8429 95.5949C65.8326 95.6235 65.8326 95.6546 65.8429 95.6832C65.8342 95.712 65.8342 95.7427 65.8429 95.7716C65.8535 95.7762 65.865 95.7787 65.8767 95.7787C65.8883 95.7787 65.8998 95.7762 65.9104 95.7716C65.9704 95.7716 66.0004 95.72 66.0004 95.6243C66.0061 95.5976 66.0061 95.5701 66.0004 95.5433L65.9254 95.5949Z" fill="white"/>
<path d="M67.2603 94.6236V95.0432H67.3053C67.3849 94.9769 67.4859 94.9404 67.5903 94.9401C67.6913 94.9419 67.7879 94.9814 67.8603 95.0505C67.9085 95.0959 67.9462 95.151 67.9708 95.212C67.9954 95.273 68.0063 95.3384 68.0028 95.4039C68.0072 95.4995 67.9884 95.5947 67.948 95.6817C67.9076 95.7688 67.8467 95.8451 67.7703 95.9045C67.6565 95.9968 67.5129 96.0464 67.3653 96.0444C67.2201 96.0465 67.0781 96.0026 66.9603 95.9193H66.8928H66.8253C66.7803 95.9193 66.7578 95.9193 66.7578 95.8825C66.7542 95.8704 66.7542 95.8577 66.7578 95.8456C66.7633 95.7893 66.7633 95.7326 66.7578 95.6763C66.7578 95.6027 66.7578 95.4923 66.7578 95.345V95.0505C66.7578 94.9769 66.7578 94.9254 66.7578 94.9107C66.7539 94.8993 66.747 94.8893 66.7377 94.8815C66.7285 94.8737 66.7173 94.8685 66.7053 94.8665C66.7053 94.8665 66.6378 94.8665 66.6303 94.815C66.6262 94.8057 66.624 94.7956 66.624 94.7855C66.624 94.7754 66.6262 94.7654 66.6303 94.7561C66.6303 94.7119 66.6828 94.6677 66.7878 94.6162C66.8554 94.5892 66.9258 94.5695 66.9978 94.5573C67.07 94.548 67.1431 94.548 67.2153 94.5573C67.2378 94.5573 67.2603 94.5794 67.2603 94.6236ZM67.3503 95.2788C67.3345 95.2779 67.3188 95.2808 67.3044 95.2872C67.29 95.2936 67.2775 95.3033 67.2678 95.3156C67.257 95.3566 67.257 95.3997 67.2678 95.4407C67.2561 95.5558 67.2561 95.6717 67.2678 95.7867C67.2677 95.798 67.2701 95.8092 67.2747 95.8195C67.2793 95.8299 67.2861 95.8391 67.2945 95.8468C67.303 95.8544 67.313 95.8602 67.3239 95.8638C67.3348 95.8674 67.3463 95.8687 67.3578 95.8677C67.3821 95.8691 67.4064 95.8636 67.4277 95.8519C67.449 95.8401 67.4663 95.8226 67.4778 95.8015C67.5119 95.7408 67.5275 95.6718 67.5228 95.6027C67.5305 95.5072 67.5068 95.4117 67.4553 95.3303C67.4425 95.3149 67.4265 95.3023 67.4084 95.2934C67.3903 95.2845 67.3705 95.2795 67.3503 95.2788Z" fill="white"/>
<path d="M68.7074 94.9692C68.8298 94.9649 68.9504 94.9983 69.0524 95.0649C69.0952 95.0865 69.1311 95.1192 69.1562 95.1594C69.1813 95.1997 69.1947 95.2459 69.1949 95.2931C69.1949 95.322 69.1889 95.3506 69.1773 95.3772C69.1657 95.4038 69.1487 95.4278 69.1274 95.4477C69.0868 95.4796 69.0368 95.4977 68.9849 95.4992C68.9574 95.5008 68.9299 95.4955 68.9051 95.4839C68.8802 95.4723 68.8586 95.4548 68.8424 95.433C68.8271 95.3997 68.8146 95.3652 68.8049 95.3299C68.7984 95.3052 68.7839 95.2833 68.7636 95.2673C68.7434 95.2514 68.7184 95.2424 68.6924 95.2416C68.6719 95.2406 68.6514 95.2449 68.633 95.2539C68.6146 95.2629 68.5989 95.2764 68.5874 95.2931C68.5746 95.3339 68.5746 95.3775 68.5874 95.4183C68.5866 95.5028 68.6188 95.5845 68.6774 95.6465C68.7027 95.6722 68.733 95.6926 68.7665 95.7065C68.8 95.7204 68.836 95.7276 68.8724 95.7275H68.9624L68.9999 95.7054C69.0215 95.6968 69.0457 95.6968 69.0674 95.7054C69.0735 95.732 69.0735 95.7597 69.0674 95.7864C69.0654 95.8249 69.0494 95.8614 69.0224 95.8894C68.993 95.9268 68.9575 95.9592 68.9174 95.9851C68.8156 96.0452 68.6986 96.0758 68.5799 96.0735C68.438 96.076 68.2998 96.029 68.1899 95.941C68.1255 95.8911 68.0737 95.8272 68.0386 95.7544C68.0034 95.6816 67.9859 95.6019 67.9874 95.5213C67.9862 95.4448 68.0032 95.369 68.0371 95.3C68.0709 95.231 68.1207 95.1706 68.1824 95.1238C68.2524 95.0609 68.336 95.0143 68.4269 94.9875C68.5178 94.9607 68.6137 94.9545 68.7074 94.9692Z" fill="white"/>
<path d="M70.5524 94.6381V95.6246C70.5467 95.6612 70.5467 95.6984 70.5524 95.735C70.5489 95.7496 70.5489 95.7647 70.5524 95.7792L70.6049 95.8307C70.6082 95.8376 70.6099 95.8452 70.6099 95.8528C70.6099 95.8605 70.6082 95.868 70.6049 95.8749C70.6049 95.9338 70.5449 95.978 70.4324 96.0074C70.3273 96.036 70.2189 96.0509 70.1099 96.0516C70.0955 96.0573 70.0793 96.0573 70.0649 96.0516C70.0649 96.0516 70.0649 96.0516 70.0649 96.0074C70.0649 95.9633 70.0649 95.9485 70.0649 95.9485C70.0649 95.9485 70.0649 95.9485 70.0049 95.9854C69.9353 96.0421 69.8478 96.0733 69.7574 96.0737C69.6424 96.0721 69.5323 96.0273 69.4499 95.9485C69.3986 95.899 69.3555 95.8419 69.3224 95.7792C69.2791 95.6999 69.2559 95.6115 69.2549 95.5215C69.2565 95.4181 69.2849 95.3168 69.3374 95.2271C69.3885 95.1414 69.4641 95.0723 69.5549 95.0283C69.6227 94.9882 69.7007 94.9678 69.7799 94.9694C69.8606 94.9665 69.9408 94.9842 70.0124 95.0209C70.0124 95.0209 70.0124 95.0209 70.0124 94.9252C70.0165 94.9159 70.0186 94.9059 70.0186 94.8958C70.0186 94.8856 70.0165 94.8756 70.0124 94.8663C70.0043 94.856 69.9941 94.8474 69.9825 94.8411C69.9709 94.8348 69.9581 94.8308 69.9449 94.8295C69.9269 94.8263 69.9105 94.8173 69.8983 94.804C69.8861 94.7907 69.8787 94.7738 69.8774 94.7559C69.8774 94.697 69.9299 94.6602 70.0349 94.6307C70.1567 94.5926 70.2825 94.5679 70.4099 94.5571C70.4999 94.5571 70.5524 94.5866 70.5524 94.6381ZM69.9524 95.1829C69.9289 95.1851 69.9063 95.1929 69.8867 95.2058C69.867 95.2186 69.851 95.2361 69.8399 95.2565C69.8 95.3391 69.782 95.4303 69.7874 95.5215C69.7813 95.5987 69.7996 95.6759 69.8399 95.7424C69.8509 95.7597 69.8665 95.7736 69.885 95.7827C69.9035 95.7918 69.9242 95.7957 69.9449 95.7939C69.9686 95.7922 69.9912 95.7835 70.0099 95.7691C70.0286 95.7547 70.0425 95.7351 70.0499 95.713C70.0662 95.6253 70.0662 95.5355 70.0499 95.4479C70.0677 95.3753 70.0677 95.2997 70.0499 95.2271C70.0398 95.2111 70.0252 95.1985 70.0079 95.1906C69.9906 95.1828 69.9713 95.1801 69.9524 95.1829Z" fill="white"/>
<path d="M71.7446 95.5436H71.2496C71.2513 95.5698 71.2589 95.5953 71.2719 95.6182C71.2848 95.6411 71.3028 95.6609 71.3246 95.6762C71.37 95.7156 71.429 95.7366 71.4896 95.7351C71.5293 95.7418 71.5699 95.7418 71.6096 95.7351C71.6473 95.7239 71.6828 95.7065 71.7146 95.6835H71.7746C71.7828 95.6796 71.7917 95.6776 71.8008 95.6776C71.8099 95.6776 71.8189 95.6796 71.8271 95.6835C71.8363 95.7072 71.8363 95.7334 71.8271 95.7572C71.8246 95.7877 71.8144 95.8172 71.7974 95.8429C71.7803 95.8686 71.757 95.8898 71.7296 95.9044C71.6133 95.9914 71.4708 96.038 71.3246 96.0369C71.1846 96.0417 71.048 95.9943 70.9421 95.9044C70.8895 95.8617 70.8461 95.8092 70.8146 95.7498C70.7704 95.6708 70.7472 95.5822 70.7471 95.4921C70.7465 95.3726 70.7861 95.2561 70.8596 95.1608C70.9264 95.0814 71.0111 95.0184 71.1071 94.9768C71.1835 94.9474 71.265 94.9324 71.3471 94.9326C71.4777 94.9271 71.6059 94.9691 71.7071 95.0504C71.7547 95.0873 71.7953 95.1322 71.8271 95.1829C71.8544 95.2381 71.8697 95.2983 71.8721 95.3596C71.8852 95.3978 71.8852 95.4392 71.8721 95.4774C71.8718 95.4918 71.8676 95.5059 71.8598 95.5182C71.8521 95.5305 71.8412 95.5406 71.8282 95.5474C71.8152 95.5541 71.8006 95.5573 71.7859 95.5567C71.7712 95.556 71.7569 95.5515 71.7446 95.5436ZM71.2571 95.3449H71.3696C71.3787 95.3461 71.388 95.3452 71.3968 95.3423C71.4056 95.3394 71.4135 95.3346 71.42 95.3282C71.4266 95.3217 71.4315 95.3139 71.4345 95.3053C71.4374 95.2967 71.4383 95.2876 71.4371 95.2786C71.4479 95.2476 71.4479 95.2139 71.4371 95.1829C71.4081 95.1722 71.3761 95.1722 71.3471 95.1829C71.3275 95.1817 71.3081 95.1859 71.2908 95.195C71.2736 95.2041 71.2593 95.2178 71.2496 95.2344C71.2399 95.2631 71.2399 95.2941 71.2496 95.3228C71.2496 95.3228 71.2496 95.3228 71.2496 95.367L71.2571 95.3449Z" fill="white"/>
<path d="M22.9954 14.3998C23.5307 14.3854 24.0566 14.5403 24.4954 14.8416C24.6963 14.9781 24.8547 15.1667 24.9529 15.3864C25.0565 15.644 25.1075 15.9192 25.1029 16.1962V16.9324C25.0787 17.2749 25.1168 17.6189 25.2154 17.9483C25.2392 18.0042 25.2781 18.0525 25.3279 18.0882C25.394 18.118 25.4652 18.1355 25.5379 18.1397C25.5633 18.1424 25.5879 18.1501 25.6102 18.1625C25.6324 18.1748 25.6519 18.1915 25.6674 18.2115C25.6828 18.2315 25.6939 18.2544 25.7001 18.2788C25.7062 18.3031 25.7071 18.3285 25.7029 18.3532C25.6943 18.5363 25.6259 18.7118 25.5079 18.8538C25.371 19.0342 25.1973 19.1847 24.9979 19.2956C24.7556 19.4389 24.4783 19.5152 24.1954 19.5164C24.0343 19.5243 23.8735 19.4959 23.7253 19.4333C23.5771 19.3708 23.4454 19.2758 23.3404 19.1557C23.2654 19.0673 23.2054 19.0232 23.1379 19.0232C23.0374 19.0383 22.9437 19.0818 22.8679 19.1483C22.5315 19.392 22.1234 19.5212 21.7054 19.5164C21.3225 19.5327 20.9435 19.4352 20.6179 19.2367C20.4374 19.1111 20.2907 18.9443 20.1904 18.7508C20.0818 18.5595 20.025 18.344 20.0254 18.125C20.0274 17.9491 20.0672 17.7755 20.1421 17.6157C20.2171 17.4558 20.3255 17.3133 20.4604 17.1974C21.0185 16.7327 21.7407 16.5026 22.4704 16.5569C22.5985 16.5692 22.7276 16.5489 22.8454 16.498C22.8979 16.4612 22.9204 16.3729 22.9204 16.233C22.9366 15.9705 22.8983 15.7075 22.8079 15.46C22.7809 15.3864 22.7307 15.3232 22.6646 15.2795C22.5985 15.2358 22.52 15.214 22.4404 15.217C22.3405 15.216 22.2431 15.247 22.1629 15.3054C22.0495 15.4061 21.9487 15.5198 21.8629 15.644C21.7692 15.8182 21.6334 15.967 21.4672 16.0774C21.3011 16.1878 21.1099 16.2564 20.9104 16.2772C20.7599 16.283 20.6126 16.2331 20.4979 16.1373C20.4462 16.0876 20.4055 16.0279 20.3784 15.962C20.3513 15.8961 20.3383 15.8255 20.3404 15.7545C20.3448 15.5736 20.4169 15.4006 20.5429 15.2686C20.6882 15.0933 20.8697 14.9503 21.0754 14.8489C21.668 14.5464 22.3275 14.3921 22.9954 14.3998ZM22.6579 17.3446C22.5825 17.3439 22.5079 17.3593 22.4392 17.3898C22.3706 17.4204 22.3095 17.4652 22.2604 17.5213C22.1508 17.64 22.0917 17.7955 22.0954 17.9557C22.0868 18.0956 22.1294 18.234 22.2154 18.3459C22.2497 18.394 22.2959 18.4328 22.3497 18.4586C22.4035 18.4843 22.4631 18.4962 22.5229 18.4931C22.8004 18.4931 22.9354 18.2722 22.9354 17.8158C22.9444 17.6878 22.9239 17.5595 22.8754 17.4403C22.8545 17.4017 22.8231 17.3696 22.7847 17.3475C22.7463 17.3254 22.7024 17.3142 22.6579 17.3152V17.3446Z" fill="#0B843B"/>
<path d="M28.8154 12.8464L28.7479 14.8121V14.9225C28.7479 14.9888 28.7479 15.0256 28.8154 15.0256C28.8918 14.9927 28.9606 14.9452 29.0179 14.8857C29.3868 14.5787 29.8543 14.4092 30.3379 14.4072C30.8122 14.4052 31.268 14.5879 31.6054 14.9151C31.8328 15.1295 32.0117 15.3884 32.1305 15.6751C32.2494 15.9617 32.3056 16.2696 32.2954 16.5789C32.2954 17.3599 31.9793 18.109 31.4167 18.6612C30.8541 19.2135 30.0911 19.5237 29.2954 19.5237C28.9704 19.5277 28.6467 19.4831 28.3354 19.3912C28.004 19.2799 27.6888 19.1264 27.3979 18.9348C27.3622 18.9105 27.321 18.8954 27.2779 18.8906C27.167 18.9099 27.0587 18.9421 26.9554 18.9863C26.8567 19.0208 26.7527 19.0382 26.6479 19.0378C26.4304 19.0378 26.3254 18.9716 26.3254 18.8317C26.3197 18.7828 26.3197 18.7334 26.3254 18.6845C26.4001 18.4201 26.4454 18.1486 26.4604 17.8746C26.4604 17.5507 26.4979 17.0427 26.4979 16.3434V14.9814C26.5059 14.7648 26.4933 14.5479 26.4604 14.3335C26.4395 14.2845 26.4079 14.2406 26.3677 14.2049C26.3275 14.1693 26.2797 14.1428 26.2279 14.1274C26.091 14.0799 25.9658 14.0047 25.8604 13.9065C25.8246 13.8708 25.7967 13.8281 25.7787 13.7812C25.7606 13.7343 25.7527 13.6842 25.7554 13.6342C25.7554 13.4059 25.9954 13.1924 26.5054 12.9789C26.8257 12.8429 27.1602 12.7417 27.5029 12.6771C27.8431 12.585 28.1928 12.5307 28.5454 12.5151C28.7254 12.5151 28.8154 12.6477 28.8154 12.8464ZM29.2504 15.9164C29.1729 15.9112 29.0953 15.9262 29.0255 15.9598C28.9557 15.9934 28.8962 16.0444 28.8529 16.1078C28.768 16.287 28.7343 16.4855 28.7554 16.682C28.7409 17.2134 28.7685 17.745 28.8379 18.2722C28.8408 18.3254 28.8543 18.3775 28.8778 18.4256C28.9012 18.4736 28.9341 18.5167 28.9745 18.5522C29.0149 18.5878 29.062 18.6152 29.1133 18.6328C29.1645 18.6504 29.2187 18.658 29.2729 18.655C29.3876 18.6593 29.5013 18.6328 29.6018 18.5783C29.7022 18.5238 29.7856 18.4434 29.8429 18.3458C29.9887 18.0663 30.056 17.7538 30.0379 17.4403C30.0648 17.0017 29.9493 16.5661 29.7079 16.1961C29.6592 16.1177 29.5924 16.0516 29.513 16.003C29.4335 15.9544 29.3436 15.9247 29.2504 15.9164Z" fill="#0B843B"/>
<path d="M35.5879 14.4073C36.1555 14.3965 36.7138 14.5501 37.1929 14.849C37.3885 14.9547 37.5524 15.1089 37.6682 15.2962C37.784 15.4835 37.8477 15.6974 37.8529 15.9165C37.8627 16.0542 37.8401 16.1922 37.7867 16.3198C37.7334 16.4475 37.6508 16.5614 37.5454 16.6527C37.3578 16.8227 37.1106 16.915 36.8554 16.9104C36.732 16.9155 36.6093 16.8906 36.4981 16.8379C36.3869 16.7853 36.2906 16.7065 36.2179 16.6085C36.1347 16.4542 36.0693 16.2912 36.0229 16.1226C35.9985 16.0018 35.932 15.8931 35.8348 15.8152C35.7377 15.7373 35.6159 15.695 35.4904 15.6956C35.3975 15.6959 35.3061 15.7181 35.2239 15.7604C35.1416 15.8027 35.071 15.8638 35.0179 15.9386C34.8861 16.11 34.8173 16.3202 34.8229 16.5349C34.8275 16.9213 34.9801 17.2919 35.2504 17.5729C35.3642 17.6957 35.5033 17.7934 35.6584 17.8594C35.8136 17.9254 35.9813 17.9582 36.1504 17.9558C36.2967 17.9585 36.4428 17.9436 36.5854 17.9116C36.7429 17.866 36.896 17.8069 37.0429 17.7349C37.0917 17.7105 37.1457 17.6979 37.2004 17.6981C37.2606 17.7014 37.3193 17.7176 37.3725 17.7456C37.4256 17.7736 37.4718 17.8126 37.5079 17.8601C37.5976 17.968 37.6454 18.1036 37.6429 18.2429C37.6322 18.4167 37.5637 18.5822 37.4479 18.714C37.3141 18.8898 37.1458 19.0375 36.9529 19.1484C36.478 19.4281 35.9315 19.5686 35.3779 19.5533C34.7234 19.5717 34.0841 19.3573 33.5779 18.9496C33.2755 18.7195 33.032 18.4234 32.8666 18.0847C32.7013 17.7461 32.6187 17.3742 32.6254 16.9987C32.6188 16.6405 32.695 16.2855 32.8483 15.9603C33.0016 15.6352 33.2279 15.3483 33.5104 15.1214C34.0883 14.638 34.829 14.3834 35.5879 14.4073Z" fill="#0B843B"/>
<path d="M44.1827 12.9495V17.5434C44.1645 17.7122 44.1645 17.8825 44.1827 18.0513C44.222 18.1394 44.2873 18.2138 44.3702 18.2648C44.4691 18.3214 44.5557 18.3965 44.6252 18.4857C44.6652 18.5553 44.6859 18.634 44.6852 18.7139C44.6852 18.9863 44.4077 19.1924 43.8602 19.3323C43.3703 19.4563 42.8662 19.5181 42.3602 19.5164C42.2848 19.5245 42.2087 19.5091 42.1427 19.4722C42.1013 19.4032 42.0805 19.3241 42.0827 19.244C42.0827 19.0673 42.0002 18.9863 41.8952 18.9863C41.7927 19.0089 41.699 19.06 41.6252 19.1335C41.3005 19.404 40.8886 19.5527 40.4627 19.5532C39.9259 19.5519 39.4112 19.3429 39.0302 18.9716C38.7824 18.743 38.5769 18.474 38.4227 18.1765C38.2264 17.8081 38.121 17.3996 38.1152 16.9838C38.1171 16.4992 38.2574 16.0248 38.5202 15.6145C38.7571 15.2148 39.1059 14.8903 39.5252 14.6796C39.8473 14.506 40.2078 14.4124 40.5752 14.4072C40.9472 14.3989 41.3148 14.4878 41.6402 14.6648C41.6759 14.6891 41.7171 14.7042 41.7602 14.709C41.8727 14.709 41.9252 14.5618 41.9252 14.2746C41.9324 14.1713 41.9003 14.0691 41.8352 13.9875C41.7458 13.9069 41.6377 13.8488 41.5202 13.8182C41.3027 13.7519 41.1977 13.6342 41.1977 13.4648C41.1977 13.2955 41.4452 13.0305 41.9477 12.898C42.5283 12.7035 43.1298 12.575 43.7402 12.5151C44.0327 12.5151 44.1827 12.6771 44.1827 12.9495ZM41.4002 15.4599C41.2873 15.4625 41.1774 15.4964 41.0832 15.5576C40.989 15.6188 40.9143 15.7049 40.8677 15.8059C40.6777 16.1854 40.5874 16.6055 40.6052 17.028C40.5831 17.3889 40.6719 17.748 40.8602 18.0587C40.9144 18.1365 40.9871 18.2 41.0721 18.2436C41.1572 18.2873 41.2518 18.3097 41.3477 18.309C41.4604 18.306 41.5689 18.267 41.6569 18.1979C41.7449 18.1288 41.8075 18.0334 41.8352 17.9262C41.9539 17.5298 42.0046 17.1168 41.9852 16.7041C42.0186 16.351 41.9565 15.9955 41.8052 15.6734C41.7608 15.6079 41.7006 15.5541 41.63 15.5169C41.5593 15.4796 41.4804 15.4601 41.4002 15.4599Z" fill="#0B843B"/>
<path d="M49.7552 17.1609H47.3477C47.2427 17.1609 47.1902 17.2051 47.1902 17.3008C47.1988 17.4229 47.2357 17.5414 47.2981 17.6473C47.3604 17.7532 47.4467 17.8437 47.5502 17.9119C47.7566 18.0943 48.0225 18.1987 48.3002 18.2063C48.4867 18.2037 48.6716 18.1714 48.8477 18.1106C49.0242 18.0615 49.1914 17.9844 49.3427 17.8824C49.4221 17.8184 49.5182 17.7775 49.6202 17.7646C49.6728 17.7699 49.7236 17.7865 49.769 17.8132C49.8144 17.8399 49.8532 17.8761 49.8827 17.9192C49.9616 18.0155 50.0064 18.1344 50.0102 18.2579C49.9932 18.4019 49.9423 18.54 49.8616 18.6614C49.7809 18.7827 49.6726 18.884 49.5452 18.9573C49.0022 19.3551 48.3401 19.5649 47.6627 19.5536C47.0069 19.572 46.3668 19.3547 45.8627 18.9425C45.6214 18.7362 45.4228 18.4863 45.2777 18.2063C45.0786 17.8393 44.9755 17.4295 44.9777 17.0137C44.9717 16.4506 45.1623 15.9024 45.5177 15.4603C45.8135 15.0746 46.2099 14.7744 46.6652 14.5916C47.0263 14.4447 47.4143 14.372 47.8052 14.3781C48.4026 14.3601 48.9872 14.5505 49.4552 14.9155C49.6834 15.0919 49.8723 15.3124 50.0102 15.5634C50.1684 15.8211 50.2514 16.1165 50.2502 16.4174C50.2583 16.6055 50.2115 16.792 50.1152 16.9548C50.0798 17.018 50.0277 17.0705 49.9643 17.1068C49.9009 17.1431 49.8286 17.1618 49.7552 17.1609ZM47.4752 16.1965H48.0002C48.2177 16.1965 48.3227 16.1008 48.3227 15.902C48.3312 15.7402 48.2746 15.5816 48.1652 15.4603C48.1134 15.404 48.0495 15.3597 47.9782 15.3304C47.9069 15.3011 47.8299 15.2877 47.7527 15.291C47.6647 15.2872 47.5772 15.3055 47.4985 15.3441C47.4197 15.3828 47.3523 15.4405 47.3027 15.5119C47.2028 15.6299 47.1472 15.778 47.1452 15.9315C47.1321 15.9809 47.1352 16.0331 47.154 16.0807C47.1729 16.1282 47.2065 16.1688 47.2502 16.1965C47.3235 16.2182 47.4018 16.2182 47.4752 16.1965Z" fill="#0B843B"/>
</svg>
