<svg width="827" height="776" viewBox="0 0 827 776" fill="none" xmlns="http://www.w3.org/2000/svg">
<rect x="106.5" y="0.5" width="10" height="359" fill="#831C1C" stroke="black"/>
<rect x="710.5" y="0.5" width="10" height="359" fill="#831C1C" stroke="black"/>
<path d="M771.748 333.657H73.0983C43.2784 333.657 19.1045 357.831 19.1045 387.651V721.191C19.1045 751.011 43.2784 775.185 73.0983 775.185H771.748C801.568 775.185 825.742 751.011 825.742 721.191V387.651C825.742 357.831 801.568 333.657 771.748 333.657Z" fill="#8A2A00" stroke="black" stroke-miterlimit="10"/>
<path d="M763.682 338.072H81.1647C51.3448 338.072 27.1709 362.246 27.1709 392.066V716.776C27.1709 746.596 51.3448 770.77 81.1647 770.77H763.682C793.502 770.77 817.676 746.596 817.676 716.776V392.066C817.676 362.246 793.502 338.072 763.682 338.072Z" fill="#F7A859" stroke="black" stroke-miterlimit="10"/>
<path d="M755.778 342.403H89.0708C59.2508 342.403 35.0771 366.577 35.0771 396.397V712.455C35.0771 742.275 59.2508 766.448 89.0708 766.448H755.778C785.598 766.448 809.772 742.275 809.772 712.455V396.397C809.772 366.577 785.598 342.403 755.778 342.403Z" fill="#B54414" stroke="black" stroke-miterlimit="10"/>
<path d="M753.323 380.868H91.5241C71.9037 380.868 55.998 396.773 55.998 416.394V680.563C55.998 700.184 71.9037 716.089 91.5241 716.089H753.323C772.944 716.089 788.849 700.184 788.849 680.563V416.394C788.849 396.773 772.944 380.868 753.323 380.868Z" fill="#D64D0C" stroke="black" stroke-miterlimit="10"/>
<path d="M735.873 388.849H108.971C89.3509 388.849 73.4453 404.754 73.4453 424.375V672.581C73.4453 692.202 89.3509 708.107 108.971 708.107H735.873C755.493 708.107 771.399 692.202 771.399 672.581V424.375C771.399 404.754 755.493 388.849 735.873 388.849Z" fill="#D9D0A9" stroke="black" stroke-miterlimit="10"/>
<path d="M734.311 407.529H110.534C99.6873 407.529 90.8945 416.322 90.8945 427.168V670.637C90.8945 681.484 99.6873 690.276 110.534 690.276H734.311C745.158 690.276 753.95 681.484 753.95 670.637V427.168C753.95 416.322 745.158 407.529 734.311 407.529Z" fill="#F3E7D2"/>
<path opacity="0.6" d="M731.807 434.402H113.888C103.042 434.402 94.249 443.195 94.249 454.042V669.236C94.249 680.082 103.042 688.875 113.888 688.875H731.807C742.653 688.875 751.446 680.082 751.446 669.236V454.042C751.446 443.195 742.653 434.402 731.807 434.402Z" fill="#EEDAB2"/>
<path d="M92.7217 477.906L747.892 479.573" stroke="#DFD3B5" stroke-width="2" stroke-miterlimit="10"/>
<path d="M92.7217 530.39H751.391" stroke="#DFD3B5" stroke-width="2" stroke-miterlimit="10"/>
<path d="M94.4697 581.124L751.389 581.942" stroke="#DFD3B5" stroke-width="2" stroke-miterlimit="10"/>
<path d="M93.5957 630.983L750.513 629.236" stroke="#DFD3B5" stroke-width="2" stroke-miterlimit="10"/>
<path d="M80.4175 376.044C84.9709 376.044 88.6622 372.353 88.6622 367.799C88.6622 363.246 84.9709 359.555 80.4175 359.555C75.8641 359.555 72.1729 363.246 72.1729 367.799C72.1729 372.353 75.8641 376.044 80.4175 376.044Z" fill="#494949"/>
<path d="M81.0884 374.838C85.0744 374.838 88.3057 371.607 88.3057 367.621C88.3057 363.635 85.0744 360.404 81.0884 360.404C77.1024 360.404 73.8711 363.635 73.8711 367.621C73.8711 371.607 77.1024 374.838 81.0884 374.838Z" fill="#F5F3D9"/>
<path d="M114.381 376.044C118.935 376.044 122.626 372.353 122.626 367.799C122.626 363.246 118.935 359.555 114.381 359.555C109.828 359.555 106.137 363.246 106.137 367.799C106.137 372.353 109.828 376.044 114.381 376.044Z" fill="#494949"/>
<path d="M115.052 374.838C119.038 374.838 122.27 371.607 122.27 367.621C122.27 363.635 119.038 360.404 115.052 360.404C111.066 360.404 107.835 363.635 107.835 367.621C107.835 371.607 111.066 374.838 115.052 374.838Z" fill="#F5F3D9"/>
<path d="M150.043 376.044C154.597 376.044 158.288 372.353 158.288 367.799C158.288 363.246 154.597 359.555 150.043 359.555C145.49 359.555 141.799 363.246 141.799 367.799C141.799 372.353 145.49 376.044 150.043 376.044Z" fill="#494949"/>
<path d="M150.714 374.838C154.7 374.838 157.932 371.607 157.932 367.621C157.932 363.635 154.7 360.404 150.714 360.404C146.728 360.404 143.497 363.635 143.497 367.621C143.497 371.607 146.728 374.838 150.714 374.838Z" fill="#F5F3D9"/>
<path d="M180.61 375.195C185.163 375.195 188.855 371.504 188.855 366.95C188.855 362.397 185.163 358.706 180.61 358.706C176.056 358.706 172.365 362.397 172.365 366.95C172.365 371.504 176.056 375.195 180.61 375.195Z" fill="#494949"/>
<path d="M181.281 373.989C185.267 373.989 188.498 370.758 188.498 366.772C188.498 362.786 185.267 359.555 181.281 359.555C177.295 359.555 174.063 362.786 174.063 366.772C174.063 370.758 177.295 373.989 181.281 373.989Z" fill="#F5F3D9"/>
<path d="M214.574 375.195C219.127 375.195 222.818 371.504 222.818 366.95C222.818 362.397 219.127 358.706 214.574 358.706C210.02 358.706 206.329 362.397 206.329 366.95C206.329 371.504 210.02 375.195 214.574 375.195Z" fill="#494949"/>
<path d="M215.245 373.989C219.231 373.989 222.462 370.758 222.462 366.772C222.462 362.786 219.231 359.555 215.245 359.555C211.259 359.555 208.027 362.786 208.027 366.772C208.027 370.758 211.259 373.989 215.245 373.989Z" fill="#F5F3D9"/>
<path d="M283.351 375.195C287.905 375.195 291.596 371.504 291.596 366.95C291.596 362.397 287.905 358.706 283.351 358.706C278.798 358.706 275.106 362.397 275.106 366.95C275.106 371.504 278.798 375.195 283.351 375.195Z" fill="#494949"/>
<path d="M284.022 373.989C288.008 373.989 291.239 370.758 291.239 366.772C291.239 362.786 288.008 359.555 284.022 359.555C280.036 359.555 276.805 362.786 276.805 366.772C276.805 370.758 280.036 373.989 284.022 373.989Z" fill="#F5F3D9"/>
<path d="M317.314 376.044C321.867 376.044 325.559 372.353 325.559 367.799C325.559 363.246 321.867 359.555 317.314 359.555C312.761 359.555 309.069 363.246 309.069 367.799C309.069 372.353 312.761 376.044 317.314 376.044Z" fill="#494949"/>
<path d="M317.985 374.838C321.971 374.838 325.202 371.607 325.202 367.621C325.202 363.635 321.971 360.404 317.985 360.404C313.999 360.404 310.768 363.635 310.768 367.621C310.768 371.607 313.999 374.838 317.985 374.838Z" fill="#F5F3D9"/>
<path d="M384.393 375.195C388.947 375.195 392.638 371.504 392.638 366.95C392.638 362.397 388.947 358.706 384.393 358.706C379.84 358.706 376.148 362.397 376.148 366.95C376.148 371.504 379.84 375.195 384.393 375.195Z" fill="#494949"/>
<path d="M385.064 373.989C389.05 373.989 392.281 370.758 392.281 366.772C392.281 362.786 389.05 359.555 385.064 359.555C381.078 359.555 377.847 362.786 377.847 366.772C377.847 370.758 381.078 373.989 385.064 373.989Z" fill="#F5F3D9"/>
<path d="M417.507 375.195C422.061 375.195 425.752 371.504 425.752 366.95C425.752 362.397 422.061 358.706 417.507 358.706C412.954 358.706 409.263 362.397 409.263 366.95C409.263 371.504 412.954 375.195 417.507 375.195Z" fill="#494949"/>
<path d="M418.177 373.989C422.163 373.989 425.395 370.758 425.395 366.772C425.395 362.786 422.163 359.555 418.177 359.555C414.191 359.555 410.96 362.786 410.96 366.772C410.96 370.758 414.191 373.989 418.177 373.989Z" fill="#F5F3D9"/>
<path d="M453.169 375.195C457.723 375.195 461.414 371.504 461.414 366.95C461.414 362.397 457.723 358.706 453.169 358.706C448.616 358.706 444.925 362.397 444.925 366.95C444.925 371.504 448.616 375.195 453.169 375.195Z" fill="#494949"/>
<path d="M453.84 373.989C457.826 373.989 461.058 370.758 461.058 366.772C461.058 362.786 457.826 359.555 453.84 359.555C449.854 359.555 446.623 362.786 446.623 366.772C446.623 370.758 449.854 373.989 453.84 373.989Z" fill="#F5F3D9"/>
<path d="M484.585 374.346C489.139 374.346 492.83 370.655 492.83 366.101C492.83 361.548 489.139 357.856 484.585 357.856C480.032 357.856 476.341 361.548 476.341 366.101C476.341 370.655 480.032 374.346 484.585 374.346Z" fill="#494949"/>
<path d="M485.256 373.14C489.242 373.14 492.474 369.909 492.474 365.923C492.474 361.937 489.242 358.706 485.256 358.706C481.27 358.706 478.039 361.937 478.039 365.923C478.039 369.909 481.27 373.14 485.256 373.14Z" fill="#F5F3D9"/>
<path d="M520.247 376.044C524.8 376.044 528.491 372.353 528.491 367.799C528.491 363.246 524.8 359.555 520.247 359.555C515.693 359.555 512.002 363.246 512.002 367.799C512.002 372.353 515.693 376.044 520.247 376.044Z" fill="#494949"/>
<path d="M520.917 374.838C524.903 374.838 528.135 371.607 528.135 367.621C528.135 363.635 524.903 360.404 520.917 360.404C516.931 360.404 513.7 363.635 513.7 367.621C513.7 371.607 516.931 374.838 520.917 374.838Z" fill="#F5F3D9"/>
<path d="M552.513 376.044C557.067 376.044 560.758 372.353 560.758 367.799C560.758 363.246 557.067 359.555 552.513 359.555C547.96 359.555 544.269 363.246 544.269 367.799C544.269 372.353 547.96 376.044 552.513 376.044Z" fill="#494949"/>
<path d="M553.184 374.838C557.17 374.838 560.401 371.607 560.401 367.621C560.401 363.635 557.17 360.404 553.184 360.404C549.198 360.404 545.967 363.635 545.967 367.621C545.967 371.607 549.198 374.838 553.184 374.838Z" fill="#F5F3D9"/>
<path d="M586.477 376.044C591.03 376.044 594.722 372.353 594.722 367.799C594.722 363.246 591.03 359.555 586.477 359.555C581.924 359.555 578.232 363.246 578.232 367.799C578.232 372.353 581.924 376.044 586.477 376.044Z" fill="#494949"/>
<path d="M587.147 374.838C591.133 374.838 594.364 371.607 594.364 367.621C594.364 363.635 591.133 360.404 587.147 360.404C583.161 360.404 579.93 363.635 579.93 367.621C579.93 371.607 583.161 374.838 587.147 374.838Z" fill="#F5F3D9"/>
<path d="M618.741 376.893C623.294 376.893 626.985 373.202 626.985 368.649C626.985 364.095 623.294 360.404 618.741 360.404C614.187 360.404 610.496 364.095 610.496 368.649C610.496 373.202 614.187 376.893 618.741 376.893Z" fill="#494949"/>
<path d="M619.412 375.687C623.398 375.687 626.629 372.456 626.629 368.47C626.629 364.484 623.398 361.253 619.412 361.253C615.426 361.253 612.194 364.484 612.194 368.47C612.194 372.456 615.426 375.687 619.412 375.687Z" fill="#F5F3D9"/>
<path d="M652.707 376.044C657.26 376.044 660.951 372.353 660.951 367.799C660.951 363.246 657.26 359.555 652.707 359.555C648.153 359.555 644.462 363.246 644.462 367.799C644.462 372.353 648.153 376.044 652.707 376.044Z" fill="#494949"/>
<path d="M653.376 374.838C657.362 374.838 660.594 371.607 660.594 367.621C660.594 363.635 657.362 360.404 653.376 360.404C649.39 360.404 646.159 363.635 646.159 367.621C646.159 371.607 649.39 374.838 653.376 374.838Z" fill="#F5F3D9"/>
<path d="M685.82 376.044C690.373 376.044 694.064 372.353 694.064 367.799C694.064 363.246 690.373 359.555 685.82 359.555C681.266 359.555 677.575 363.246 677.575 367.799C677.575 372.353 681.266 376.044 685.82 376.044Z" fill="#494949"/>
<path d="M686.492 374.838C690.478 374.838 693.709 371.607 693.709 367.621C693.709 363.635 690.478 360.404 686.492 360.404C682.506 360.404 679.274 363.635 679.274 367.621C679.274 371.607 682.506 374.838 686.492 374.838Z" fill="#F5F3D9"/>
<path d="M722.331 376.044C726.884 376.044 730.575 372.353 730.575 367.799C730.575 363.246 726.884 359.555 722.331 359.555C717.777 359.555 714.086 363.246 714.086 367.799C714.086 372.353 717.777 376.044 722.331 376.044Z" fill="#494949"/>
<path d="M723.002 374.838C726.988 374.838 730.22 371.607 730.22 367.621C730.22 363.635 726.988 360.404 723.002 360.404C719.016 360.404 715.785 363.635 715.785 367.621C715.785 371.607 719.016 374.838 723.002 374.838Z" fill="#F5F3D9"/>
<path d="M787.711 381.987C792.265 381.987 795.956 378.296 795.956 373.743C795.956 369.189 792.265 365.498 787.711 365.498C783.158 365.498 779.467 369.189 779.467 373.743C779.467 378.296 783.158 381.987 787.711 381.987Z" fill="#494949"/>
<path d="M788.382 380.782C792.368 380.782 795.6 377.551 795.6 373.565C795.6 369.579 792.368 366.348 788.382 366.348C784.396 366.348 781.165 369.579 781.165 373.565C781.165 377.551 784.396 380.782 788.382 380.782Z" fill="#F5F3D9"/>
<path d="M797.05 412.555C801.604 412.555 805.295 408.864 805.295 404.311C805.295 399.757 801.604 396.066 797.05 396.066C792.497 396.066 788.806 399.757 788.806 404.311C788.806 408.864 792.497 412.555 797.05 412.555Z" fill="#494949"/>
<path d="M797.722 411.349C801.708 411.349 804.939 408.118 804.939 404.132C804.939 400.146 801.708 396.915 797.722 396.915C793.736 396.915 790.505 400.146 790.505 404.132C790.505 408.118 793.736 411.349 797.722 411.349Z" fill="#F5F3D9"/>
<path d="M797.05 448.217C801.604 448.217 805.295 444.526 805.295 439.973C805.295 435.419 801.604 431.728 797.05 431.728C792.497 431.728 788.806 435.419 788.806 439.973C788.806 444.526 792.497 448.217 797.05 448.217Z" fill="#494949"/>
<path d="M797.722 447.012C801.708 447.012 804.939 443.78 804.939 439.794C804.939 435.808 801.708 432.577 797.722 432.577C793.736 432.577 790.505 435.808 790.505 439.794C790.505 443.78 793.736 447.012 797.722 447.012Z" fill="#F5F3D9"/>
<path d="M797.9 513.597C802.453 513.597 806.145 509.906 806.145 505.353C806.145 500.799 802.453 497.108 797.9 497.108C793.347 497.108 789.655 500.799 789.655 505.353C789.655 509.906 793.347 513.597 797.9 513.597Z" fill="#494949"/>
<path d="M798.572 512.391C802.558 512.391 805.789 509.16 805.789 505.174C805.789 501.188 802.558 497.957 798.572 497.957C794.586 497.957 791.354 501.188 791.354 505.174C791.354 509.16 794.586 512.391 798.572 512.391Z" fill="#F5F3D9"/>
<path d="M797.05 480.483C801.604 480.483 805.295 476.792 805.295 472.239C805.295 467.685 801.604 463.994 797.05 463.994C792.497 463.994 788.806 467.685 788.806 472.239C788.806 476.792 792.497 480.483 797.05 480.483Z" fill="#494949"/>
<path d="M797.722 479.277C801.708 479.277 804.939 476.046 804.939 472.06C804.939 468.074 801.708 464.842 797.722 464.842C793.736 464.842 790.505 468.074 790.505 472.06C790.505 476.046 793.736 479.277 797.722 479.277Z" fill="#F5F3D9"/>
<path d="M797.05 549.259C801.604 549.259 805.295 545.568 805.295 541.014C805.295 536.461 801.604 532.77 797.05 532.77C792.497 532.77 788.806 536.461 788.806 541.014C788.806 545.568 792.497 549.259 797.05 549.259Z" fill="#494949"/>
<path d="M797.722 548.053C801.708 548.053 804.939 544.822 804.939 540.836C804.939 536.85 801.708 533.619 797.722 533.619C793.736 533.619 790.505 536.85 790.505 540.836C790.505 544.822 793.736 548.053 797.722 548.053Z" fill="#F5F3D9"/>
<path d="M797.05 582.374C801.604 582.374 805.295 578.682 805.295 574.129C805.295 569.576 801.604 565.884 797.05 565.884C792.497 565.884 788.806 569.576 788.806 574.129C788.806 578.682 792.497 582.374 797.05 582.374Z" fill="#494949"/>
<path d="M797.722 581.168C801.708 581.168 804.939 577.937 804.939 573.951C804.939 569.965 801.708 566.733 797.722 566.733C793.736 566.733 790.505 569.965 790.505 573.951C790.505 577.937 793.736 581.168 797.722 581.168Z" fill="#F5F3D9"/>
<path d="M797.9 617.186C802.453 617.186 806.145 613.495 806.145 608.941C806.145 604.388 802.453 600.697 797.9 600.697C793.347 600.697 789.655 604.388 789.655 608.941C789.655 613.495 793.347 617.186 797.9 617.186Z" fill="#494949"/>
<path d="M798.572 615.98C802.558 615.98 805.789 612.749 805.789 608.763C805.789 604.777 802.558 601.546 798.572 601.546C794.586 601.546 791.354 604.777 791.354 608.763C791.354 612.749 794.586 615.98 798.572 615.98Z" fill="#F5F3D9"/>
<path d="M798.75 683.416C803.303 683.416 806.994 679.724 806.994 675.171C806.994 670.618 803.303 666.926 798.75 666.926C794.196 666.926 790.505 670.618 790.505 675.171C790.505 679.724 794.196 683.416 798.75 683.416Z" fill="#494949"/>
<path d="M799.42 682.21C803.406 682.21 806.638 678.979 806.638 674.993C806.638 671.007 803.406 667.775 799.42 667.775C795.434 667.775 792.203 671.007 792.203 674.993C792.203 678.979 795.434 682.21 799.42 682.21Z" fill="#F5F3D9"/>
<path d="M797.9 649.452C802.453 649.452 806.145 645.761 806.145 641.208C806.145 636.654 802.453 632.963 797.9 632.963C793.347 632.963 789.655 636.654 789.655 641.208C789.655 645.761 793.347 649.452 797.9 649.452Z" fill="#494949"/>
<path d="M798.572 648.246C802.558 648.246 805.789 645.015 805.789 641.029C805.789 637.043 802.558 633.812 798.572 633.812C794.586 633.812 791.354 637.043 791.354 641.029C791.354 645.015 794.586 648.246 798.572 648.246Z" fill="#F5F3D9"/>
<path d="M797.9 716.53C802.453 716.53 806.145 712.839 806.145 708.285C806.145 703.732 802.453 700.041 797.9 700.041C793.347 700.041 789.655 703.732 789.655 708.285C789.655 712.839 793.347 716.53 797.9 716.53Z" fill="#494949"/>
<path d="M798.572 715.324C802.558 715.324 805.789 712.093 805.789 708.107C805.789 704.121 802.558 700.89 798.572 700.89C794.586 700.89 791.354 704.121 791.354 708.107C791.354 712.093 794.586 715.324 798.572 715.324Z" fill="#F5F3D9"/>
<path d="M780.07 740.305C784.623 740.305 788.314 736.613 788.314 732.06C788.314 727.507 784.623 723.815 780.07 723.815C775.516 723.815 771.825 727.507 771.825 732.06C771.825 736.613 775.516 740.305 780.07 740.305Z" fill="#494949"/>
<path d="M780.74 739.099C784.726 739.099 787.957 735.868 787.957 731.882C787.957 727.896 784.726 724.665 780.74 724.665C776.754 724.665 773.522 727.896 773.522 731.882C773.522 735.868 776.754 739.099 780.74 739.099Z" fill="#F5F3D9"/>
<path d="M743.559 743.701C748.113 743.701 751.804 740.01 751.804 735.457C751.804 730.903 748.113 727.212 743.559 727.212C739.006 727.212 735.314 730.903 735.314 735.457C735.314 740.01 739.006 743.701 743.559 743.701Z" fill="#494949"/>
<path d="M744.229 742.496C748.215 742.496 751.446 739.264 751.446 735.278C751.446 731.292 748.215 728.061 744.229 728.061C740.243 728.061 737.012 731.292 737.012 735.278C737.012 739.264 740.243 742.496 744.229 742.496Z" fill="#F5F3D9"/>
<path d="M710.444 743.701C714.997 743.701 718.689 740.01 718.689 735.457C718.689 730.903 714.997 727.212 710.444 727.212C705.89 727.212 702.199 730.903 702.199 735.457C702.199 740.01 705.89 743.701 710.444 743.701Z" fill="#494949"/>
<path d="M711.115 742.496C715.101 742.496 718.332 739.264 718.332 735.278C718.332 731.292 715.101 728.061 711.115 728.061C707.129 728.061 703.897 731.292 703.897 735.278C703.897 739.264 707.129 742.496 711.115 742.496Z" fill="#F5F3D9"/>
<path d="M675.63 743.701C680.184 743.701 683.875 740.01 683.875 735.457C683.875 730.903 680.184 727.212 675.63 727.212C671.077 727.212 667.386 730.903 667.386 735.457C667.386 740.01 671.077 743.701 675.63 743.701Z" fill="#494949"/>
<path d="M676.301 742.496C680.287 742.496 683.519 739.264 683.519 735.278C683.519 731.292 680.287 728.061 676.301 728.061C672.315 728.061 669.084 731.292 669.084 735.278C669.084 739.264 672.315 742.496 676.301 742.496Z" fill="#F5F3D9"/>
<path d="M607.704 743.701C612.257 743.701 615.948 740.01 615.948 735.457C615.948 730.903 612.257 727.212 607.704 727.212C603.15 727.212 599.459 730.903 599.459 735.457C599.459 740.01 603.15 743.701 607.704 743.701Z" fill="#494949"/>
<path d="M608.374 742.496C612.36 742.496 615.591 739.264 615.591 735.278C615.591 731.292 612.36 728.061 608.374 728.061C604.388 728.061 601.156 731.292 601.156 735.278C601.156 739.264 604.388 742.496 608.374 742.496Z" fill="#F5F3D9"/>
<path d="M642.516 743.701C647.07 743.701 650.761 740.01 650.761 735.457C650.761 730.903 647.07 727.212 642.516 727.212C637.963 727.212 634.271 730.903 634.271 735.457C634.271 740.01 637.963 743.701 642.516 743.701Z" fill="#494949"/>
<path d="M643.187 742.496C647.173 742.496 650.404 739.264 650.404 735.278C650.404 731.292 647.173 728.061 643.187 728.061C639.201 728.061 635.97 731.292 635.97 735.278C635.97 739.264 639.201 742.496 643.187 742.496Z" fill="#F5F3D9"/>
<path d="M574.589 743.701C579.143 743.701 582.834 740.01 582.834 735.457C582.834 730.903 579.143 727.212 574.589 727.212C570.036 727.212 566.345 730.903 566.345 735.457C566.345 740.01 570.036 743.701 574.589 743.701Z" fill="#494949"/>
<path d="M575.26 742.496C579.246 742.496 582.478 739.264 582.478 735.278C582.478 731.292 579.246 728.061 575.26 728.061C571.274 728.061 568.043 731.292 568.043 735.278C568.043 739.264 571.274 742.496 575.26 742.496Z" fill="#F5F3D9"/>
<path d="M540.626 743.701C545.179 743.701 548.87 740.01 548.87 735.457C548.87 730.903 545.179 727.212 540.626 727.212C536.072 727.212 532.381 730.903 532.381 735.457C532.381 740.01 536.072 743.701 540.626 743.701Z" fill="#494949"/>
<path d="M541.296 742.496C545.282 742.496 548.514 739.264 548.514 735.278C548.514 731.292 545.282 728.061 541.296 728.061C537.31 728.061 534.079 731.292 534.079 735.278C534.079 739.264 537.31 742.496 541.296 742.496Z" fill="#F5F3D9"/>
<path d="M507.51 743.701C512.064 743.701 515.755 740.01 515.755 735.457C515.755 730.903 512.064 727.212 507.51 727.212C502.957 727.212 499.266 730.903 499.266 735.457C499.266 740.01 502.957 743.701 507.51 743.701Z" fill="#494949"/>
<path d="M508.181 742.496C512.167 742.496 515.398 739.264 515.398 735.278C515.398 731.292 512.167 728.061 508.181 728.061C504.195 728.061 500.964 731.292 500.964 735.278C500.964 739.264 504.195 742.496 508.181 742.496Z" fill="#F5F3D9"/>
<path d="M473.547 743.701C478.101 743.701 481.792 740.01 481.792 735.457C481.792 730.903 478.101 727.212 473.547 727.212C468.994 727.212 465.303 730.903 465.303 735.457C465.303 740.01 468.994 743.701 473.547 743.701Z" fill="#494949"/>
<path d="M474.217 742.496C478.203 742.496 481.435 739.264 481.435 735.278C481.435 731.292 478.203 728.061 474.217 728.061C470.231 728.061 467 731.292 467 735.278C467 739.264 470.231 742.496 474.217 742.496Z" fill="#F5F3D9"/>
<path d="M406.469 743.701C411.023 743.701 414.714 740.01 414.714 735.457C414.714 730.903 411.023 727.212 406.469 727.212C401.916 727.212 398.225 730.903 398.225 735.457C398.225 740.01 401.916 743.701 406.469 743.701Z" fill="#494949"/>
<path d="M407.139 742.496C411.125 742.496 414.356 739.264 414.356 735.278C414.356 731.292 411.125 728.061 407.139 728.061C403.153 728.061 399.922 731.292 399.922 735.278C399.922 739.264 403.153 742.496 407.139 742.496Z" fill="#F5F3D9"/>
<path d="M373.354 743.701C377.907 743.701 381.599 740.01 381.599 735.457C381.599 730.903 377.907 727.212 373.354 727.212C368.801 727.212 365.109 730.903 365.109 735.457C365.109 740.01 368.801 743.701 373.354 743.701Z" fill="#494949"/>
<path d="M374.025 742.496C378.011 742.496 381.242 739.264 381.242 735.278C381.242 731.292 378.011 728.061 374.025 728.061C370.039 728.061 366.808 731.292 366.808 735.278C366.808 739.264 370.039 742.496 374.025 742.496Z" fill="#F5F3D9"/>
<path d="M339.39 743.701C343.944 743.701 347.635 740.01 347.635 735.457C347.635 730.903 343.944 727.212 339.39 727.212C334.837 727.212 331.146 730.903 331.146 735.457C331.146 740.01 334.837 743.701 339.39 743.701Z" fill="#494949"/>
<path d="M340.062 742.496C344.048 742.496 347.279 739.264 347.279 735.278C347.279 731.292 344.048 728.061 340.062 728.061C336.076 728.061 332.845 731.292 332.845 735.278C332.845 739.264 336.076 742.496 340.062 742.496Z" fill="#F5F3D9"/>
<path d="M306.276 743.701C310.829 743.701 314.521 740.01 314.521 735.457C314.521 730.903 310.829 727.212 306.276 727.212C301.722 727.212 298.031 730.903 298.031 735.457C298.031 740.01 301.722 743.701 306.276 743.701Z" fill="#494949"/>
<path d="M306.947 742.496C310.933 742.496 314.164 739.264 314.164 735.278C314.164 731.292 310.933 728.061 306.947 728.061C302.961 728.061 299.729 731.292 299.729 735.278C299.729 739.264 302.961 742.496 306.947 742.496Z" fill="#F5F3D9"/>
<path d="M271.462 743.701C276.016 743.701 279.707 740.01 279.707 735.457C279.707 730.903 276.016 727.212 271.462 727.212C266.909 727.212 263.218 730.903 263.218 735.457C263.218 740.01 266.909 743.701 271.462 743.701Z" fill="#494949"/>
<path d="M272.133 742.496C276.119 742.496 279.351 739.264 279.351 735.278C279.351 731.292 276.119 728.061 272.133 728.061C268.147 728.061 264.916 731.292 264.916 735.278C264.916 739.264 268.147 742.496 272.133 742.496Z" fill="#F5F3D9"/>
<path d="M237.5 743.701C242.053 743.701 245.744 740.01 245.744 735.457C245.744 730.903 242.053 727.212 237.5 727.212C232.946 727.212 229.255 730.903 229.255 735.457C229.255 740.01 232.946 743.701 237.5 743.701Z" fill="#494949"/>
<path d="M238.169 742.496C242.155 742.496 245.387 739.264 245.387 735.278C245.387 731.292 242.155 728.061 238.169 728.061C234.183 728.061 230.952 731.292 230.952 735.278C230.952 739.264 234.183 742.496 238.169 742.496Z" fill="#F5F3D9"/>
<path d="M205.234 744.55C209.787 744.55 213.479 740.859 213.479 736.306C213.479 731.752 209.787 728.061 205.234 728.061C200.68 728.061 196.989 731.752 196.989 736.306C196.989 740.859 200.68 744.55 205.234 744.55Z" fill="#494949"/>
<path d="M205.904 743.345C209.89 743.345 213.121 740.113 213.121 736.127C213.121 732.141 209.89 728.91 205.904 728.91C201.918 728.91 198.687 732.141 198.687 736.127C198.687 740.113 201.918 743.345 205.904 743.345Z" fill="#F5F3D9"/>
<path d="M171.27 744.55C175.823 744.55 179.515 740.859 179.515 736.306C179.515 731.752 175.823 728.061 171.27 728.061C166.717 728.061 163.025 731.752 163.025 736.306C163.025 740.859 166.717 744.55 171.27 744.55Z" fill="#494949"/>
<path d="M171.941 743.345C175.927 743.345 179.158 740.113 179.158 736.127C179.158 732.141 175.927 728.91 171.941 728.91C167.955 728.91 164.724 732.141 164.724 736.127C164.724 740.113 167.955 743.345 171.941 743.345Z" fill="#F5F3D9"/>
<path d="M135.608 744.55C140.161 744.55 143.853 740.859 143.853 736.306C143.853 731.752 140.161 728.061 135.608 728.061C131.055 728.061 127.363 731.752 127.363 736.306C127.363 740.859 131.055 744.55 135.608 744.55Z" fill="#494949"/>
<path d="M136.279 743.345C140.265 743.345 143.496 740.113 143.496 736.127C143.496 732.141 140.265 728.91 136.279 728.91C132.293 728.91 129.062 732.141 129.062 736.127C129.062 740.113 132.293 743.345 136.279 743.345Z" fill="#F5F3D9"/>
<path d="M100.795 743.701C105.349 743.701 109.04 740.01 109.04 735.457C109.04 730.903 105.349 727.212 100.795 727.212C96.242 727.212 92.5508 730.903 92.5508 735.457C92.5508 740.01 96.242 743.701 100.795 743.701Z" fill="#494949"/>
<path d="M101.466 742.496C105.452 742.496 108.684 739.264 108.684 735.278C108.684 731.292 105.452 728.061 101.466 728.061C97.4803 728.061 94.249 731.292 94.249 735.278C94.249 739.264 97.4803 742.496 101.466 742.496Z" fill="#F5F3D9"/>
<path d="M73.6236 743.701C78.177 743.701 81.8682 740.01 81.8682 735.457C81.8682 730.903 78.177 727.212 73.6236 727.212C69.0701 727.212 65.3789 730.903 65.3789 735.457C65.3789 740.01 69.0701 743.701 73.6236 743.701Z" fill="#494949"/>
<path d="M74.2954 742.496C78.2814 742.496 81.5127 739.264 81.5127 735.278C81.5127 731.292 78.2814 728.061 74.2954 728.061C70.3094 728.061 67.0781 731.292 67.0781 735.278C67.0781 739.264 70.3094 742.496 74.2954 742.496Z" fill="#F5F3D9"/>
<path d="M48.1519 724.173C52.7053 724.173 56.3965 720.481 56.3965 715.928C56.3965 711.374 52.7053 707.683 48.1519 707.683C43.5985 707.683 39.9072 711.374 39.9072 715.928C39.9072 720.481 43.5985 724.173 48.1519 724.173Z" fill="#494949"/>
<path d="M48.8237 722.967C52.8097 722.967 56.041 719.736 56.041 715.75C56.041 711.764 52.8097 708.532 48.8237 708.532C44.8377 708.532 41.6064 711.764 41.6064 715.75C41.6064 719.736 44.8377 722.967 48.8237 722.967Z" fill="#F5F3D9"/>
<path d="M48.1519 690.208C52.7053 690.208 56.3965 686.517 56.3965 681.963C56.3965 677.41 52.7053 673.719 48.1519 673.719C43.5985 673.719 39.9072 677.41 39.9072 681.963C39.9072 686.517 43.5985 690.208 48.1519 690.208Z" fill="#494949"/>
<path d="M48.8237 689.003C52.8097 689.003 56.041 685.772 56.041 681.786C56.041 677.8 52.8097 674.568 48.8237 674.568C44.8377 674.568 41.6064 677.8 41.6064 681.786C41.6064 685.772 44.8377 689.003 48.8237 689.003Z" fill="#F5F3D9"/>
<path d="M46.4546 657.943C51.008 657.943 54.6993 654.252 54.6993 649.698C54.6993 645.145 51.008 641.454 46.4546 641.454C41.9012 641.454 38.21 645.145 38.21 649.698C38.21 654.252 41.9012 657.943 46.4546 657.943Z" fill="#494949"/>
<path d="M47.1245 656.737C51.1105 656.737 54.3418 653.506 54.3418 649.52C54.3418 645.534 51.1105 642.302 47.1245 642.302C43.1385 642.302 39.9072 645.534 39.9072 649.52C39.9072 653.506 43.1385 656.737 47.1245 656.737Z" fill="#F5F3D9"/>
<path d="M46.4546 622.281C51.008 622.281 54.6993 618.59 54.6993 614.037C54.6993 609.483 51.008 605.792 46.4546 605.792C41.9012 605.792 38.21 609.483 38.21 614.037C38.21 618.59 41.9012 622.281 46.4546 622.281Z" fill="#494949"/>
<path d="M47.1245 621.075C51.1105 621.075 54.3418 617.844 54.3418 613.858C54.3418 609.872 51.1105 606.641 47.1245 606.641C43.1385 606.641 39.9072 609.872 39.9072 613.858C39.9072 617.844 43.1385 621.075 47.1245 621.075Z" fill="#F5F3D9"/>
<path d="M46.4546 589.167C51.008 589.167 54.6993 585.475 54.6993 580.922C54.6993 576.369 51.008 572.677 46.4546 572.677C41.9012 572.677 38.21 576.369 38.21 580.922C38.21 585.475 41.9012 589.167 46.4546 589.167Z" fill="#494949"/>
<path d="M47.1245 587.96C51.1105 587.96 54.3418 584.729 54.3418 580.743C54.3418 576.757 51.1105 573.526 47.1245 573.526C43.1385 573.526 39.9072 576.757 39.9072 580.743C39.9072 584.729 43.1385 587.96 47.1245 587.96Z" fill="#F5F3D9"/>
<path d="M46.4546 556.052C51.008 556.052 54.6993 552.361 54.6993 547.807C54.6993 543.254 51.008 539.562 46.4546 539.562C41.9012 539.562 38.21 543.254 38.21 547.807C38.21 552.361 41.9012 556.052 46.4546 556.052Z" fill="#494949"/>
<path d="M47.1245 554.846C51.1105 554.846 54.3418 551.615 54.3418 547.629C54.3418 543.643 51.1105 540.412 47.1245 540.412C43.1385 540.412 39.9072 543.643 39.9072 547.629C39.9072 551.615 43.1385 554.846 47.1245 554.846Z" fill="#F5F3D9"/>
<path d="M47.3023 518.692C51.8557 518.692 55.5469 515 55.5469 510.447C55.5469 505.893 51.8557 502.202 47.3023 502.202C42.7489 502.202 39.0576 505.893 39.0576 510.447C39.0576 515 42.7489 518.692 47.3023 518.692Z" fill="#494949"/>
<path d="M47.9741 517.486C51.9601 517.486 55.1914 514.255 55.1914 510.269C55.1914 506.283 51.9601 503.051 47.9741 503.051C43.9881 503.051 40.7568 506.283 40.7568 510.269C40.7568 514.255 43.9881 517.486 47.9741 517.486Z" fill="#F5F3D9"/>
<path d="M46.4546 486.426C51.008 486.426 54.6993 482.735 54.6993 478.182C54.6993 473.628 51.008 469.937 46.4546 469.937C41.9012 469.937 38.21 473.628 38.21 478.182C38.21 482.735 41.9012 486.426 46.4546 486.426Z" fill="#494949"/>
<path d="M47.1245 485.221C51.1105 485.221 54.3418 481.989 54.3418 478.003C54.3418 474.017 51.1105 470.786 47.1245 470.786C43.1385 470.786 39.9072 474.017 39.9072 478.003C39.9072 481.989 43.1385 485.221 47.1245 485.221Z" fill="#F5F3D9"/>
<path d="M44.7564 454.161C49.3098 454.161 53.001 450.47 53.001 445.916C53.001 441.363 49.3098 437.671 44.7564 437.671C40.203 437.671 36.5117 441.363 36.5117 445.916C36.5117 450.47 40.203 454.161 44.7564 454.161Z" fill="#494949"/>
<path d="M45.4272 452.955C49.4132 452.955 52.6445 449.723 52.6445 445.737C52.6445 441.751 49.4132 438.52 45.4272 438.52C41.4412 438.52 38.21 441.751 38.21 445.737C38.21 449.723 41.4412 452.955 45.4272 452.955Z" fill="#F5F3D9"/>
<path d="M44.7564 420.197C49.3098 420.197 53.001 416.506 53.001 411.953C53.001 407.399 49.3098 403.708 44.7564 403.708C40.203 403.708 36.5117 407.399 36.5117 411.953C36.5117 416.506 40.203 420.197 44.7564 420.197Z" fill="#494949"/>
<path d="M45.4272 418.992C49.4132 418.992 52.6445 415.76 52.6445 411.774C52.6445 407.788 49.4132 404.557 45.4272 404.557C41.4412 404.557 38.21 407.788 38.21 411.774C38.21 415.76 41.4412 418.992 45.4272 418.992Z" fill="#F5F3D9"/>
<path d="M50.6988 386.233C55.2522 386.233 58.9434 382.542 58.9434 377.989C58.9434 373.435 55.2522 369.744 50.6988 369.744C46.1453 369.744 42.4541 373.435 42.4541 377.989C42.4541 382.542 46.1453 386.233 50.6988 386.233Z" fill="#494949"/>
<path d="M51.3696 385.028C55.3556 385.028 58.5869 381.797 58.5869 377.811C58.5869 373.825 55.3556 370.593 51.3696 370.593C47.3836 370.593 44.1523 373.825 44.1523 377.811C44.1523 381.797 47.3836 385.028 51.3696 385.028Z" fill="#F5F3D9"/>
<path d="M440.432 743.701C444.986 743.701 448.677 740.01 448.677 735.457C448.677 730.903 444.986 727.212 440.432 727.212C435.879 727.212 432.188 730.903 432.188 735.457C432.188 740.01 435.879 743.701 440.432 743.701Z" fill="#494949"/>
<path d="M441.104 742.496C445.09 742.496 448.321 739.264 448.321 735.278C448.321 731.292 445.09 728.061 441.104 728.061C437.118 728.061 433.887 731.292 433.887 735.278C433.887 739.264 437.118 742.496 441.104 742.496Z" fill="#F5F3D9"/>
<path d="M753.747 374.346C758.3 374.346 761.991 370.655 761.991 366.101C761.991 361.548 758.3 357.856 753.747 357.856C749.193 357.856 745.502 361.548 745.502 366.101C745.502 370.655 749.193 374.346 753.747 374.346Z" fill="#494949"/>
<path d="M754.417 373.14C758.403 373.14 761.635 369.909 761.635 365.923C761.635 361.937 758.403 358.706 754.417 358.706C750.431 358.706 747.2 361.937 747.2 365.923C747.2 369.909 750.431 373.14 754.417 373.14Z" fill="#F5F3D9"/>
<path d="M350.428 375.195C354.982 375.195 358.673 371.504 358.673 366.95C358.673 362.397 354.982 358.706 350.428 358.706C345.875 358.706 342.184 362.397 342.184 366.95C342.184 371.504 345.875 375.195 350.428 375.195Z" fill="#494949"/>
<path d="M351.099 373.989C355.085 373.989 358.316 370.758 358.316 366.772C358.316 362.786 355.085 359.555 351.099 359.555C347.113 359.555 343.882 362.786 343.882 366.772C343.882 370.758 347.113 373.989 351.099 373.989Z" fill="#F5F3D9"/>
<path d="M248.537 375.195C253.09 375.195 256.781 371.504 256.781 366.95C256.781 362.397 253.09 358.706 248.537 358.706C243.983 358.706 240.292 362.397 240.292 366.95C240.292 371.504 243.983 375.195 248.537 375.195Z" fill="#494949"/>
<path d="M249.208 373.989C253.194 373.989 256.426 370.758 256.426 366.772C256.426 362.786 253.194 359.555 249.208 359.555C245.222 359.555 241.991 362.786 241.991 366.772C241.991 370.758 245.222 373.989 249.208 373.989Z" fill="#F5F3D9"/>
<path d="M66.5518 333.658C66.5518 333.403 66.5518 332.172 66.5518 330.261C66.6197 319.223 66.6197 285.259 66.6197 285.259C66.6197 285.259 65.7706 265.73 80.2052 264.032C94.6397 262.334 207.569 264.032 207.569 264.032L572.679 263.183L753.535 259.787C753.535 259.787 783.253 260.636 776.461 292.901L775.671 333.802L765.108 333.658L765.422 285.259C765.422 285.259 767.97 265.73 743.346 272.523L555.697 274.221L96.3379 272.523C96.3379 272.523 76.8088 271.674 77.6579 287.807L76.8088 333.658H67.0782" fill="#882310"/>
<path d="M66.5518 333.658C66.5518 333.403 66.5518 332.172 66.5518 330.261C66.6197 319.223 66.6197 285.259 66.6197 285.259C66.6197 285.259 65.7706 265.73 80.2052 264.032C94.6397 262.334 207.569 264.032 207.569 264.032L572.679 263.183L753.535 259.787C753.535 259.787 783.253 260.636 776.461 292.901L775.671 333.802L765.108 333.658L765.422 285.259C765.422 285.259 767.97 265.73 743.346 272.523L555.697 274.221L96.3379 272.523C96.3379 272.523 76.8088 271.674 77.6579 287.807L76.8088 333.658H67.0782" stroke="black" stroke-miterlimit="10"/>
</svg>
