<svg width="1913" height="75" viewBox="0 0 1913 75" fill="none" xmlns="http://www.w3.org/2000/svg">
<path d="M0 29.4554C7.58052 30.7943 51.5476 41.5054 137.966 29.4554C224.384 17.4055 371.446 76.3164 500.315 74.9775C629.184 73.6386 630.7 64.2664 817.181 42.8443C1003.66 21.4221 1252.3 42.8443 1309.91 42.8443C1367.53 42.8443 1350.85 29.4554 1431.2 29.4554C1511.56 29.4554 1737.46 34.811 1776.88 42.8443C1816.29 50.8776 1845.1 2.67777 1892.1 22.761C1904.52 28.0688 1911.75 32.909 1915.73 36.9109C1915.52 39.1199 1915.23 41.1306 1914.84 42.8443C1912.61 52.6946 1926.79 48.0509 1915.73 36.9109C1916.82 25.3127 1915.69 8.2476 1914.84 0H0V29.4554Z" fill="#3B3A3A"/>
</svg>
