<svg width="1920" height="188" viewBox="0 0 1920 188" fill="none" xmlns="http://www.w3.org/2000/svg">
<rect y="94.1465" width="49.253" height="46.9995" fill="#252424"/>
<rect x="49.2534" y="94.1465" width="49.253" height="46.9995" fill="#E8E8E8"/>
<rect x="98.5073" y="94" width="49.253" height="46.9995" fill="#252424"/>
<rect x="147.761" y="94" width="49.253" height="46.9995" fill="#E8E8E8"/>
<rect x="49.2534" y="141" width="49.253" height="46.9995" fill="#252424"/>
<rect y="141" width="49.253" height="46.9995" fill="#E8E8E8"/>
<rect x="147.761" y="141" width="49.253" height="46.9995" fill="#252424"/>
<rect x="98.5073" y="141" width="49.253" height="46.9995" fill="#E8E8E8"/>
<rect x="197.012" y="94.1465" width="49.253" height="46.9995" fill="#252424"/>
<rect x="246.266" y="94.1465" width="49.253" height="46.9995" fill="#E8E8E8"/>
<rect x="295.52" y="94" width="49.253" height="46.9995" fill="#252424"/>
<rect x="344.773" y="94" width="49.253" height="46.9995" fill="#E8E8E8"/>
<rect x="246.266" y="141" width="49.253" height="46.9995" fill="#252424"/>
<rect x="197.012" y="141" width="49.253" height="46.9995" fill="#E8E8E8"/>
<rect x="344.773" y="141" width="49.253" height="46.9995" fill="#252424"/>
<rect x="295.52" y="141" width="49.253" height="46.9995" fill="#E8E8E8"/>
<rect x="394.026" y="94.1465" width="49.253" height="46.9995" fill="#252424"/>
<rect x="443.278" y="94.1465" width="49.253" height="46.9995" fill="#E8E8E8"/>
<rect x="492.531" y="94" width="49.253" height="46.9995" fill="#252424"/>
<rect x="541.784" y="94" width="49.253" height="46.9995" fill="#E8E8E8"/>
<rect x="443.278" y="141" width="49.253" height="46.9995" fill="#252424"/>
<rect x="394.026" y="141" width="49.253" height="46.9995" fill="#E8E8E8"/>
<rect x="541.784" y="141" width="49.253" height="46.9995" fill="#252424"/>
<rect x="492.531" y="141" width="49.253" height="46.9995" fill="#E8E8E8"/>
<rect x="591.038" y="94.1465" width="49.253" height="46.9995" fill="#252424"/>
<rect x="640.292" y="94.1465" width="49.253" height="46.9995" fill="#E8E8E8"/>
<rect x="689.544" y="94" width="49.253" height="46.9995" fill="#252424"/>
<rect x="738.797" y="94" width="49.253" height="46.9995" fill="#E8E8E8"/>
<rect x="640.292" y="141" width="49.253" height="46.9995" fill="#252424"/>
<rect x="591.038" y="141" width="49.253" height="46.9995" fill="#E8E8E8"/>
<rect x="738.797" y="141" width="49.253" height="46.9995" fill="#252424"/>
<rect x="689.544" y="141" width="49.253" height="46.9995" fill="#E8E8E8"/>
<rect x="788.05" y="94.1465" width="49.253" height="46.9995" fill="#252424"/>
<rect x="837.304" y="94.1465" width="49.253" height="46.9995" fill="#E8E8E8"/>
<rect x="886.558" y="94" width="49.253" height="46.9995" fill="#252424"/>
<rect x="935.811" y="94" width="49.253" height="46.9995" fill="#E8E8E8"/>
<rect x="837.304" y="141" width="49.253" height="46.9995" fill="#252424"/>
<rect x="788.05" y="141" width="49.253" height="46.9995" fill="#E8E8E8"/>
<rect x="935.811" y="141" width="49.253" height="46.9995" fill="#252424"/>
<rect x="886.558" y="141" width="49.253" height="46.9995" fill="#E8E8E8"/>
<rect x="985.061" y="94.1465" width="49.253" height="46.9995" fill="#252424"/>
<rect x="1034.31" y="94.1465" width="49.253" height="46.9995" fill="#E8E8E8"/>
<rect x="1083.57" y="94" width="49.253" height="46.9995" fill="#252424"/>
<rect x="1132.82" y="94" width="49.253" height="46.9995" fill="#E8E8E8"/>
<rect x="1034.31" y="141" width="49.253" height="46.9995" fill="#252424"/>
<rect x="985.061" y="141" width="49.253" height="46.9995" fill="#E8E8E8"/>
<rect x="1132.82" y="141" width="49.253" height="46.9995" fill="#252424"/>
<rect x="1083.57" y="141" width="49.253" height="46.9995" fill="#E8E8E8"/>
<rect x="1182.07" y="94.1465" width="49.253" height="46.9995" fill="#252424"/>
<rect x="1231.33" y="94.1465" width="49.253" height="46.9995" fill="#E8E8E8"/>
<rect x="1280.58" y="94" width="49.253" height="46.9995" fill="#252424"/>
<rect x="1329.83" y="94" width="49.253" height="46.9995" fill="#E8E8E8"/>
<rect x="1231.33" y="141" width="49.253" height="46.9995" fill="#252424"/>
<rect x="1182.07" y="141" width="49.253" height="46.9995" fill="#E8E8E8"/>
<rect x="1329.83" y="141" width="49.253" height="46.9995" fill="#252424"/>
<rect x="1280.58" y="141" width="49.253" height="46.9995" fill="#E8E8E8"/>
<rect x="1379.09" y="94.1465" width="49.253" height="46.9995" fill="#252424"/>
<rect x="1428.34" y="94.1465" width="49.253" height="46.9995" fill="#E8E8E8"/>
<rect x="1477.59" y="94" width="49.253" height="46.9995" fill="#252424"/>
<rect x="1526.85" y="94" width="49.253" height="46.9995" fill="#E8E8E8"/>
<rect x="1428.34" y="141" width="49.253" height="46.9995" fill="#252424"/>
<rect x="1379.09" y="141" width="49.253" height="46.9995" fill="#E8E8E8"/>
<rect x="1526.85" y="141" width="49.253" height="46.9995" fill="#252424"/>
<rect x="1477.59" y="141" width="49.253" height="46.9995" fill="#E8E8E8"/>
<rect x="1576.1" y="94.1465" width="49.253" height="46.9995" fill="#252424"/>
<rect x="1625.35" y="94.1465" width="49.253" height="46.9995" fill="#E8E8E8"/>
<rect x="1674.6" y="94" width="49.253" height="46.9995" fill="#252424"/>
<rect x="1723.86" y="94" width="49.253" height="46.9995" fill="#E8E8E8"/>
<rect x="1772.83" y="94" width="49.253" height="46.9995" fill="#252424"/>
<rect x="1870.75" y="94" width="49.253" height="46.9995" fill="#252424"/>
<rect x="1822.08" y="94" width="49.253" height="46.9995" fill="#E8E8E8"/>
<rect x="1625.35" y="141" width="49.253" height="46.9995" fill="#252424"/>
<rect x="1576.1" y="141" width="49.253" height="46.9995" fill="#E8E8E8"/>
<rect x="1723.86" y="141" width="49.253" height="46.9995" fill="#252424"/>
<rect x="1674.6" y="141" width="49.253" height="46.9995" fill="#E8E8E8"/>
<rect x="1822.08" y="140.328" width="49.253" height="46.9995" fill="#252424"/>
<rect x="1772.83" y="140.328" width="49.253" height="46.9995" fill="#E8E8E8"/>
<rect x="1870.75" y="140.328" width="49.253" height="46.9995" fill="#E8E8E8"/>
<line y1="187" x2="1920" y2="187" stroke="black" stroke-width="2"/>
<line y1="1" x2="1920" y2="1" stroke="black" stroke-width="2"/>
<rect y="2.14648" width="49.253" height="46.9995" fill="#252424"/>
<rect x="49.2534" y="2.14648" width="49.253" height="46.9995" fill="#E8E8E8"/>
<rect x="98.5073" y="2" width="49.253" height="46.9995" fill="#252424"/>
<rect x="147.761" y="2" width="49.253" height="46.9995" fill="#E8E8E8"/>
<rect x="49.2534" y="48.9995" width="49.253" height="46.9995" fill="#252424"/>
<rect y="48.9995" width="49.253" height="46.9995" fill="#E8E8E8"/>
<rect x="147.761" y="48.9995" width="49.253" height="46.9995" fill="#252424"/>
<rect x="98.5073" y="48.9995" width="49.253" height="46.9995" fill="#E8E8E8"/>
<rect x="197.012" y="2.14648" width="49.253" height="46.9995" fill="#252424"/>
<rect x="246.266" y="2.14648" width="49.253" height="46.9995" fill="#E8E8E8"/>
<rect x="295.52" y="2" width="49.253" height="46.9995" fill="#252424"/>
<rect x="344.773" y="2" width="49.253" height="46.9995" fill="#E8E8E8"/>
<rect x="246.266" y="48.9995" width="49.253" height="46.9995" fill="#252424"/>
<rect x="197.012" y="48.9995" width="49.253" height="46.9995" fill="#E8E8E8"/>
<rect x="344.773" y="48.9995" width="49.253" height="46.9995" fill="#252424"/>
<rect x="295.52" y="48.9995" width="49.253" height="46.9995" fill="#E8E8E8"/>
<rect x="394.026" y="2.14648" width="49.253" height="46.9995" fill="#252424"/>
<rect x="443.278" y="2.14648" width="49.253" height="46.9995" fill="#E8E8E8"/>
<rect x="492.531" y="2" width="49.253" height="46.9995" fill="#252424"/>
<rect x="541.784" y="2" width="49.253" height="46.9995" fill="#E8E8E8"/>
<rect x="443.278" y="48.9995" width="49.253" height="46.9995" fill="#252424"/>
<rect x="394.026" y="48.9995" width="49.253" height="46.9995" fill="#E8E8E8"/>
<rect x="541.784" y="48.9995" width="49.253" height="46.9995" fill="#252424"/>
<rect x="492.531" y="48.9995" width="49.253" height="46.9995" fill="#E8E8E8"/>
<rect x="591.038" y="2.14648" width="49.253" height="46.9995" fill="#252424"/>
<rect x="640.292" y="2.14648" width="49.253" height="46.9995" fill="#E8E8E8"/>
<rect x="689.544" y="2" width="49.253" height="46.9995" fill="#252424"/>
<rect x="738.797" y="2" width="49.253" height="46.9995" fill="#E8E8E8"/>
<rect x="640.292" y="48.9995" width="49.253" height="46.9995" fill="#252424"/>
<rect x="591.038" y="48.9995" width="49.253" height="46.9995" fill="#E8E8E8"/>
<rect x="738.797" y="48.9995" width="49.253" height="46.9995" fill="#252424"/>
<rect x="689.544" y="48.9995" width="49.253" height="46.9995" fill="#E8E8E8"/>
<rect x="788.05" y="2.14648" width="49.253" height="46.9995" fill="#252424"/>
<rect x="837.304" y="2.14648" width="49.253" height="46.9995" fill="#E8E8E8"/>
<rect x="886.558" y="2" width="49.253" height="46.9995" fill="#252424"/>
<rect x="935.811" y="2" width="49.253" height="46.9995" fill="#E8E8E8"/>
<rect x="837.304" y="48.9995" width="49.253" height="46.9995" fill="#252424"/>
<rect x="788.05" y="48.9995" width="49.253" height="46.9995" fill="#E8E8E8"/>
<rect x="935.811" y="48.9995" width="49.253" height="46.9995" fill="#252424"/>
<rect x="886.558" y="48.9995" width="49.253" height="46.9995" fill="#E8E8E8"/>
<rect x="985.061" y="2.14648" width="49.253" height="46.9995" fill="#252424"/>
<rect x="1034.31" y="2.14648" width="49.253" height="46.9995" fill="#E8E8E8"/>
<rect x="1083.57" y="2" width="49.253" height="46.9995" fill="#252424"/>
<rect x="1132.82" y="2" width="49.253" height="46.9995" fill="#E8E8E8"/>
<rect x="1034.31" y="48.9995" width="49.253" height="46.9995" fill="#252424"/>
<rect x="985.061" y="48.9995" width="49.253" height="46.9995" fill="#E8E8E8"/>
<rect x="1132.82" y="48.9995" width="49.253" height="46.9995" fill="#252424"/>
<rect x="1083.57" y="48.9995" width="49.253" height="46.9995" fill="#E8E8E8"/>
<rect x="1182.07" y="2.14648" width="49.253" height="46.9995" fill="#252424"/>
<rect x="1231.33" y="2.14648" width="49.253" height="46.9995" fill="#E8E8E8"/>
<rect x="1280.58" y="2" width="49.253" height="46.9995" fill="#252424"/>
<rect x="1329.83" y="2" width="49.253" height="46.9995" fill="#E8E8E8"/>
<rect x="1231.33" y="48.9995" width="49.253" height="46.9995" fill="#252424"/>
<rect x="1182.07" y="48.9995" width="49.253" height="46.9995" fill="#E8E8E8"/>
<rect x="1329.83" y="48.9995" width="49.253" height="46.9995" fill="#252424"/>
<rect x="1280.58" y="48.9995" width="49.253" height="46.9995" fill="#E8E8E8"/>
<rect x="1379.09" y="2.14648" width="49.253" height="46.9995" fill="#252424"/>
<rect x="1428.34" y="2.14648" width="49.253" height="46.9995" fill="#E8E8E8"/>
<rect x="1477.59" y="2" width="49.253" height="46.9995" fill="#252424"/>
<rect x="1526.85" y="2" width="49.253" height="46.9995" fill="#E8E8E8"/>
<rect x="1428.34" y="48.9995" width="49.253" height="46.9995" fill="#252424"/>
<rect x="1379.09" y="48.9995" width="49.253" height="46.9995" fill="#E8E8E8"/>
<rect x="1526.85" y="48.9995" width="49.253" height="46.9995" fill="#252424"/>
<rect x="1477.59" y="48.9995" width="49.253" height="46.9995" fill="#E8E8E8"/>
<rect x="1576.1" y="2.14648" width="49.253" height="46.9995" fill="#252424"/>
<rect x="1625.35" y="2.14648" width="49.253" height="46.9995" fill="#E8E8E8"/>
<rect x="1674.6" y="2" width="49.253" height="46.9995" fill="#252424"/>
<rect x="1723.86" y="2" width="49.253" height="46.9995" fill="#E8E8E8"/>
<rect x="1772.83" y="2" width="49.253" height="46.9995" fill="#252424"/>
<rect x="1870.75" y="2" width="49.253" height="46.9995" fill="#252424"/>
<rect x="1822.08" y="2" width="49.253" height="46.9995" fill="#E8E8E8"/>
<rect x="1625.35" y="48.9995" width="49.253" height="46.9995" fill="#252424"/>
<rect x="1576.1" y="48.9995" width="49.253" height="46.9995" fill="#E8E8E8"/>
<rect x="1723.86" y="48.9995" width="49.253" height="46.9995" fill="#252424"/>
<rect x="1674.6" y="48.9995" width="49.253" height="46.9995" fill="#E8E8E8"/>
<rect x="1822.08" y="48.3281" width="49.253" height="46.9995" fill="#252424"/>
<rect x="1772.83" y="48.3281" width="49.253" height="46.9995" fill="#E8E8E8"/>
<rect x="1870.75" y="48.3281" width="49.253" height="46.9995" fill="#E8E8E8"/>
</svg>
