<svg width="483" height="136" viewBox="0 0 483 136" fill="none" xmlns="http://www.w3.org/2000/svg">
<mask id="path-1-outside-1_262_815" maskUnits="userSpaceOnUse" x="84.4561" y="85.54" width="346" height="50" fill="black">
<rect fill="white" x="84.4561" y="85.54" width="346" height="50"/>
<path d="M132.44 87.54C136.189 88.2897 138.977 89.5227 140.804 91.239C142.655 92.9554 143.58 95.2636 143.58 98.1636C143.58 100.097 143.331 101.725 142.832 103.046C142.334 104.348 141.705 105.433 140.946 106.301C140.187 107.15 139.356 107.811 138.455 108.284C137.577 108.738 136.758 109.073 135.999 109.29C135.24 109.507 134.587 109.635 134.041 109.675C133.519 109.714 133.247 109.734 133.223 109.734C134.148 109.774 135.133 109.862 136.177 110C137.245 110.139 138.301 110.356 139.345 110.651C140.389 110.947 141.385 111.332 142.334 111.806C143.283 112.279 144.114 112.871 144.826 113.581C145.561 114.272 146.142 115.1 146.57 116.067C146.997 117.033 147.21 118.148 147.21 119.411C147.21 121.344 146.914 123.139 146.32 124.796C145.751 126.454 144.731 127.894 143.26 129.117C141.812 130.32 139.831 131.267 137.316 131.958C134.801 132.648 131.621 132.993 127.777 132.993H86.4561V120.151L91.0117 119.411V100.028L86.4561 99.2881V87.54H132.44ZM124.432 102.099C124.432 101.093 124.218 100.324 123.791 99.7912C123.388 99.2388 122.842 98.8343 122.154 98.5779C121.466 98.3214 120.683 98.1735 119.805 98.134C118.927 98.0945 118.037 98.0748 117.136 98.0748H113.79V106.568H117.136C118.037 106.568 118.927 106.548 119.805 106.509C120.683 106.449 121.466 106.282 122.154 106.005C122.842 105.729 123.388 105.295 123.791 104.703C124.218 104.092 124.432 103.224 124.432 102.099ZM124.432 116.866C124.432 115.86 124.218 115.09 123.791 114.558C123.388 114.025 122.842 113.63 122.154 113.374C121.466 113.117 120.683 112.97 119.805 112.93C118.927 112.891 118.037 112.871 117.136 112.871H113.79V121.364H117.136C118.037 121.364 118.927 121.344 119.805 121.305C120.683 121.245 121.466 121.078 122.154 120.802C122.842 120.525 123.388 120.081 123.791 119.47C124.218 118.858 124.432 117.99 124.432 116.866Z"/>
<path d="M210.563 101.123C210.539 101.754 210.527 102.376 210.527 102.987C210.527 103.579 210.527 104.161 210.527 104.733V109.734C210.527 113.916 209.839 117.527 208.463 120.565C207.11 123.583 205.248 126.079 202.875 128.052C200.526 130.005 197.773 131.405 194.618 132.254C191.462 133.102 188.104 133.526 184.545 133.526C181.769 133.526 179.1 133.368 176.537 133.053C173.999 132.757 171.626 132.194 169.419 131.366C167.212 130.518 165.207 129.452 163.404 128.17C161.601 126.868 160.047 125.329 158.742 123.554C157.46 121.758 156.464 119.716 155.752 117.428C155.064 115.14 154.72 112.575 154.72 109.734V101.123L150.164 100.383V87.54H179.741V100.383L175.185 101.123V104.94C175.185 105.433 175.185 105.936 175.185 106.449C175.185 106.943 175.185 107.406 175.185 107.84C175.209 108.274 175.22 108.659 175.22 108.994C175.22 109.33 175.22 109.576 175.22 109.734C175.22 110.227 175.232 110.799 175.256 111.45C175.28 112.101 175.375 112.782 175.541 113.492C175.731 114.183 176.003 114.873 176.359 115.564C176.715 116.254 177.225 116.876 177.89 117.428C178.578 117.961 179.432 118.395 180.452 118.73C181.496 119.065 182.778 119.233 184.296 119.233C185.815 119.233 187.084 119.065 188.104 118.73C189.148 118.395 190.015 117.961 190.703 117.428C191.391 116.876 191.913 116.254 192.269 115.564C192.648 114.873 192.921 114.183 193.087 113.492C193.253 112.782 193.348 112.101 193.372 111.45C193.419 110.799 193.443 110.227 193.443 109.734C193.443 109.576 193.443 109.33 193.443 108.994C193.443 108.659 193.431 108.274 193.408 107.84C193.408 107.406 193.408 106.943 193.408 106.449C193.408 105.936 193.408 105.433 193.408 104.94V101.123L188.852 100.383V87.54H215.118V100.383L210.563 101.123Z"/>
<path d="M239.249 110.829V119.411L243.805 120.121V132.993H221.026V120.151L225.582 119.411V101.123L221.026 100.383V87.54H248.36L266.583 110.829V101.182L262.027 100.383V87.54H284.806V100.383L280.25 101.123V119.411L284.806 120.151V132.993H257.436L239.249 110.829Z"/>
<path d="M310.289 110.829V119.411L314.845 120.121V132.993H292.066V120.151L296.622 119.411V101.123L292.066 100.383V87.54H319.4L337.623 110.829V101.182L333.067 100.383V87.54H355.846V100.383L351.29 101.123V119.411L355.846 120.151V132.993H328.476L310.289 110.829Z"/>
<path d="M376.845 132.993V120.21L381.4 119.263L365.776 101.093L360.01 100.383V87.54H390.405V100.383L386.846 101.093L394.071 110.385L401.296 101.093L397.737 100.383V87.54H428.096V100.383L422.366 101.093L406.741 119.263L411.297 120.21V132.993H376.845Z"/>
</mask>
<path d="M132.44 87.54C136.189 88.2897 138.977 89.5227 140.804 91.239C142.655 92.9554 143.58 95.2636 143.58 98.1636C143.58 100.097 143.331 101.725 142.832 103.046C142.334 104.348 141.705 105.433 140.946 106.301C140.187 107.15 139.356 107.811 138.455 108.284C137.577 108.738 136.758 109.073 135.999 109.29C135.24 109.507 134.587 109.635 134.041 109.675C133.519 109.714 133.247 109.734 133.223 109.734C134.148 109.774 135.133 109.862 136.177 110C137.245 110.139 138.301 110.356 139.345 110.651C140.389 110.947 141.385 111.332 142.334 111.806C143.283 112.279 144.114 112.871 144.826 113.581C145.561 114.272 146.142 115.1 146.57 116.067C146.997 117.033 147.21 118.148 147.21 119.411C147.21 121.344 146.914 123.139 146.32 124.796C145.751 126.454 144.731 127.894 143.26 129.117C141.812 130.32 139.831 131.267 137.316 131.958C134.801 132.648 131.621 132.993 127.777 132.993H86.4561V120.151L91.0117 119.411V100.028L86.4561 99.2881V87.54H132.44ZM124.432 102.099C124.432 101.093 124.218 100.324 123.791 99.7912C123.388 99.2388 122.842 98.8343 122.154 98.5779C121.466 98.3214 120.683 98.1735 119.805 98.134C118.927 98.0945 118.037 98.0748 117.136 98.0748H113.79V106.568H117.136C118.037 106.568 118.927 106.548 119.805 106.509C120.683 106.449 121.466 106.282 122.154 106.005C122.842 105.729 123.388 105.295 123.791 104.703C124.218 104.092 124.432 103.224 124.432 102.099ZM124.432 116.866C124.432 115.86 124.218 115.09 123.791 114.558C123.388 114.025 122.842 113.63 122.154 113.374C121.466 113.117 120.683 112.97 119.805 112.93C118.927 112.891 118.037 112.871 117.136 112.871H113.79V121.364H117.136C118.037 121.364 118.927 121.344 119.805 121.305C120.683 121.245 121.466 121.078 122.154 120.802C122.842 120.525 123.388 120.081 123.791 119.47C124.218 118.858 124.432 117.99 124.432 116.866Z" fill="black"/>
<path d="M210.563 101.123C210.539 101.754 210.527 102.376 210.527 102.987C210.527 103.579 210.527 104.161 210.527 104.733V109.734C210.527 113.916 209.839 117.527 208.463 120.565C207.11 123.583 205.248 126.079 202.875 128.052C200.526 130.005 197.773 131.405 194.618 132.254C191.462 133.102 188.104 133.526 184.545 133.526C181.769 133.526 179.1 133.368 176.537 133.053C173.999 132.757 171.626 132.194 169.419 131.366C167.212 130.518 165.207 129.452 163.404 128.17C161.601 126.868 160.047 125.329 158.742 123.554C157.46 121.758 156.464 119.716 155.752 117.428C155.064 115.14 154.72 112.575 154.72 109.734V101.123L150.164 100.383V87.54H179.741V100.383L175.185 101.123V104.94C175.185 105.433 175.185 105.936 175.185 106.449C175.185 106.943 175.185 107.406 175.185 107.84C175.209 108.274 175.22 108.659 175.22 108.994C175.22 109.33 175.22 109.576 175.22 109.734C175.22 110.227 175.232 110.799 175.256 111.45C175.28 112.101 175.375 112.782 175.541 113.492C175.731 114.183 176.003 114.873 176.359 115.564C176.715 116.254 177.225 116.876 177.89 117.428C178.578 117.961 179.432 118.395 180.452 118.73C181.496 119.065 182.778 119.233 184.296 119.233C185.815 119.233 187.084 119.065 188.104 118.73C189.148 118.395 190.015 117.961 190.703 117.428C191.391 116.876 191.913 116.254 192.269 115.564C192.648 114.873 192.921 114.183 193.087 113.492C193.253 112.782 193.348 112.101 193.372 111.45C193.419 110.799 193.443 110.227 193.443 109.734C193.443 109.576 193.443 109.33 193.443 108.994C193.443 108.659 193.431 108.274 193.408 107.84C193.408 107.406 193.408 106.943 193.408 106.449C193.408 105.936 193.408 105.433 193.408 104.94V101.123L188.852 100.383V87.54H215.118V100.383L210.563 101.123Z" fill="black"/>
<path d="M239.249 110.829V119.411L243.805 120.121V132.993H221.026V120.151L225.582 119.411V101.123L221.026 100.383V87.54H248.36L266.583 110.829V101.182L262.027 100.383V87.54H284.806V100.383L280.25 101.123V119.411L284.806 120.151V132.993H257.436L239.249 110.829Z" fill="black"/>
<path d="M310.289 110.829V119.411L314.845 120.121V132.993H292.066V120.151L296.622 119.411V101.123L292.066 100.383V87.54H319.4L337.623 110.829V101.182L333.067 100.383V87.54H355.846V100.383L351.29 101.123V119.411L355.846 120.151V132.993H328.476L310.289 110.829Z" fill="black"/>
<path d="M376.845 132.993V120.21L381.4 119.263L365.776 101.093L360.01 100.383V87.54H390.405V100.383L386.846 101.093L394.071 110.385L401.296 101.093L397.737 100.383V87.54H428.096V100.383L422.366 101.093L406.741 119.263L411.297 120.21V132.993H376.845Z" fill="black"/>
<path d="M132.44 87.54C136.189 88.2897 138.977 89.5227 140.804 91.239C142.655 92.9554 143.58 95.2636 143.58 98.1636C143.58 100.097 143.331 101.725 142.832 103.046C142.334 104.348 141.705 105.433 140.946 106.301C140.187 107.15 139.356 107.811 138.455 108.284C137.577 108.738 136.758 109.073 135.999 109.29C135.24 109.507 134.587 109.635 134.041 109.675C133.519 109.714 133.247 109.734 133.223 109.734C134.148 109.774 135.133 109.862 136.177 110C137.245 110.139 138.301 110.356 139.345 110.651C140.389 110.947 141.385 111.332 142.334 111.806C143.283 112.279 144.114 112.871 144.826 113.581C145.561 114.272 146.142 115.1 146.57 116.067C146.997 117.033 147.21 118.148 147.21 119.411C147.21 121.344 146.914 123.139 146.32 124.796C145.751 126.454 144.731 127.894 143.26 129.117C141.812 130.32 139.831 131.267 137.316 131.958C134.801 132.648 131.621 132.993 127.777 132.993H86.4561V120.151L91.0117 119.411V100.028L86.4561 99.2881V87.54H132.44ZM124.432 102.099C124.432 101.093 124.218 100.324 123.791 99.7912C123.388 99.2388 122.842 98.8343 122.154 98.5779C121.466 98.3214 120.683 98.1735 119.805 98.134C118.927 98.0945 118.037 98.0748 117.136 98.0748H113.79V106.568H117.136C118.037 106.568 118.927 106.548 119.805 106.509C120.683 106.449 121.466 106.282 122.154 106.005C122.842 105.729 123.388 105.295 123.791 104.703C124.218 104.092 124.432 103.224 124.432 102.099ZM124.432 116.866C124.432 115.86 124.218 115.09 123.791 114.558C123.388 114.025 122.842 113.63 122.154 113.374C121.466 113.117 120.683 112.97 119.805 112.93C118.927 112.891 118.037 112.871 117.136 112.871H113.79V121.364H117.136C118.037 121.364 118.927 121.344 119.805 121.305C120.683 121.245 121.466 121.078 122.154 120.802C122.842 120.525 123.388 120.081 123.791 119.47C124.218 118.858 124.432 117.99 124.432 116.866Z" stroke="black" stroke-width="4" mask="url(#path-1-outside-1_262_815)"/>
<path d="M210.563 101.123C210.539 101.754 210.527 102.376 210.527 102.987C210.527 103.579 210.527 104.161 210.527 104.733V109.734C210.527 113.916 209.839 117.527 208.463 120.565C207.11 123.583 205.248 126.079 202.875 128.052C200.526 130.005 197.773 131.405 194.618 132.254C191.462 133.102 188.104 133.526 184.545 133.526C181.769 133.526 179.1 133.368 176.537 133.053C173.999 132.757 171.626 132.194 169.419 131.366C167.212 130.518 165.207 129.452 163.404 128.17C161.601 126.868 160.047 125.329 158.742 123.554C157.46 121.758 156.464 119.716 155.752 117.428C155.064 115.14 154.72 112.575 154.72 109.734V101.123L150.164 100.383V87.54H179.741V100.383L175.185 101.123V104.94C175.185 105.433 175.185 105.936 175.185 106.449C175.185 106.943 175.185 107.406 175.185 107.84C175.209 108.274 175.22 108.659 175.22 108.994C175.22 109.33 175.22 109.576 175.22 109.734C175.22 110.227 175.232 110.799 175.256 111.45C175.28 112.101 175.375 112.782 175.541 113.492C175.731 114.183 176.003 114.873 176.359 115.564C176.715 116.254 177.225 116.876 177.89 117.428C178.578 117.961 179.432 118.395 180.452 118.73C181.496 119.065 182.778 119.233 184.296 119.233C185.815 119.233 187.084 119.065 188.104 118.73C189.148 118.395 190.015 117.961 190.703 117.428C191.391 116.876 191.913 116.254 192.269 115.564C192.648 114.873 192.921 114.183 193.087 113.492C193.253 112.782 193.348 112.101 193.372 111.45C193.419 110.799 193.443 110.227 193.443 109.734C193.443 109.576 193.443 109.33 193.443 108.994C193.443 108.659 193.431 108.274 193.408 107.84C193.408 107.406 193.408 106.943 193.408 106.449C193.408 105.936 193.408 105.433 193.408 104.94V101.123L188.852 100.383V87.54H215.118V100.383L210.563 101.123Z" stroke="black" stroke-width="4" mask="url(#path-1-outside-1_262_815)"/>
<path d="M239.249 110.829V119.411L243.805 120.121V132.993H221.026V120.151L225.582 119.411V101.123L221.026 100.383V87.54H248.36L266.583 110.829V101.182L262.027 100.383V87.54H284.806V100.383L280.25 101.123V119.411L284.806 120.151V132.993H257.436L239.249 110.829Z" stroke="black" stroke-width="4" mask="url(#path-1-outside-1_262_815)"/>
<path d="M310.289 110.829V119.411L314.845 120.121V132.993H292.066V120.151L296.622 119.411V101.123L292.066 100.383V87.54H319.4L337.623 110.829V101.182L333.067 100.383V87.54H355.846V100.383L351.29 101.123V119.411L355.846 120.151V132.993H328.476L310.289 110.829Z" stroke="black" stroke-width="4" mask="url(#path-1-outside-1_262_815)"/>
<path d="M376.845 132.993V120.21L381.4 119.263L365.776 101.093L360.01 100.383V87.54H390.405V100.383L386.846 101.093L394.071 110.385L401.296 101.093L397.737 100.383V87.54H428.096V100.383L422.366 101.093L406.741 119.263L411.297 120.21V132.993H376.845Z" stroke="black" stroke-width="4" mask="url(#path-1-outside-1_262_815)"/>
<mask id="path-2-outside-2_262_815" maskUnits="userSpaceOnUse" x="77.6313" y="85.54" width="346" height="50" fill="black">
<rect fill="white" x="77.6313" y="85.54" width="346" height="50"/>
<path d="M125.615 87.54C129.364 88.2897 132.152 89.5227 133.979 91.239C135.83 92.9554 136.755 95.2636 136.755 98.1636C136.755 100.097 136.506 101.725 136.008 103.046C135.51 104.348 134.881 105.433 134.121 106.301C133.362 107.15 132.532 107.811 131.63 108.284C130.752 108.738 129.934 109.073 129.174 109.29C128.415 109.507 127.762 109.635 127.217 109.675C126.695 109.714 126.422 109.734 126.398 109.734C127.324 109.774 128.308 109.862 129.352 110C130.42 110.139 131.476 110.356 132.52 110.651C133.564 110.947 134.56 111.332 135.51 111.806C136.459 112.279 137.289 112.871 138.001 113.581C138.736 114.272 139.318 115.1 139.745 116.067C140.172 117.033 140.386 118.148 140.386 119.411C140.386 121.344 140.089 123.139 139.496 124.796C138.926 126.454 137.906 127.894 136.435 129.117C134.988 130.32 133.006 131.267 130.491 131.958C127.976 132.648 124.797 132.993 120.953 132.993H79.6313V120.151L84.187 119.411V100.028L79.6313 99.2881V87.54H125.615ZM117.607 102.099C117.607 101.093 117.394 100.324 116.967 99.7912C116.563 99.2388 116.017 98.8343 115.329 98.5779C114.641 98.3214 113.858 98.1735 112.98 98.134C112.102 98.0945 111.213 98.0748 110.311 98.0748H106.965V106.568H110.311C111.213 106.568 112.102 106.548 112.98 106.509C113.858 106.449 114.641 106.282 115.329 106.005C116.017 105.729 116.563 105.295 116.967 104.703C117.394 104.092 117.607 103.224 117.607 102.099ZM117.607 116.866C117.607 115.86 117.394 115.09 116.967 114.558C116.563 114.025 116.017 113.63 115.329 113.374C114.641 113.117 113.858 112.97 112.98 112.93C112.102 112.891 111.213 112.871 110.311 112.871H106.965V121.364H110.311C111.213 121.364 112.102 121.344 112.98 121.305C113.858 121.245 114.641 121.078 115.329 120.802C116.017 120.525 116.563 120.081 116.967 119.47C117.394 118.858 117.607 117.99 117.607 116.866Z"/>
<path d="M203.738 101.123C203.714 101.754 203.702 102.376 203.702 102.987C203.702 103.579 203.702 104.161 203.702 104.733V109.734C203.702 113.916 203.014 117.527 201.638 120.565C200.285 123.583 198.423 126.079 196.05 128.052C193.701 130.005 190.949 131.405 187.793 132.254C184.637 133.102 181.28 133.526 177.721 133.526C174.945 133.526 172.275 133.368 169.713 133.053C167.174 132.757 164.801 132.194 162.594 131.366C160.388 130.518 158.383 129.452 156.579 128.17C154.776 126.868 153.222 125.329 151.917 123.554C150.636 121.758 149.639 119.716 148.927 117.428C148.239 115.14 147.895 112.575 147.895 109.734V101.123L143.34 100.383V87.54H172.916V100.383L168.36 101.123V104.94C168.36 105.433 168.36 105.936 168.36 106.449C168.36 106.943 168.36 107.406 168.36 107.84C168.384 108.274 168.396 108.659 168.396 108.994C168.396 109.33 168.396 109.576 168.396 109.734C168.396 110.227 168.408 110.799 168.431 111.45C168.455 112.101 168.55 112.782 168.716 113.492C168.906 114.183 169.179 114.873 169.535 115.564C169.891 116.254 170.401 116.876 171.065 117.428C171.753 117.961 172.607 118.395 173.628 118.73C174.672 119.065 175.953 119.233 177.472 119.233C178.99 119.233 180.259 119.065 181.28 118.73C182.324 118.395 183.19 117.961 183.878 117.428C184.566 116.876 185.088 116.254 185.444 115.564C185.824 114.873 186.096 114.183 186.263 113.492C186.429 112.782 186.524 112.101 186.547 111.45C186.595 110.799 186.618 110.227 186.618 109.734C186.618 109.576 186.618 109.33 186.618 108.994C186.618 108.659 186.607 108.274 186.583 107.84C186.583 107.406 186.583 106.943 186.583 106.449C186.583 105.936 186.583 105.433 186.583 104.94V101.123L182.027 100.383V87.54H208.293V100.383L203.738 101.123Z"/>
<path d="M232.424 110.829V119.411L236.98 120.121V132.993H214.202V120.151L218.757 119.411V101.123L214.202 100.383V87.54H241.536L259.758 110.829V101.182L255.203 100.383V87.54H277.981V100.383L273.425 101.123V119.411L277.981 120.151V132.993H250.611L232.424 110.829Z"/>
<path d="M303.464 110.829V119.411L308.02 120.121V132.993H285.242V120.151L289.797 119.411V101.123L285.242 100.383V87.54H312.576L330.798 110.829V101.182L326.243 100.383V87.54H349.021V100.383L344.465 101.123V119.411L349.021 120.151V132.993H321.651L303.464 110.829Z"/>
<path d="M370.02 132.993V120.21L374.576 119.263L358.951 101.093L353.185 100.383V87.54H383.58V100.383L380.021 101.093L387.246 110.385L394.471 101.093L390.912 100.383V87.54H421.271V100.383L415.541 101.093L399.916 119.263L404.472 120.21V132.993H370.02Z"/>
</mask>
<path d="M125.615 87.54C129.364 88.2897 132.152 89.5227 133.979 91.239C135.83 92.9554 136.755 95.2636 136.755 98.1636C136.755 100.097 136.506 101.725 136.008 103.046C135.51 104.348 134.881 105.433 134.121 106.301C133.362 107.15 132.532 107.811 131.63 108.284C130.752 108.738 129.934 109.073 129.174 109.29C128.415 109.507 127.762 109.635 127.217 109.675C126.695 109.714 126.422 109.734 126.398 109.734C127.324 109.774 128.308 109.862 129.352 110C130.42 110.139 131.476 110.356 132.52 110.651C133.564 110.947 134.56 111.332 135.51 111.806C136.459 112.279 137.289 112.871 138.001 113.581C138.736 114.272 139.318 115.1 139.745 116.067C140.172 117.033 140.386 118.148 140.386 119.411C140.386 121.344 140.089 123.139 139.496 124.796C138.926 126.454 137.906 127.894 136.435 129.117C134.988 130.32 133.006 131.267 130.491 131.958C127.976 132.648 124.797 132.993 120.953 132.993H79.6313V120.151L84.187 119.411V100.028L79.6313 99.2881V87.54H125.615ZM117.607 102.099C117.607 101.093 117.394 100.324 116.967 99.7912C116.563 99.2388 116.017 98.8343 115.329 98.5779C114.641 98.3214 113.858 98.1735 112.98 98.134C112.102 98.0945 111.213 98.0748 110.311 98.0748H106.965V106.568H110.311C111.213 106.568 112.102 106.548 112.98 106.509C113.858 106.449 114.641 106.282 115.329 106.005C116.017 105.729 116.563 105.295 116.967 104.703C117.394 104.092 117.607 103.224 117.607 102.099ZM117.607 116.866C117.607 115.86 117.394 115.09 116.967 114.558C116.563 114.025 116.017 113.63 115.329 113.374C114.641 113.117 113.858 112.97 112.98 112.93C112.102 112.891 111.213 112.871 110.311 112.871H106.965V121.364H110.311C111.213 121.364 112.102 121.344 112.98 121.305C113.858 121.245 114.641 121.078 115.329 120.802C116.017 120.525 116.563 120.081 116.967 119.47C117.394 118.858 117.607 117.99 117.607 116.866Z" fill="black"/>
<path d="M203.738 101.123C203.714 101.754 203.702 102.376 203.702 102.987C203.702 103.579 203.702 104.161 203.702 104.733V109.734C203.702 113.916 203.014 117.527 201.638 120.565C200.285 123.583 198.423 126.079 196.05 128.052C193.701 130.005 190.949 131.405 187.793 132.254C184.637 133.102 181.28 133.526 177.721 133.526C174.945 133.526 172.275 133.368 169.713 133.053C167.174 132.757 164.801 132.194 162.594 131.366C160.388 130.518 158.383 129.452 156.579 128.17C154.776 126.868 153.222 125.329 151.917 123.554C150.636 121.758 149.639 119.716 148.927 117.428C148.239 115.14 147.895 112.575 147.895 109.734V101.123L143.34 100.383V87.54H172.916V100.383L168.36 101.123V104.94C168.36 105.433 168.36 105.936 168.36 106.449C168.36 106.943 168.36 107.406 168.36 107.84C168.384 108.274 168.396 108.659 168.396 108.994C168.396 109.33 168.396 109.576 168.396 109.734C168.396 110.227 168.408 110.799 168.431 111.45C168.455 112.101 168.55 112.782 168.716 113.492C168.906 114.183 169.179 114.873 169.535 115.564C169.891 116.254 170.401 116.876 171.065 117.428C171.753 117.961 172.607 118.395 173.628 118.73C174.672 119.065 175.953 119.233 177.472 119.233C178.99 119.233 180.259 119.065 181.28 118.73C182.324 118.395 183.19 117.961 183.878 117.428C184.566 116.876 185.088 116.254 185.444 115.564C185.824 114.873 186.096 114.183 186.263 113.492C186.429 112.782 186.524 112.101 186.547 111.45C186.595 110.799 186.618 110.227 186.618 109.734C186.618 109.576 186.618 109.33 186.618 108.994C186.618 108.659 186.607 108.274 186.583 107.84C186.583 107.406 186.583 106.943 186.583 106.449C186.583 105.936 186.583 105.433 186.583 104.94V101.123L182.027 100.383V87.54H208.293V100.383L203.738 101.123Z" fill="black"/>
<path d="M232.424 110.829V119.411L236.98 120.121V132.993H214.202V120.151L218.757 119.411V101.123L214.202 100.383V87.54H241.536L259.758 110.829V101.182L255.203 100.383V87.54H277.981V100.383L273.425 101.123V119.411L277.981 120.151V132.993H250.611L232.424 110.829Z" fill="black"/>
<path d="M303.464 110.829V119.411L308.02 120.121V132.993H285.242V120.151L289.797 119.411V101.123L285.242 100.383V87.54H312.576L330.798 110.829V101.182L326.243 100.383V87.54H349.021V100.383L344.465 101.123V119.411L349.021 120.151V132.993H321.651L303.464 110.829Z" fill="black"/>
<path d="M370.02 132.993V120.21L374.576 119.263L358.951 101.093L353.185 100.383V87.54H383.58V100.383L380.021 101.093L387.246 110.385L394.471 101.093L390.912 100.383V87.54H421.271V100.383L415.541 101.093L399.916 119.263L404.472 120.21V132.993H370.02Z" fill="black"/>
<path d="M125.615 87.54C129.364 88.2897 132.152 89.5227 133.979 91.239C135.83 92.9554 136.755 95.2636 136.755 98.1636C136.755 100.097 136.506 101.725 136.008 103.046C135.51 104.348 134.881 105.433 134.121 106.301C133.362 107.15 132.532 107.811 131.63 108.284C130.752 108.738 129.934 109.073 129.174 109.29C128.415 109.507 127.762 109.635 127.217 109.675C126.695 109.714 126.422 109.734 126.398 109.734C127.324 109.774 128.308 109.862 129.352 110C130.42 110.139 131.476 110.356 132.52 110.651C133.564 110.947 134.56 111.332 135.51 111.806C136.459 112.279 137.289 112.871 138.001 113.581C138.736 114.272 139.318 115.1 139.745 116.067C140.172 117.033 140.386 118.148 140.386 119.411C140.386 121.344 140.089 123.139 139.496 124.796C138.926 126.454 137.906 127.894 136.435 129.117C134.988 130.32 133.006 131.267 130.491 131.958C127.976 132.648 124.797 132.993 120.953 132.993H79.6313V120.151L84.187 119.411V100.028L79.6313 99.2881V87.54H125.615ZM117.607 102.099C117.607 101.093 117.394 100.324 116.967 99.7912C116.563 99.2388 116.017 98.8343 115.329 98.5779C114.641 98.3214 113.858 98.1735 112.98 98.134C112.102 98.0945 111.213 98.0748 110.311 98.0748H106.965V106.568H110.311C111.213 106.568 112.102 106.548 112.98 106.509C113.858 106.449 114.641 106.282 115.329 106.005C116.017 105.729 116.563 105.295 116.967 104.703C117.394 104.092 117.607 103.224 117.607 102.099ZM117.607 116.866C117.607 115.86 117.394 115.09 116.967 114.558C116.563 114.025 116.017 113.63 115.329 113.374C114.641 113.117 113.858 112.97 112.98 112.93C112.102 112.891 111.213 112.871 110.311 112.871H106.965V121.364H110.311C111.213 121.364 112.102 121.344 112.98 121.305C113.858 121.245 114.641 121.078 115.329 120.802C116.017 120.525 116.563 120.081 116.967 119.47C117.394 118.858 117.607 117.99 117.607 116.866Z" stroke="black" stroke-width="4" mask="url(#path-2-outside-2_262_815)"/>
<path d="M203.738 101.123C203.714 101.754 203.702 102.376 203.702 102.987C203.702 103.579 203.702 104.161 203.702 104.733V109.734C203.702 113.916 203.014 117.527 201.638 120.565C200.285 123.583 198.423 126.079 196.05 128.052C193.701 130.005 190.949 131.405 187.793 132.254C184.637 133.102 181.28 133.526 177.721 133.526C174.945 133.526 172.275 133.368 169.713 133.053C167.174 132.757 164.801 132.194 162.594 131.366C160.388 130.518 158.383 129.452 156.579 128.17C154.776 126.868 153.222 125.329 151.917 123.554C150.636 121.758 149.639 119.716 148.927 117.428C148.239 115.14 147.895 112.575 147.895 109.734V101.123L143.34 100.383V87.54H172.916V100.383L168.36 101.123V104.94C168.36 105.433 168.36 105.936 168.36 106.449C168.36 106.943 168.36 107.406 168.36 107.84C168.384 108.274 168.396 108.659 168.396 108.994C168.396 109.33 168.396 109.576 168.396 109.734C168.396 110.227 168.408 110.799 168.431 111.45C168.455 112.101 168.55 112.782 168.716 113.492C168.906 114.183 169.179 114.873 169.535 115.564C169.891 116.254 170.401 116.876 171.065 117.428C171.753 117.961 172.607 118.395 173.628 118.73C174.672 119.065 175.953 119.233 177.472 119.233C178.99 119.233 180.259 119.065 181.28 118.73C182.324 118.395 183.19 117.961 183.878 117.428C184.566 116.876 185.088 116.254 185.444 115.564C185.824 114.873 186.096 114.183 186.263 113.492C186.429 112.782 186.524 112.101 186.547 111.45C186.595 110.799 186.618 110.227 186.618 109.734C186.618 109.576 186.618 109.33 186.618 108.994C186.618 108.659 186.607 108.274 186.583 107.84C186.583 107.406 186.583 106.943 186.583 106.449C186.583 105.936 186.583 105.433 186.583 104.94V101.123L182.027 100.383V87.54H208.293V100.383L203.738 101.123Z" stroke="black" stroke-width="4" mask="url(#path-2-outside-2_262_815)"/>
<path d="M232.424 110.829V119.411L236.98 120.121V132.993H214.202V120.151L218.757 119.411V101.123L214.202 100.383V87.54H241.536L259.758 110.829V101.182L255.203 100.383V87.54H277.981V100.383L273.425 101.123V119.411L277.981 120.151V132.993H250.611L232.424 110.829Z" stroke="black" stroke-width="4" mask="url(#path-2-outside-2_262_815)"/>
<path d="M303.464 110.829V119.411L308.02 120.121V132.993H285.242V120.151L289.797 119.411V101.123L285.242 100.383V87.54H312.576L330.798 110.829V101.182L326.243 100.383V87.54H349.021V100.383L344.465 101.123V119.411L349.021 120.151V132.993H321.651L303.464 110.829Z" stroke="black" stroke-width="4" mask="url(#path-2-outside-2_262_815)"/>
<path d="M370.02 132.993V120.21L374.576 119.263L358.951 101.093L353.185 100.383V87.54H383.58V100.383L380.021 101.093L387.246 110.385L394.471 101.093L390.912 100.383V87.54H421.271V100.383L415.541 101.093L399.916 119.263L404.472 120.21V132.993H370.02Z" stroke="black" stroke-width="4" mask="url(#path-2-outside-2_262_815)"/>
<mask id="path-3-outside-3_262_815" maskUnits="userSpaceOnUse" x="67.0469" y="77.6133" width="352" height="56" fill="black">
<rect fill="white" x="67.0469" y="77.6133" width="352" height="56"/>
<path d="M118.031 82.6133C121.78 83.3629 124.568 84.596 126.395 86.3123C128.245 88.0286 129.171 90.3368 129.171 93.2368C129.171 95.1702 128.922 96.7978 128.423 98.1195C127.925 99.4216 127.296 100.507 126.537 101.375C125.778 102.223 124.947 102.884 124.046 103.357C123.168 103.811 122.349 104.146 121.59 104.363C120.831 104.58 120.178 104.709 119.632 104.748C119.11 104.788 118.837 104.807 118.814 104.807C119.739 104.847 120.724 104.936 121.768 105.074C122.835 105.212 123.891 105.429 124.935 105.725C125.979 106.021 126.976 106.405 127.925 106.879C128.874 107.352 129.705 107.944 130.416 108.654C131.152 109.345 131.733 110.173 132.16 111.14C132.587 112.107 132.801 113.221 132.801 114.484C132.801 116.417 132.504 118.213 131.911 119.87C131.342 121.527 130.322 122.967 128.85 124.19C127.403 125.394 125.422 126.341 122.907 127.031C120.392 127.721 117.212 128.067 113.368 128.067H72.0469V115.224L76.6025 114.484V95.1011L72.0469 94.3613V82.6133H118.031ZM110.023 97.1726C110.023 96.1665 109.809 95.3971 109.382 94.8644C108.979 94.312 108.433 93.9076 107.745 93.6511C107.057 93.3947 106.274 93.2467 105.396 93.2072C104.518 93.1678 103.628 93.1481 102.726 93.1481H99.3809V101.641H102.726C103.628 101.641 104.518 101.621 105.396 101.582C106.274 101.523 107.057 101.355 107.745 101.079C108.433 100.803 108.979 100.369 109.382 99.7767C109.809 99.1651 110.023 98.2971 110.023 97.1726ZM110.023 111.939C110.023 110.933 109.809 110.164 109.382 109.631C108.979 109.098 108.433 108.704 107.745 108.447C107.057 108.191 106.274 108.043 105.396 108.003C104.518 107.964 103.628 107.944 102.726 107.944H99.3809V116.437H102.726C103.628 116.437 104.518 116.417 105.396 116.378C106.274 116.319 107.057 116.151 107.745 115.875C108.433 115.599 108.979 115.155 109.382 114.543C109.809 113.932 110.023 113.064 110.023 111.939Z"/>
<path d="M196.153 96.196C196.13 96.8273 196.118 97.4488 196.118 98.0604C196.118 98.6522 196.118 99.2342 196.118 99.8063V104.807C196.118 108.99 195.43 112.6 194.053 115.638C192.701 118.656 190.838 121.152 188.466 123.125C186.117 125.078 183.364 126.479 180.208 127.327C177.053 128.175 173.695 128.599 170.136 128.599C167.36 128.599 164.691 128.442 162.128 128.126C159.589 127.83 157.217 127.268 155.01 126.439C152.803 125.591 150.798 124.526 148.995 123.243C147.192 121.941 145.638 120.402 144.333 118.627C143.051 116.832 142.055 114.79 141.343 112.501C140.655 110.213 140.311 107.648 140.311 104.807V96.196L135.755 95.4562V82.6133H165.331V95.4562L160.776 96.196V100.013C160.776 100.507 160.776 101.01 160.776 101.523C160.776 102.016 160.776 102.479 160.776 102.913C160.799 103.347 160.811 103.732 160.811 104.068C160.811 104.403 160.811 104.65 160.811 104.807C160.811 105.301 160.823 105.873 160.847 106.524C160.871 107.175 160.966 107.855 161.132 108.566C161.321 109.256 161.594 109.947 161.95 110.637C162.306 111.327 162.816 111.949 163.481 112.501C164.169 113.034 165.023 113.468 166.043 113.803C167.087 114.139 168.368 114.306 169.887 114.306C171.406 114.306 172.675 114.139 173.695 113.803C174.739 113.468 175.605 113.034 176.293 112.501C176.982 111.949 177.504 111.327 177.859 110.637C178.239 109.947 178.512 109.256 178.678 108.566C178.844 107.855 178.939 107.175 178.963 106.524C179.01 105.873 179.034 105.301 179.034 104.807C179.034 104.65 179.034 104.403 179.034 104.068C179.034 103.732 179.022 103.347 178.998 102.913C178.998 102.479 178.998 102.016 178.998 101.523C178.998 101.01 178.998 100.507 178.998 100.013V96.196L174.443 95.4562V82.6133H200.709V95.4562L196.153 96.196Z"/>
<path d="M224.84 105.902V114.484L229.396 115.194V128.067H206.617V115.224L211.173 114.484V96.196L206.617 95.4562V82.6133H233.951L252.174 105.902V96.2552L247.618 95.4562V82.6133H270.397V95.4562L265.841 96.196V114.484L270.397 115.224V128.067H243.027L224.84 105.902Z"/>
<path d="M295.88 105.902V114.484L300.436 115.194V128.067H277.657V115.224L282.213 114.484V96.196L277.657 95.4562V82.6133H304.991L323.214 105.902V96.2552L318.658 95.4562V82.6133H341.437V95.4562L336.881 96.196V114.484L341.437 115.224V128.067H314.067L295.88 105.902Z"/>
<path d="M362.435 128.067V115.283L366.991 114.336L351.367 96.1665L345.601 95.4562V82.6133H375.996V95.4562L372.436 96.1665L379.661 105.458L386.887 96.1665L383.327 95.4562V82.6133H413.687V95.4562L407.957 96.1665L392.332 114.336L396.888 115.283V128.067H362.435Z"/>
</mask>
<path d="M118.031 82.6133C121.78 83.3629 124.568 84.596 126.395 86.3123C128.245 88.0286 129.171 90.3368 129.171 93.2368C129.171 95.1702 128.922 96.7978 128.423 98.1195C127.925 99.4216 127.296 100.507 126.537 101.375C125.778 102.223 124.947 102.884 124.046 103.357C123.168 103.811 122.349 104.146 121.59 104.363C120.831 104.58 120.178 104.709 119.632 104.748C119.11 104.788 118.837 104.807 118.814 104.807C119.739 104.847 120.724 104.936 121.768 105.074C122.835 105.212 123.891 105.429 124.935 105.725C125.979 106.021 126.976 106.405 127.925 106.879C128.874 107.352 129.705 107.944 130.416 108.654C131.152 109.345 131.733 110.173 132.16 111.14C132.587 112.107 132.801 113.221 132.801 114.484C132.801 116.417 132.504 118.213 131.911 119.87C131.342 121.527 130.322 122.967 128.85 124.19C127.403 125.394 125.422 126.341 122.907 127.031C120.392 127.721 117.212 128.067 113.368 128.067H72.0469V115.224L76.6025 114.484V95.1011L72.0469 94.3613V82.6133H118.031ZM110.023 97.1726C110.023 96.1665 109.809 95.3971 109.382 94.8644C108.979 94.312 108.433 93.9076 107.745 93.6511C107.057 93.3947 106.274 93.2467 105.396 93.2072C104.518 93.1678 103.628 93.1481 102.726 93.1481H99.3809V101.641H102.726C103.628 101.641 104.518 101.621 105.396 101.582C106.274 101.523 107.057 101.355 107.745 101.079C108.433 100.803 108.979 100.369 109.382 99.7767C109.809 99.1651 110.023 98.2971 110.023 97.1726ZM110.023 111.939C110.023 110.933 109.809 110.164 109.382 109.631C108.979 109.098 108.433 108.704 107.745 108.447C107.057 108.191 106.274 108.043 105.396 108.003C104.518 107.964 103.628 107.944 102.726 107.944H99.3809V116.437H102.726C103.628 116.437 104.518 116.417 105.396 116.378C106.274 116.319 107.057 116.151 107.745 115.875C108.433 115.599 108.979 115.155 109.382 114.543C109.809 113.932 110.023 113.064 110.023 111.939Z" fill="#A33A3A"/>
<path d="M196.153 96.196C196.13 96.8273 196.118 97.4488 196.118 98.0604C196.118 98.6522 196.118 99.2342 196.118 99.8063V104.807C196.118 108.99 195.43 112.6 194.053 115.638C192.701 118.656 190.838 121.152 188.466 123.125C186.117 125.078 183.364 126.479 180.208 127.327C177.053 128.175 173.695 128.599 170.136 128.599C167.36 128.599 164.691 128.442 162.128 128.126C159.589 127.83 157.217 127.268 155.01 126.439C152.803 125.591 150.798 124.526 148.995 123.243C147.192 121.941 145.638 120.402 144.333 118.627C143.051 116.832 142.055 114.79 141.343 112.501C140.655 110.213 140.311 107.648 140.311 104.807V96.196L135.755 95.4562V82.6133H165.331V95.4562L160.776 96.196V100.013C160.776 100.507 160.776 101.01 160.776 101.523C160.776 102.016 160.776 102.479 160.776 102.913C160.799 103.347 160.811 103.732 160.811 104.068C160.811 104.403 160.811 104.65 160.811 104.807C160.811 105.301 160.823 105.873 160.847 106.524C160.871 107.175 160.966 107.855 161.132 108.566C161.321 109.256 161.594 109.947 161.95 110.637C162.306 111.327 162.816 111.949 163.481 112.501C164.169 113.034 165.023 113.468 166.043 113.803C167.087 114.139 168.368 114.306 169.887 114.306C171.406 114.306 172.675 114.139 173.695 113.803C174.739 113.468 175.605 113.034 176.293 112.501C176.982 111.949 177.504 111.327 177.859 110.637C178.239 109.947 178.512 109.256 178.678 108.566C178.844 107.855 178.939 107.175 178.963 106.524C179.01 105.873 179.034 105.301 179.034 104.807C179.034 104.65 179.034 104.403 179.034 104.068C179.034 103.732 179.022 103.347 178.998 102.913C178.998 102.479 178.998 102.016 178.998 101.523C178.998 101.01 178.998 100.507 178.998 100.013V96.196L174.443 95.4562V82.6133H200.709V95.4562L196.153 96.196Z" fill="#A33A3A"/>
<path d="M224.84 105.902V114.484L229.396 115.194V128.067H206.617V115.224L211.173 114.484V96.196L206.617 95.4562V82.6133H233.951L252.174 105.902V96.2552L247.618 95.4562V82.6133H270.397V95.4562L265.841 96.196V114.484L270.397 115.224V128.067H243.027L224.84 105.902Z" fill="#A33A3A"/>
<path d="M295.88 105.902V114.484L300.436 115.194V128.067H277.657V115.224L282.213 114.484V96.196L277.657 95.4562V82.6133H304.991L323.214 105.902V96.2552L318.658 95.4562V82.6133H341.437V95.4562L336.881 96.196V114.484L341.437 115.224V128.067H314.067L295.88 105.902Z" fill="#A33A3A"/>
<path d="M362.435 128.067V115.283L366.991 114.336L351.367 96.1665L345.601 95.4562V82.6133H375.996V95.4562L372.436 96.1665L379.661 105.458L386.887 96.1665L383.327 95.4562V82.6133H413.687V95.4562L407.957 96.1665L392.332 114.336L396.888 115.283V128.067H362.435Z" fill="#A33A3A"/>
<path d="M118.031 82.6133C121.78 83.3629 124.568 84.596 126.395 86.3123C128.245 88.0286 129.171 90.3368 129.171 93.2368C129.171 95.1702 128.922 96.7978 128.423 98.1195C127.925 99.4216 127.296 100.507 126.537 101.375C125.778 102.223 124.947 102.884 124.046 103.357C123.168 103.811 122.349 104.146 121.59 104.363C120.831 104.58 120.178 104.709 119.632 104.748C119.11 104.788 118.837 104.807 118.814 104.807C119.739 104.847 120.724 104.936 121.768 105.074C122.835 105.212 123.891 105.429 124.935 105.725C125.979 106.021 126.976 106.405 127.925 106.879C128.874 107.352 129.705 107.944 130.416 108.654C131.152 109.345 131.733 110.173 132.16 111.14C132.587 112.107 132.801 113.221 132.801 114.484C132.801 116.417 132.504 118.213 131.911 119.87C131.342 121.527 130.322 122.967 128.85 124.19C127.403 125.394 125.422 126.341 122.907 127.031C120.392 127.721 117.212 128.067 113.368 128.067H72.0469V115.224L76.6025 114.484V95.1011L72.0469 94.3613V82.6133H118.031ZM110.023 97.1726C110.023 96.1665 109.809 95.3971 109.382 94.8644C108.979 94.312 108.433 93.9076 107.745 93.6511C107.057 93.3947 106.274 93.2467 105.396 93.2072C104.518 93.1678 103.628 93.1481 102.726 93.1481H99.3809V101.641H102.726C103.628 101.641 104.518 101.621 105.396 101.582C106.274 101.523 107.057 101.355 107.745 101.079C108.433 100.803 108.979 100.369 109.382 99.7767C109.809 99.1651 110.023 98.2971 110.023 97.1726ZM110.023 111.939C110.023 110.933 109.809 110.164 109.382 109.631C108.979 109.098 108.433 108.704 107.745 108.447C107.057 108.191 106.274 108.043 105.396 108.003C104.518 107.964 103.628 107.944 102.726 107.944H99.3809V116.437H102.726C103.628 116.437 104.518 116.417 105.396 116.378C106.274 116.319 107.057 116.151 107.745 115.875C108.433 115.599 108.979 115.155 109.382 114.543C109.809 113.932 110.023 113.064 110.023 111.939Z" stroke="#CDA97E" stroke-width="10" mask="url(#path-3-outside-3_262_815)"/>
<path d="M196.153 96.196C196.13 96.8273 196.118 97.4488 196.118 98.0604C196.118 98.6522 196.118 99.2342 196.118 99.8063V104.807C196.118 108.99 195.43 112.6 194.053 115.638C192.701 118.656 190.838 121.152 188.466 123.125C186.117 125.078 183.364 126.479 180.208 127.327C177.053 128.175 173.695 128.599 170.136 128.599C167.36 128.599 164.691 128.442 162.128 128.126C159.589 127.83 157.217 127.268 155.01 126.439C152.803 125.591 150.798 124.526 148.995 123.243C147.192 121.941 145.638 120.402 144.333 118.627C143.051 116.832 142.055 114.79 141.343 112.501C140.655 110.213 140.311 107.648 140.311 104.807V96.196L135.755 95.4562V82.6133H165.331V95.4562L160.776 96.196V100.013C160.776 100.507 160.776 101.01 160.776 101.523C160.776 102.016 160.776 102.479 160.776 102.913C160.799 103.347 160.811 103.732 160.811 104.068C160.811 104.403 160.811 104.65 160.811 104.807C160.811 105.301 160.823 105.873 160.847 106.524C160.871 107.175 160.966 107.855 161.132 108.566C161.321 109.256 161.594 109.947 161.95 110.637C162.306 111.327 162.816 111.949 163.481 112.501C164.169 113.034 165.023 113.468 166.043 113.803C167.087 114.139 168.368 114.306 169.887 114.306C171.406 114.306 172.675 114.139 173.695 113.803C174.739 113.468 175.605 113.034 176.293 112.501C176.982 111.949 177.504 111.327 177.859 110.637C178.239 109.947 178.512 109.256 178.678 108.566C178.844 107.855 178.939 107.175 178.963 106.524C179.01 105.873 179.034 105.301 179.034 104.807C179.034 104.65 179.034 104.403 179.034 104.068C179.034 103.732 179.022 103.347 178.998 102.913C178.998 102.479 178.998 102.016 178.998 101.523C178.998 101.01 178.998 100.507 178.998 100.013V96.196L174.443 95.4562V82.6133H200.709V95.4562L196.153 96.196Z" stroke="#CDA97E" stroke-width="10" mask="url(#path-3-outside-3_262_815)"/>
<path d="M224.84 105.902V114.484L229.396 115.194V128.067H206.617V115.224L211.173 114.484V96.196L206.617 95.4562V82.6133H233.951L252.174 105.902V96.2552L247.618 95.4562V82.6133H270.397V95.4562L265.841 96.196V114.484L270.397 115.224V128.067H243.027L224.84 105.902Z" stroke="#CDA97E" stroke-width="10" mask="url(#path-3-outside-3_262_815)"/>
<path d="M295.88 105.902V114.484L300.436 115.194V128.067H277.657V115.224L282.213 114.484V96.196L277.657 95.4562V82.6133H304.991L323.214 105.902V96.2552L318.658 95.4562V82.6133H341.437V95.4562L336.881 96.196V114.484L341.437 115.224V128.067H314.067L295.88 105.902Z" stroke="#CDA97E" stroke-width="10" mask="url(#path-3-outside-3_262_815)"/>
<path d="M362.435 128.067V115.283L366.991 114.336L351.367 96.1665L345.601 95.4562V82.6133H375.996V95.4562L372.436 96.1665L379.661 105.458L386.887 96.1665L383.327 95.4562V82.6133H413.687V95.4562L407.957 96.1665L392.332 114.336L396.888 115.283V128.067H362.435Z" stroke="#CDA97E" stroke-width="10" mask="url(#path-3-outside-3_262_815)"/>
<path d="M462.332 82.4438C462.332 95.2299 454.115 106.669 442.527 106.669C454.115 106.669 462.332 118.109 462.332 130.894C462.332 118.109 470.548 106.669 482.136 106.669C470.548 106.669 462.332 95.2299 462.332 82.4438Z" fill="black"/>
<path d="M448.476 101.911C455.31 99.5225 460.303 93.1089 462.332 85.4236C464.361 93.1089 469.354 99.5225 476.187 101.911C469.354 104.299 464.361 110.713 462.332 118.398C460.303 110.713 455.31 104.299 448.476 101.911Z" fill="#A33A3A" stroke="black" stroke-width="2"/>
<mask id="path-6-inside-4_262_815" fill="white">
<path fill-rule="evenodd" clip-rule="evenodd" d="M442.527 101.911C443.792 101.911 445.016 102.047 446.194 102.306C454.315 104.094 460.228 111.733 461.871 120.925C462.174 122.618 462.332 124.364 462.332 126.136C462.332 124.364 462.49 122.618 462.792 120.925C464.436 111.733 470.349 104.094 478.47 102.306C479.647 102.047 480.872 101.911 482.136 101.911C480.872 101.911 479.647 101.775 478.47 101.515C470.349 99.7275 464.436 92.0891 462.792 82.8968C462.49 81.2035 462.332 79.4575 462.332 77.6855C462.332 79.4575 462.174 81.2035 461.871 82.8968C460.228 92.0891 454.315 99.7275 446.194 101.515C445.016 101.775 443.792 101.911 442.527 101.911ZM447.752 101.911C451.66 103.093 454.991 105.568 457.535 108.806C459.748 111.623 461.391 115.042 462.332 118.766C463.273 115.042 464.916 111.623 467.128 108.806C469.673 105.568 473.004 103.093 476.911 101.911C473.004 100.729 469.673 98.2537 467.128 95.0152C464.916 92.1988 463.273 88.7799 462.332 85.0556C461.391 88.7799 459.748 92.1988 457.535 95.0152C454.991 98.2537 451.66 100.729 447.752 101.911Z"/>
</mask>
<path fill-rule="evenodd" clip-rule="evenodd" d="M442.527 101.911C443.792 101.911 445.016 102.047 446.194 102.306C454.315 104.094 460.228 111.733 461.871 120.925C462.174 122.618 462.332 124.364 462.332 126.136C462.332 124.364 462.49 122.618 462.792 120.925C464.436 111.733 470.349 104.094 478.47 102.306C479.647 102.047 480.872 101.911 482.136 101.911C480.872 101.911 479.647 101.775 478.47 101.515C470.349 99.7275 464.436 92.0891 462.792 82.8968C462.49 81.2035 462.332 79.4575 462.332 77.6855C462.332 79.4575 462.174 81.2035 461.871 82.8968C460.228 92.0891 454.315 99.7275 446.194 101.515C445.016 101.775 443.792 101.911 442.527 101.911ZM447.752 101.911C451.66 103.093 454.991 105.568 457.535 108.806C459.748 111.623 461.391 115.042 462.332 118.766C463.273 115.042 464.916 111.623 467.128 108.806C469.673 105.568 473.004 103.093 476.911 101.911C473.004 100.729 469.673 98.2537 467.128 95.0152C464.916 92.1988 463.273 88.7799 462.332 85.0556C461.391 88.7799 459.748 92.1988 457.535 95.0152C454.991 98.2537 451.66 100.729 447.752 101.911Z" fill="#BF3235"/>
<path d="M446.194 102.306L445.764 104.259L445.764 104.259L446.194 102.306ZM461.871 120.925L459.903 121.277L459.903 121.277L461.871 120.925ZM462.792 120.925L464.761 121.277L464.761 121.277L462.792 120.925ZM478.47 102.306L478.9 104.259L478.9 104.259L478.47 102.306ZM478.47 101.515L478.9 99.562L478.9 99.562L478.47 101.515ZM462.792 82.8968L464.761 82.5449L464.761 82.5449L462.792 82.8968ZM461.871 82.8968L463.84 83.2488L463.84 83.2488L461.871 82.8968ZM446.194 101.515L445.764 99.562L445.764 99.562L446.194 101.515ZM457.535 108.806L459.108 107.571L459.108 107.571L457.535 108.806ZM447.752 101.911L447.173 99.9964L440.846 101.911L447.173 103.825L447.752 101.911ZM462.332 118.766L460.393 119.256H464.271L462.332 118.766ZM467.128 108.806L465.556 107.571L465.556 107.571L467.128 108.806ZM476.911 101.911L477.49 103.825L483.818 101.911L477.49 99.9964L476.911 101.911ZM467.128 95.0152L465.556 96.2509L465.556 96.2509L467.128 95.0152ZM462.332 85.0556L464.271 84.5656H460.393L462.332 85.0556ZM457.535 95.0152L459.108 96.2509L459.108 96.2509L457.535 95.0152ZM442.527 103.911C443.647 103.911 444.727 104.031 445.764 104.259L446.624 100.353C445.305 100.063 443.936 99.9107 442.527 99.9107V103.911ZM445.764 104.259C452.867 105.823 458.355 112.623 459.903 121.277L463.84 120.573C462.101 110.843 455.762 102.365 446.624 100.353L445.764 104.259ZM459.903 121.277C460.185 122.854 460.332 124.483 460.332 126.136H464.332C464.332 124.246 464.163 122.382 463.84 120.573L459.903 121.277ZM464.332 126.136C464.332 124.483 464.479 122.854 464.761 121.277L460.824 120.573C460.5 122.382 460.332 124.246 460.332 126.136H464.332ZM464.761 121.277C466.308 112.623 471.796 105.823 478.9 104.259L478.04 100.353C468.902 102.365 462.563 110.843 460.824 120.573L464.761 121.277ZM478.9 104.259C479.936 104.031 481.016 103.911 482.136 103.911V99.9107C480.727 99.9107 479.359 100.063 478.04 100.353L478.9 104.259ZM482.136 99.9107C481.016 99.9107 479.936 99.7902 478.9 99.562L478.04 103.468C479.359 103.759 480.727 103.911 482.136 103.911V99.9107ZM478.9 99.562C471.796 97.9982 466.308 91.1994 464.761 82.5449L460.824 83.2488C462.563 92.9788 468.902 101.457 478.04 103.468L478.9 99.562ZM464.761 82.5449C464.479 80.9672 464.332 79.3389 464.332 77.6855H460.332C460.332 79.576 460.5 81.4398 460.824 83.2488L464.761 82.5449ZM460.332 77.6855C460.332 79.3389 460.185 80.9672 459.903 82.5449L463.84 83.2488C464.163 81.4398 464.332 79.576 464.332 77.6855H460.332ZM459.903 82.5449C458.355 91.1994 452.867 97.9982 445.764 99.562L446.624 103.468C455.762 101.457 462.101 92.9788 463.84 83.2488L459.903 82.5449ZM445.764 99.562C444.727 99.7902 443.647 99.9107 442.527 99.9107V103.911C443.936 103.911 445.305 103.759 446.624 103.468L445.764 99.562ZM459.108 107.571C456.347 104.057 452.687 101.314 448.332 99.9964L447.173 103.825C450.633 104.872 453.634 107.078 455.962 110.042L459.108 107.571ZM464.271 118.276C463.267 114.302 461.507 110.625 459.108 107.571L455.962 110.042C457.989 112.621 459.515 115.781 460.393 119.256L464.271 118.276ZM465.556 107.571C463.157 110.625 461.397 114.302 460.393 118.276L464.271 119.256C465.149 115.781 466.675 112.621 468.701 110.042L465.556 107.571ZM476.332 99.9964C471.977 101.314 468.316 104.057 465.556 107.571L468.701 110.042C471.03 107.078 474.031 104.872 477.49 103.825L476.332 99.9964ZM465.556 96.2509C468.316 99.7642 471.977 102.508 476.332 103.825L477.49 99.9964C474.031 98.9497 471.03 96.7433 468.701 93.7796L465.556 96.2509ZM460.393 85.5457C461.397 89.5194 463.157 93.1971 465.556 96.2509L468.701 93.7796C466.675 91.2005 465.149 88.0404 464.271 84.5656L460.393 85.5457ZM459.108 96.2509C461.507 93.1971 463.267 89.5194 464.271 85.5457L460.393 84.5656C459.515 88.0404 457.989 91.2005 455.962 93.7796L459.108 96.2509ZM448.332 103.825C452.687 102.508 456.347 99.7642 459.108 96.2509L455.962 93.7796C453.634 96.7433 450.633 98.9497 447.173 99.9964L448.332 103.825Z" fill="black" mask="url(#path-6-inside-4_262_815)"/>
<path d="M19.8045 82.4438C19.8045 95.2299 11.5879 106.669 0 106.669C11.5879 106.669 19.8045 118.109 19.8045 130.894C19.8045 118.109 28.021 106.669 39.6089 106.669C28.021 106.669 19.8045 95.2299 19.8045 82.4438Z" fill="black"/>
<path d="M5.94893 101.911C12.7823 99.5225 17.7757 93.1089 19.8045 85.4236C21.8332 93.1089 26.8266 99.5225 33.66 101.911C26.8266 104.299 21.8332 110.713 19.8045 118.398C17.7757 110.713 12.7823 104.299 5.94893 101.911Z" fill="#A33A3A" stroke="black" stroke-width="2"/>
<mask id="path-10-inside-5_262_815" fill="white">
<path fill-rule="evenodd" clip-rule="evenodd" d="M0 101.911C1.26446 101.911 2.48877 102.047 3.66665 102.306C11.7873 104.094 17.7007 111.733 19.344 120.925C19.6467 122.618 19.8045 124.364 19.8045 126.136C19.8045 124.364 19.9623 122.618 20.265 120.925C21.9082 111.733 27.8216 104.094 35.9423 102.306C37.1201 102.047 38.3445 101.911 39.6089 101.911C38.3444 101.911 37.1201 101.775 35.9423 101.515C27.8216 99.7275 21.9082 92.0891 20.265 82.8968C19.9623 81.2035 19.8045 79.4575 19.8045 77.6855C19.8045 79.4575 19.6467 81.2035 19.344 82.8968C17.7007 92.0891 11.7873 99.7275 3.66665 101.515C2.48878 101.775 1.26446 101.911 0 101.911ZM5.22505 101.911C9.13244 103.093 12.4634 105.568 15.0078 108.806C17.2206 111.623 18.8632 115.042 19.8045 118.766C20.7457 115.042 22.3883 111.623 24.6011 108.806C27.1456 105.568 30.4765 103.093 34.3839 101.911C30.4765 100.729 27.1456 98.2537 24.6011 95.0152C22.3883 92.1988 20.7457 88.7799 19.8045 85.0556C18.8632 88.7799 17.2206 92.1988 15.0078 95.0152C12.4633 98.2537 9.13243 100.729 5.22505 101.911Z"/>
</mask>
<path fill-rule="evenodd" clip-rule="evenodd" d="M0 101.911C1.26446 101.911 2.48877 102.047 3.66665 102.306C11.7873 104.094 17.7007 111.733 19.344 120.925C19.6467 122.618 19.8045 124.364 19.8045 126.136C19.8045 124.364 19.9623 122.618 20.265 120.925C21.9082 111.733 27.8216 104.094 35.9423 102.306C37.1201 102.047 38.3445 101.911 39.6089 101.911C38.3444 101.911 37.1201 101.775 35.9423 101.515C27.8216 99.7275 21.9082 92.0891 20.265 82.8968C19.9623 81.2035 19.8045 79.4575 19.8045 77.6855C19.8045 79.4575 19.6467 81.2035 19.344 82.8968C17.7007 92.0891 11.7873 99.7275 3.66665 101.515C2.48878 101.775 1.26446 101.911 0 101.911ZM5.22505 101.911C9.13244 103.093 12.4634 105.568 15.0078 108.806C17.2206 111.623 18.8632 115.042 19.8045 118.766C20.7457 115.042 22.3883 111.623 24.6011 108.806C27.1456 105.568 30.4765 103.093 34.3839 101.911C30.4765 100.729 27.1456 98.2537 24.6011 95.0152C22.3883 92.1988 20.7457 88.7799 19.8045 85.0556C18.8632 88.7799 17.2206 92.1988 15.0078 95.0152C12.4633 98.2537 9.13243 100.729 5.22505 101.911Z" fill="#BF3235"/>
<path d="M3.66665 102.306L3.23664 104.259L3.23664 104.259L3.66665 102.306ZM19.344 120.925L17.3752 121.277L17.3752 121.277L19.344 120.925ZM20.265 120.925L22.2337 121.277L22.2337 121.277L20.265 120.925ZM35.9423 102.306L36.3723 104.259L36.3723 104.259L35.9423 102.306ZM35.9423 101.515L36.3722 99.562L36.3722 99.562L35.9423 101.515ZM20.265 82.8968L22.2337 82.5449L22.2337 82.5449L20.265 82.8968ZM19.344 82.8968L21.3127 83.2488L21.3127 83.2488L19.344 82.8968ZM3.66665 101.515L3.23667 99.562L3.23667 99.562L3.66665 101.515ZM15.0078 108.806L16.5805 107.571L16.5805 107.571L15.0078 108.806ZM5.22505 101.911L4.64591 99.9964L-1.68154 101.911L4.64588 103.825L5.22505 101.911ZM19.8045 118.766L17.8654 119.256H21.7435L19.8045 118.766ZM24.6011 108.806L23.0284 107.571L23.0284 107.571L24.6011 108.806ZM34.3839 101.911L34.963 103.825L41.2904 101.911L34.963 99.9964L34.3839 101.911ZM24.6011 95.0152L23.0285 96.2509L23.0285 96.2509L24.6011 95.0152ZM19.8045 85.0556L21.7435 84.5656H17.8654L19.8045 85.0556ZM15.0078 95.0152L16.5804 96.2509L16.5804 96.2509L15.0078 95.0152ZM0 103.911C1.12 103.911 2.20013 104.031 3.23664 104.259L4.09666 100.353C2.77741 100.063 1.40892 99.9107 0 99.9107V103.911ZM3.23664 104.259C10.3401 105.823 15.8281 112.623 17.3752 121.277L21.3127 120.573C19.5734 110.843 13.2346 102.365 4.09666 100.353L3.23664 104.259ZM17.3752 121.277C17.6572 122.854 17.8045 124.483 17.8045 126.136H21.8045C21.8045 124.246 21.6361 122.382 21.3127 120.573L17.3752 121.277ZM21.8045 126.136C21.8045 124.483 21.9517 122.854 22.2337 121.277L18.2962 120.573C17.9728 122.382 17.8045 124.246 17.8045 126.136H21.8045ZM22.2337 121.277C23.7808 112.623 29.2688 105.823 36.3723 104.259L35.5122 100.353C26.3744 102.365 20.0355 110.843 18.2962 120.573L22.2337 121.277ZM36.3723 104.259C37.4088 104.031 38.4889 103.911 39.6089 103.911V99.9107C38.2 99.9107 36.8315 100.063 35.5122 100.353L36.3723 104.259ZM39.6089 99.9107C38.4889 99.9107 37.4088 99.7902 36.3722 99.562L35.5123 103.468C36.8315 103.759 38.2 103.911 39.6089 103.911V99.9107ZM36.3722 99.562C29.2688 97.9982 23.7808 91.1994 22.2337 82.5449L18.2962 83.2488C20.0355 92.9788 26.3744 101.457 35.5123 103.468L36.3722 99.562ZM22.2337 82.5449C21.9517 80.9672 21.8045 79.3389 21.8045 77.6855H17.8045C17.8045 79.576 17.9728 81.4398 18.2962 83.2488L22.2337 82.5449ZM17.8045 77.6855C17.8045 79.3389 17.6572 80.9672 17.3752 82.5449L21.3127 83.2488C21.6361 81.4398 21.8045 79.576 21.8045 77.6855H17.8045ZM17.3752 82.5449C15.8281 91.1994 10.3401 97.9982 3.23667 99.562L4.09664 103.468C13.2345 101.457 19.5734 92.9788 21.3127 83.2488L17.3752 82.5449ZM3.23667 99.562C2.20015 99.7902 1.12001 99.9107 0 99.9107V103.911C1.40891 103.911 2.7774 103.759 4.09664 103.468L3.23667 99.562ZM16.5805 107.571C13.8201 104.057 10.1592 101.314 5.80422 99.9964L4.64588 103.825C8.10566 104.872 11.1066 107.078 13.4351 110.042L16.5805 107.571ZM21.7435 118.276C20.7392 114.302 18.9797 110.625 16.5805 107.571L13.4351 110.042C15.4615 112.621 16.9872 115.781 17.8654 119.256L21.7435 118.276ZM23.0284 107.571C20.6292 110.625 18.8697 114.302 17.8654 118.276L21.7435 119.256C22.6217 115.781 24.1474 112.621 26.1738 110.042L23.0284 107.571ZM33.8047 99.9964C29.4497 101.314 25.7888 104.057 23.0284 107.571L26.1738 110.042C28.5023 107.078 31.5032 104.872 34.963 103.825L33.8047 99.9964ZM23.0285 96.2509C25.7889 99.7642 29.4497 102.508 33.8047 103.825L34.963 99.9964C31.5032 98.9497 28.5023 96.7433 26.1738 93.7796L23.0285 96.2509ZM17.8654 85.5457C18.8697 89.5194 20.6292 93.1971 23.0285 96.2509L26.1738 93.7796C24.1474 91.2005 22.6217 88.0404 21.7435 84.5656L17.8654 85.5457ZM16.5804 96.2509C18.9797 93.1971 20.7392 89.5194 21.7435 85.5457L17.8654 84.5656C16.9872 88.0404 15.4615 91.2005 13.4351 93.7796L16.5804 96.2509ZM5.80419 103.825C10.1592 102.508 13.82 99.7642 16.5804 96.2509L13.4351 93.7796C11.1066 96.7433 8.10569 98.9497 4.64591 99.9964L5.80419 103.825Z" fill="black" mask="url(#path-10-inside-5_262_815)"/>
<path d="M135.899 61.1399H109.449C108.617 59.8252 107.758 58.4299 106.871 56.9538C105.983 55.4776 105.124 53.9439 104.292 52.3524C103.46 50.761 102.684 49.1119 101.963 47.4052C101.242 45.6984 100.632 43.9455 100.133 42.1465H98.6777V61.1399H66.7383V46.1251L72.0615 45.2602V23.8797L66.7383 23.0148V8H102.961C107.758 8 111.903 8.18451 115.396 8.55354C118.889 8.92257 121.856 9.45304 124.296 10.145C126.736 10.8138 128.704 11.6441 130.201 12.6359C131.726 13.6046 132.905 14.7117 133.736 15.9571C134.596 17.1795 135.164 18.5288 135.441 20.0049C135.746 21.458 135.899 23.0033 135.899 24.6408C135.899 26.3014 135.705 27.8121 135.317 29.1729C134.956 30.5107 134.305 31.7446 133.362 32.8747C132.419 34.0049 131.13 35.0428 129.494 35.9884C127.859 36.911 125.779 37.7874 123.256 38.6177C123.783 39.5403 124.573 40.6243 125.627 41.8698C126.68 43.0922 127.817 44.3492 129.037 45.6408C130.257 46.9093 131.477 48.1548 132.697 49.3772C133.944 50.5765 135.012 51.6029 135.899 52.4562V61.1399ZM98.6777 31.9406C100.286 31.9406 101.741 31.883 103.044 31.7677C104.375 31.6523 105.498 31.3871 106.413 30.9719C107.356 30.5568 108.077 29.9456 108.576 29.1383C109.075 28.3311 109.324 27.2471 109.324 25.8863C109.324 24.5486 109.075 23.4876 108.576 22.7034C108.077 21.8962 107.356 21.2734 106.413 20.8352C105.498 20.397 104.375 20.1087 103.044 19.9703C101.741 19.8319 100.286 19.7627 98.6777 19.7627V31.9406Z" fill="black"/>
<path d="M195.403 61.1399L193.157 52.2141H175.773L173.569 61.1399H149.906V43.7034L155.021 42.8385L167.289 8H201.641L213.951 42.8385L219.066 43.7034V61.1399H195.403ZM179.35 40.3475H189.58L184.465 20.3163L179.35 40.3475Z" fill="black"/>
<path d="M255.53 35.2273V45.2602L260.854 46.0905V61.1399H234.237V46.1251L239.561 45.2602V23.8797L234.237 23.0148V8H266.177L287.47 35.2273V23.9489L282.147 23.0148V8H308.763V23.0148L303.44 23.8797V45.2602L308.763 46.1251V61.1399H276.782L255.53 35.2273Z" fill="black"/>
<path d="M374.089 8C378.109 8.71499 381.727 9.75288 384.943 11.1137C388.16 12.4514 390.891 14.1697 393.136 16.2685C395.41 18.3674 397.143 20.8814 398.335 23.8105C399.555 26.7166 400.165 30.0955 400.165 33.9472C400.165 39.0444 399.139 43.3343 397.087 46.817C395.035 50.2767 392.138 53.0674 388.395 55.1893C384.68 57.3112 380.202 58.8335 374.962 59.756C369.722 60.6786 363.928 61.1399 357.579 61.1399H325.639V46.1251L330.962 45.2602V22.5996L325.639 21.7347V8H374.089ZM361.654 45.2602C364.621 45.2602 366.908 44.995 368.516 44.4645C370.124 43.9109 371.289 43.1383 372.01 42.1465C372.758 41.1548 373.188 39.967 373.299 38.5831C373.437 37.1993 373.507 35.654 373.507 33.9472C373.507 32.2405 373.437 30.6952 373.299 29.3113C373.188 27.9044 372.758 26.7051 372.01 25.7133C371.289 24.7215 370.124 23.9604 368.516 23.4299C366.908 22.8764 364.621 22.5996 361.654 22.5996H357.579V45.2602H361.654Z" fill="black"/>
<path d="M415.128 8H452.391V23.0148L447.067 23.8797V45.2602L452.391 46.1251V61.1399H415.128V46.1251L420.451 45.2602V23.8797L415.128 23.0148V8Z" fill="black"/>
<path d="M129.074 61.1399H102.624C101.793 59.8252 100.933 58.4299 100.046 56.9538C99.1586 55.4776 98.2991 53.9439 97.4674 52.3524C96.6356 50.761 95.8593 49.1119 95.1385 47.4052C94.4176 45.6984 93.8077 43.9455 93.3086 42.1465H91.853V61.1399H59.9136V46.1251L65.2368 45.2602V23.8797L59.9136 23.0148V8H96.1366C100.933 8 105.078 8.18451 108.571 8.55354C112.065 8.92257 115.031 9.45304 117.471 10.145C119.911 10.8138 121.879 11.6441 123.377 12.6359C124.901 13.6046 126.08 14.7117 126.912 15.9571C127.771 17.1795 128.339 18.5288 128.617 20.0049C128.922 21.458 129.074 23.0033 129.074 24.6408C129.074 26.3014 128.88 27.8121 128.492 29.1729C128.131 30.5107 127.48 31.7446 126.537 32.8747C125.595 34.0049 124.305 35.0428 122.67 35.9884C121.034 36.911 118.954 37.7874 116.431 38.6177C116.958 39.5403 117.748 40.6243 118.802 41.8698C119.856 43.0922 120.992 44.3492 122.212 45.6408C123.432 46.9093 124.652 48.1548 125.872 49.3772C127.12 50.5765 128.187 51.6029 129.074 52.4562V61.1399ZM91.853 31.9406C93.4611 31.9406 94.9167 31.883 96.2198 31.7677C97.5506 31.6523 98.6734 31.3871 99.5884 30.9719C100.531 30.5568 101.252 29.9456 101.751 29.1383C102.25 28.3311 102.5 27.2471 102.5 25.8863C102.5 24.5486 102.25 23.4876 101.751 22.7034C101.252 21.8962 100.531 21.2734 99.5884 20.8352C98.6734 20.397 97.5506 20.1087 96.2198 19.9703C94.9167 19.8319 93.4611 19.7627 91.853 19.7627V31.9406Z" fill="black"/>
<path d="M188.578 61.1399L186.332 52.2141H168.949L166.744 61.1399H143.081V43.7034L148.196 42.8385L160.465 8H194.816L207.126 42.8385L212.242 43.7034V61.1399H188.578ZM172.525 40.3475H182.756L177.64 20.3163L172.525 40.3475Z" fill="black"/>
<path d="M248.706 35.2273V45.2602L254.029 46.0905V61.1399H227.413V46.1251L232.736 45.2602V23.8797L227.413 23.0148V8H259.352L280.645 35.2273V23.9489L275.322 23.0148V8H301.938V23.0148L296.615 23.8797V45.2602L301.938 46.1251V61.1399H269.957L248.706 35.2273Z" fill="black"/>
<path d="M367.264 8C371.284 8.71499 374.903 9.75288 378.119 11.1137C381.335 12.4514 384.066 14.1697 386.312 16.2685C388.585 18.3674 390.318 20.8814 391.51 23.8105C392.73 26.7166 393.34 30.0955 393.34 33.9472C393.34 39.0444 392.314 43.3343 390.262 46.817C388.211 50.2767 385.313 53.0674 381.571 55.1893C377.855 57.3112 373.378 58.8335 368.138 59.756C362.898 60.6786 357.103 61.1399 350.754 61.1399H318.814V46.1251L324.138 45.2602V22.5996L318.814 21.7347V8H367.264ZM354.83 45.2602C357.796 45.2602 360.083 44.995 361.692 44.4645C363.3 43.9109 364.464 43.1383 365.185 42.1465C365.934 41.1548 366.363 39.967 366.474 38.5831C366.613 37.1993 366.682 35.654 366.682 33.9472C366.682 32.2405 366.613 30.6952 366.474 29.3113C366.363 27.9044 365.934 26.7051 365.185 25.7133C364.464 24.7215 363.3 23.9604 361.692 23.4299C360.083 22.8764 357.796 22.5996 354.83 22.5996H350.754V45.2602H354.83Z" fill="black"/>
<path d="M408.303 8H445.566V23.0148L440.243 23.8797V45.2602L445.566 46.1251V61.1399H408.303V46.1251L413.626 45.2602V23.8797L408.303 23.0148V8Z" fill="black"/>
<mask id="path-14-outside-6_262_815" maskUnits="userSpaceOnUse" x="52.6377" y="0" width="389" height="63" fill="black">
<rect fill="white" x="52.6377" width="389" height="63"/>
<path d="M125.446 57.7095H99.5132C98.6977 56.4797 97.855 55.1744 96.9852 53.7936C96.1153 52.4127 95.2727 50.978 94.4572 49.4893C93.6417 48.0006 92.8805 46.458 92.1738 44.8614C91.467 43.2648 90.869 41.6251 90.3797 39.9422H88.9526V57.7095H57.6377V43.664L62.8568 42.8549V22.8546L57.6377 22.0455V8H93.1524C97.855 8 101.919 8.1726 105.344 8.51781C108.769 8.86301 111.678 9.35924 114.07 10.0065C116.462 10.6322 118.392 11.4089 119.86 12.3366C121.355 13.2428 122.51 14.2784 123.326 15.4435C124.168 16.587 124.726 17.8491 124.997 19.2299C125.296 20.5892 125.446 22.0347 125.446 23.5666C125.446 25.12 125.256 26.5332 124.875 27.8061C124.522 29.0575 123.883 30.2118 122.959 31.269C122.034 32.3261 120.77 33.297 119.167 34.1816C117.563 35.0446 115.524 35.8645 113.05 36.6412C113.567 37.5042 114.342 38.5183 115.375 39.6833C116.407 40.8268 117.522 42.0027 118.718 43.2109C119.914 44.3975 121.11 45.5626 122.306 46.7061C123.529 47.828 124.576 48.7881 125.446 49.5864V57.7095ZM88.9526 30.3952C90.5292 30.3952 91.9563 30.3412 93.2339 30.2333C94.5387 30.1255 95.6396 29.8773 96.5367 29.489C97.4609 29.1006 98.1677 28.5289 98.6569 27.7738C99.1462 27.0186 99.3909 26.0046 99.3909 24.7316C99.3909 23.4803 99.1462 22.4878 98.6569 21.7543C98.1677 20.9991 97.4609 20.4166 96.5367 20.0066C95.6396 19.5967 94.5387 19.327 93.2339 19.1976C91.9563 19.0681 90.5292 19.0034 88.9526 19.0034V30.3952Z"/>
<path d="M183.786 57.7095L181.584 49.3598H164.541L162.379 57.7095H139.179V41.3986L144.194 40.5895L156.223 8H189.902L201.972 40.5895L206.987 41.3986V57.7095H183.786ZM168.047 38.2593H178.078L173.062 19.5212L168.047 38.2593Z"/>
<path d="M242.738 33.4696V42.8549L247.957 43.6316V57.7095H221.861V43.664L227.081 42.8549V22.8546L221.861 22.0455V8H253.176L274.053 33.4696V22.9193L268.834 22.0455V8H294.93V22.0455L289.71 22.8546V42.8549L294.93 43.664V57.7095H263.574L242.738 33.4696Z"/>
<path d="M358.978 8C362.92 8.66883 366.467 9.63972 369.621 10.9127C372.774 12.164 375.451 13.7714 377.653 15.7347C379.882 17.6981 381.581 20.0498 382.75 22.7899C383.946 25.5084 384.544 28.6691 384.544 32.2722C384.544 37.0403 383.538 41.0533 381.527 44.3112C379.515 47.5475 376.675 50.1581 373.005 52.1431C369.362 54.128 364.972 55.552 359.835 56.415C354.697 57.278 349.016 57.7095 342.791 57.7095H311.476V43.664L316.695 42.8549V21.6572L311.476 20.8481V8H358.978ZM346.787 42.8549C349.695 42.8549 351.938 42.6068 353.515 42.1105C355.091 41.5927 356.233 40.87 356.94 39.9422C357.674 39.0145 358.095 37.9034 358.204 36.6088C358.34 35.3143 358.407 33.8688 358.407 32.2722C358.407 30.6756 358.34 29.2301 358.204 27.9356C358.095 26.6195 357.674 25.4976 356.94 24.5698C356.233 23.6421 355.091 22.9301 353.515 22.4339C351.938 21.9161 349.695 21.6572 346.787 21.6572H342.791V42.8549H346.787Z"/>
<path d="M399.215 8H435.749V22.0455L430.53 22.8546V42.8549L435.749 43.664V57.7095H399.215V43.664L404.434 42.8549V22.8546L399.215 22.0455V8Z"/>
</mask>
<path d="M125.446 57.7095H99.5132C98.6977 56.4797 97.855 55.1744 96.9852 53.7936C96.1153 52.4127 95.2727 50.978 94.4572 49.4893C93.6417 48.0006 92.8805 46.458 92.1738 44.8614C91.467 43.2648 90.869 41.6251 90.3797 39.9422H88.9526V57.7095H57.6377V43.664L62.8568 42.8549V22.8546L57.6377 22.0455V8H93.1524C97.855 8 101.919 8.1726 105.344 8.51781C108.769 8.86301 111.678 9.35924 114.07 10.0065C116.462 10.6322 118.392 11.4089 119.86 12.3366C121.355 13.2428 122.51 14.2784 123.326 15.4435C124.168 16.587 124.726 17.8491 124.997 19.2299C125.296 20.5892 125.446 22.0347 125.446 23.5666C125.446 25.12 125.256 26.5332 124.875 27.8061C124.522 29.0575 123.883 30.2118 122.959 31.269C122.034 32.3261 120.77 33.297 119.167 34.1816C117.563 35.0446 115.524 35.8645 113.05 36.6412C113.567 37.5042 114.342 38.5183 115.375 39.6833C116.407 40.8268 117.522 42.0027 118.718 43.2109C119.914 44.3975 121.11 45.5626 122.306 46.7061C123.529 47.828 124.576 48.7881 125.446 49.5864V57.7095ZM88.9526 30.3952C90.5292 30.3952 91.9563 30.3412 93.2339 30.2333C94.5387 30.1255 95.6396 29.8773 96.5367 29.489C97.4609 29.1006 98.1677 28.5289 98.6569 27.7738C99.1462 27.0186 99.3909 26.0046 99.3909 24.7316C99.3909 23.4803 99.1462 22.4878 98.6569 21.7543C98.1677 20.9991 97.4609 20.4166 96.5367 20.0066C95.6396 19.5967 94.5387 19.327 93.2339 19.1976C91.9563 19.0681 90.5292 19.0034 88.9526 19.0034V30.3952Z" fill="#A33A3A"/>
<path d="M183.786 57.7095L181.584 49.3598H164.541L162.379 57.7095H139.179V41.3986L144.194 40.5895L156.223 8H189.902L201.972 40.5895L206.987 41.3986V57.7095H183.786ZM168.047 38.2593H178.078L173.062 19.5212L168.047 38.2593Z" fill="#A33A3A"/>
<path d="M242.738 33.4696V42.8549L247.957 43.6316V57.7095H221.861V43.664L227.081 42.8549V22.8546L221.861 22.0455V8H253.176L274.053 33.4696V22.9193L268.834 22.0455V8H294.93V22.0455L289.71 22.8546V42.8549L294.93 43.664V57.7095H263.574L242.738 33.4696Z" fill="#A33A3A"/>
<path d="M358.978 8C362.92 8.66883 366.467 9.63972 369.621 10.9127C372.774 12.164 375.451 13.7714 377.653 15.7347C379.882 17.6981 381.581 20.0498 382.75 22.7899C383.946 25.5084 384.544 28.6691 384.544 32.2722C384.544 37.0403 383.538 41.0533 381.527 44.3112C379.515 47.5475 376.675 50.1581 373.005 52.1431C369.362 54.128 364.972 55.552 359.835 56.415C354.697 57.278 349.016 57.7095 342.791 57.7095H311.476V43.664L316.695 42.8549V21.6572L311.476 20.8481V8H358.978ZM346.787 42.8549C349.695 42.8549 351.938 42.6068 353.515 42.1105C355.091 41.5927 356.233 40.87 356.94 39.9422C357.674 39.0145 358.095 37.9034 358.204 36.6088C358.34 35.3143 358.407 33.8688 358.407 32.2722C358.407 30.6756 358.34 29.2301 358.204 27.9356C358.095 26.6195 357.674 25.4976 356.94 24.5698C356.233 23.6421 355.091 22.9301 353.515 22.4339C351.938 21.9161 349.695 21.6572 346.787 21.6572H342.791V42.8549H346.787Z" fill="#A33A3A"/>
<path d="M399.215 8H435.749V22.0455L430.53 22.8546V42.8549L435.749 43.664V57.7095H399.215V43.664L404.434 42.8549V22.8546L399.215 22.0455V8Z" fill="#A33A3A"/>
<path d="M125.446 57.7095H99.5132C98.6977 56.4797 97.855 55.1744 96.9852 53.7936C96.1153 52.4127 95.2727 50.978 94.4572 49.4893C93.6417 48.0006 92.8805 46.458 92.1738 44.8614C91.467 43.2648 90.869 41.6251 90.3797 39.9422H88.9526V57.7095H57.6377V43.664L62.8568 42.8549V22.8546L57.6377 22.0455V8H93.1524C97.855 8 101.919 8.1726 105.344 8.51781C108.769 8.86301 111.678 9.35924 114.07 10.0065C116.462 10.6322 118.392 11.4089 119.86 12.3366C121.355 13.2428 122.51 14.2784 123.326 15.4435C124.168 16.587 124.726 17.8491 124.997 19.2299C125.296 20.5892 125.446 22.0347 125.446 23.5666C125.446 25.12 125.256 26.5332 124.875 27.8061C124.522 29.0575 123.883 30.2118 122.959 31.269C122.034 32.3261 120.77 33.297 119.167 34.1816C117.563 35.0446 115.524 35.8645 113.05 36.6412C113.567 37.5042 114.342 38.5183 115.375 39.6833C116.407 40.8268 117.522 42.0027 118.718 43.2109C119.914 44.3975 121.11 45.5626 122.306 46.7061C123.529 47.828 124.576 48.7881 125.446 49.5864V57.7095ZM88.9526 30.3952C90.5292 30.3952 91.9563 30.3412 93.2339 30.2333C94.5387 30.1255 95.6396 29.8773 96.5367 29.489C97.4609 29.1006 98.1677 28.5289 98.6569 27.7738C99.1462 27.0186 99.3909 26.0046 99.3909 24.7316C99.3909 23.4803 99.1462 22.4878 98.6569 21.7543C98.1677 20.9991 97.4609 20.4166 96.5367 20.0066C95.6396 19.5967 94.5387 19.327 93.2339 19.1976C91.9563 19.0681 90.5292 19.0034 88.9526 19.0034V30.3952Z" stroke="#CDA97E" stroke-width="10" mask="url(#path-14-outside-6_262_815)"/>
<path d="M183.786 57.7095L181.584 49.3598H164.541L162.379 57.7095H139.179V41.3986L144.194 40.5895L156.223 8H189.902L201.972 40.5895L206.987 41.3986V57.7095H183.786ZM168.047 38.2593H178.078L173.062 19.5212L168.047 38.2593Z" stroke="#CDA97E" stroke-width="10" mask="url(#path-14-outside-6_262_815)"/>
<path d="M242.738 33.4696V42.8549L247.957 43.6316V57.7095H221.861V43.664L227.081 42.8549V22.8546L221.861 22.0455V8H253.176L274.053 33.4696V22.9193L268.834 22.0455V8H294.93V22.0455L289.71 22.8546V42.8549L294.93 43.664V57.7095H263.574L242.738 33.4696Z" stroke="#CDA97E" stroke-width="10" mask="url(#path-14-outside-6_262_815)"/>
<path d="M358.978 8C362.92 8.66883 366.467 9.63972 369.621 10.9127C372.774 12.164 375.451 13.7714 377.653 15.7347C379.882 17.6981 381.581 20.0498 382.75 22.7899C383.946 25.5084 384.544 28.6691 384.544 32.2722C384.544 37.0403 383.538 41.0533 381.527 44.3112C379.515 47.5475 376.675 50.1581 373.005 52.1431C369.362 54.128 364.972 55.552 359.835 56.415C354.697 57.278 349.016 57.7095 342.791 57.7095H311.476V43.664L316.695 42.8549V21.6572L311.476 20.8481V8H358.978ZM346.787 42.8549C349.695 42.8549 351.938 42.6068 353.515 42.1105C355.091 41.5927 356.233 40.87 356.94 39.9422C357.674 39.0145 358.095 37.9034 358.204 36.6088C358.34 35.3143 358.407 33.8688 358.407 32.2722C358.407 30.6756 358.34 29.2301 358.204 27.9356C358.095 26.6195 357.674 25.4976 356.94 24.5698C356.233 23.6421 355.091 22.9301 353.515 22.4339C351.938 21.9161 349.695 21.6572 346.787 21.6572H342.791V42.8549H346.787Z" stroke="#CDA97E" stroke-width="10" mask="url(#path-14-outside-6_262_815)"/>
<path d="M399.215 8H435.749V22.0455L430.53 22.8546V42.8549L435.749 43.664V57.7095H399.215V43.664L404.434 42.8549V22.8546L399.215 22.0455V8Z" stroke="#CDA97E" stroke-width="10" mask="url(#path-14-outside-6_262_815)"/>
</svg>
