<svg width="532" height="355" viewBox="0 0 532 355" fill="none" xmlns="http://www.w3.org/2000/svg">
<path d="M530.564 333.427L498.564 354.427H21.564L3.06396 47.4272L21.564 28.4272H530.564V333.427Z" fill="#030303" stroke="#252424"/>
<path d="M479.831 45.2437H5.16938C3.41898 45.2437 2 46.6626 2 48.413V349.318C2 351.068 3.41898 352.487 5.16938 352.487H479.831C481.581 352.487 483 351.068 483 349.318V48.413C483 46.6626 481.581 45.2437 479.831 45.2437Z" fill="#BF3A2A" stroke="black" stroke-width="4" stroke-miterlimit="10"/>
<path d="M470.882 51.9556H12.6274C10.877 51.9556 9.45801 53.3745 9.45801 55.1249V338.878C9.45801 340.628 10.877 342.047 12.6274 342.047H470.882C472.633 342.047 474.052 340.628 474.052 338.878V55.1249C474.052 53.3745 472.633 51.9556 470.882 51.9556Z" fill="black"/>
<path d="M377.851 51.9556H368.902V345.03H377.851V51.9556Z" fill="#BD3928"/>
<path d="M34.0669 74.3275C34.0669 74.3275 28.101 75.819 28.8468 79.5477C29.5925 83.2764 22.1351 144.427 22.1351 155.613C22.1351 166.799 19.8979 303.269 28.101 313.709C28.101 313.709 24.3723 321.166 40.0328 323.404C55.6933 325.641 156.368 332.352 156.368 332.352C156.368 332.352 247.348 333.098 274.194 329.369C301.041 325.641 342.056 322.658 342.056 322.658C342.056 322.658 354.734 324.895 354.734 309.235C354.734 293.574 357.717 270.456 358.462 257.033C359.208 243.61 355.479 202.594 358.462 191.408C361.445 180.222 356.971 107.14 354.734 100.428C352.496 93.7167 353.988 81.0391 353.988 81.0391C353.988 81.0391 357.717 75.819 348.768 74.3275C339.819 72.836 202.603 63.8872 202.603 63.8872C202.603 63.8872 64.6421 67.6159 46.7444 73.5818L34.0669 74.3275Z" fill="#EBAE53" stroke="black" stroke-miterlimit="10"/>
<path d="M41.8968 80.5174C41.8968 80.5174 36.2292 81.9343 36.9377 85.4766C37.6461 89.0188 30.5616 147.112 30.5616 157.738C30.5616 168.365 28.4363 298.011 36.2292 307.93C36.2292 307.93 32.687 315.014 47.5644 317.14C62.4419 319.265 158.083 325.641 158.083 325.641C158.083 325.641 244.513 326.349 270.018 322.807C295.522 319.265 334.487 316.431 334.487 316.431C334.487 316.431 346.53 318.556 346.53 303.679C346.53 288.802 349.364 266.84 350.072 254.088C350.781 241.335 347.239 202.371 350.072 191.744C352.906 181.117 348.656 111.689 346.53 105.313C344.405 98.9371 345.784 86.8935 345.784 86.8935C345.784 86.8935 349.327 81.9343 340.825 80.5174C332.324 79.1005 201.969 70.5991 201.969 70.5991C201.969 70.5991 70.9805 74.1414 53.9405 79.809L41.8968 80.5174Z" fill="#F2F2F2" stroke="black" stroke-width="2" stroke-miterlimit="10"/>
<path d="M368.902 51.9556C368.902 54.9385 353.078 75.8191 353.078 75.8191C354.733 78.8021 353.764 85.1334 353.503 89.4288C353.242 93.7243 355.293 103.143 355.293 103.143C355.293 103.143 359.7 160.281 359.454 165.785C359.208 171.288 360.699 183.213 359.208 191.416C357.716 199.619 357.716 202.975 357.329 212.483C356.941 221.991 358.134 231.648 358.298 240.992C358.462 250.336 351.005 294.327 351.005 294.327L342.056 322.665L228.704 328.631L58.6761 321.174L31.8296 315.954L28.8466 318.795L12.4404 342.054H368.902V51.9556Z" fill="#F3B354" stroke="black" stroke-width="2" stroke-miterlimit="10"/>
<path d="M469.688 57.9214H385.942C383.533 57.9214 381.58 59.8746 381.58 62.2839V340.667C381.58 343.077 383.533 345.03 385.942 345.03H469.688C472.098 345.03 474.051 343.077 474.051 340.667V62.2839C474.051 59.8746 472.098 57.9214 469.688 57.9214Z" fill="#F5B34F" stroke="black" stroke-miterlimit="10"/>
<path d="M464.513 61.6499H388.135C386.162 61.6499 384.563 63.2492 384.563 65.222V209.462C384.563 211.435 386.162 213.034 388.135 213.034H464.513C466.486 213.034 468.085 211.435 468.085 209.462V65.222C468.085 63.2492 466.486 61.6499 464.513 61.6499Z" fill="#040201"/>
<path d="M462.977 65.3789H391.908C389.911 65.3789 388.292 66.9982 388.292 68.9957V207.181C388.292 209.178 389.911 210.798 391.908 210.798H462.977C464.975 210.798 466.594 209.178 466.594 207.181V68.9957C466.594 66.9982 464.975 65.3789 462.977 65.3789Z" fill="#BF3B2C" stroke="black" stroke-miterlimit="10"/>
<path d="M426.697 135.478C443.377 135.478 456.899 121.956 456.899 105.276C456.899 88.5953 443.377 75.0732 426.697 75.0732C410.017 75.0732 396.495 88.5953 396.495 105.276C396.495 121.956 410.017 135.478 426.697 135.478Z" fill="#040303"/>
<path d="M426.697 133.971C442.545 133.971 455.393 121.124 455.393 105.276C455.393 89.4272 442.545 76.5796 426.697 76.5796C410.849 76.5796 398.001 89.4272 398.001 105.276C398.001 121.124 410.849 133.971 426.697 133.971Z" fill="#CCCCCC" stroke="black" stroke-miterlimit="10"/>
<path d="M425.952 122.801C436.042 122.801 444.222 114.621 444.222 104.53C444.222 94.4398 436.042 86.2598 425.952 86.2598C415.861 86.2598 407.681 94.4398 407.681 104.53C407.681 114.621 415.861 122.801 425.952 122.801Z" fill="#CCCCCC" stroke="#040303" stroke-width="2" stroke-miterlimit="10"/>
<path d="M426.111 87.9125C425.416 85.5411 422.93 84.1819 420.559 84.8767C418.187 85.5715 416.828 88.0572 417.523 90.4287L426.539 121.202C427.234 123.573 429.719 124.932 432.091 124.238C434.462 123.543 435.822 121.057 435.127 118.686L426.111 87.9125Z" fill="#CCCCCC" stroke="#040303" stroke-miterlimit="10"/>
<path d="M426.697 76.9375H425.206V82.1577H426.697V76.9375Z" fill="#040303"/>
<path d="M448.324 103.784V105.275H453.544V103.784H448.324Z" fill="#040303"/>
<path d="M445.948 115.364L445.279 116.697L449.946 119.037L450.614 117.703L445.948 115.364Z" fill="#040303"/>
<path d="M436.541 123.084L435.288 123.889L438.107 128.274L439.36 127.469L436.541 123.084Z" fill="#040303"/>
<path d="M426.324 126.529H424.833V131.749H426.324V126.529Z" fill="#040303"/>
<path d="M415.858 123.777L414.524 123.109L412.185 127.775L413.518 128.444L415.858 123.777Z" fill="#040303"/>
<path d="M407.506 115.612L406.498 114.514L402.652 118.044L403.661 119.142L407.506 115.612Z" fill="#040303"/>
<path d="M404.015 105.564L403.962 104.073L398.746 104.259L398.799 105.75L404.015 105.564Z" fill="#040303"/>
<path d="M406.711 94.3875L407.606 93.1943L403.43 90.0622L402.535 91.2554L406.711 94.3875Z" fill="#040303"/>
<path d="M414.515 85.9146L415.849 85.2461L413.509 80.5797L412.176 81.2482L414.515 85.9146Z" fill="#040303"/>
<path d="M440.79 81.6366L439.597 80.7417L436.465 84.9178L437.658 85.8127L440.79 81.6366Z" fill="#040303"/>
<path d="M444.944 92.7175L445.613 94.0508L450.279 91.711L449.611 90.3777L444.944 92.7175Z" fill="#040303"/>
<path d="M425.951 200.357C442.632 200.357 456.154 186.835 456.154 170.155C456.154 153.475 442.632 139.953 425.951 139.953C409.271 139.953 395.749 153.475 395.749 170.155C395.749 186.835 409.271 200.357 425.951 200.357Z" fill="#040303"/>
<path d="M425.951 198.851C441.8 198.851 454.647 186.003 454.647 170.155C454.647 154.307 441.8 141.459 425.951 141.459C410.103 141.459 397.255 154.307 397.255 170.155C397.255 186.003 410.103 198.851 425.951 198.851Z" fill="#CCCCCC" stroke="black" stroke-miterlimit="10"/>
<path d="M425.206 187.68C435.296 187.68 443.476 179.5 443.476 169.409C443.476 159.319 435.296 151.139 425.206 151.139C415.115 151.139 406.935 159.319 406.935 169.409C406.935 179.5 415.115 187.68 425.206 187.68Z" fill="#CCCCCC" stroke="#040303" stroke-width="2" stroke-miterlimit="10"/>
<path d="M411.016 161.26C408.614 160.678 406.196 162.153 405.614 164.555C405.032 166.956 406.507 169.375 408.909 169.957L440.074 177.508C442.475 178.09 444.894 176.615 445.476 174.213C446.058 171.811 444.583 169.393 442.181 168.811L411.016 161.26Z" fill="#CCCCCC" stroke="#040303" stroke-miterlimit="10"/>
<path d="M425.951 141.817H424.459V147.037H425.951V141.817Z" fill="#040303"/>
<path d="M447.578 168.663V170.155H452.798V168.663H447.578Z" fill="#040303"/>
<path d="M445.204 180.242L444.536 181.575L449.202 183.915L449.871 182.582L445.204 180.242Z" fill="#040303"/>
<path d="M435.825 187.844L434.572 188.649L437.391 193.034L438.644 192.228L435.825 187.844Z" fill="#040303"/>
<path d="M425.578 191.408H424.087V196.628H425.578V191.408Z" fill="#040303"/>
<path d="M415.112 188.659L413.779 187.99L411.439 192.657L412.772 193.325L415.112 188.659Z" fill="#040303"/>
<path d="M406.762 180.496L405.753 179.397L401.908 182.927L402.916 184.026L406.762 180.496Z" fill="#040303"/>
<path d="M403.269 170.449L403.216 168.958L397.999 169.144L398.053 170.634L403.269 170.449Z" fill="#040303"/>
<path d="M405.965 159.266L406.86 158.073L402.684 154.941L401.789 156.134L405.965 159.266Z" fill="#040303"/>
<path d="M413.776 150.795L415.109 150.126L412.769 145.46L411.436 146.129L413.776 150.795Z" fill="#040303"/>
<path d="M440.045 146.515L438.852 145.621L435.719 149.797L436.913 150.692L440.045 146.515Z" fill="#040303"/>
<path d="M444.198 157.602L444.867 158.936L449.533 156.596L448.865 155.262L444.198 157.602Z" fill="#040303"/>
<path d="M410.224 337.2C416.158 337.2 420.97 332.275 420.97 326.2C420.97 320.125 416.158 315.201 410.224 315.201C404.289 315.201 399.478 320.125 399.478 326.2C399.478 332.275 404.289 337.2 410.224 337.2Z" fill="#040303"/>
<path d="M410.223 336.29C415.862 336.29 420.432 331.82 420.432 326.305C420.432 320.79 415.862 316.319 410.223 316.319C404.585 316.319 400.014 320.79 400.014 326.305C400.014 331.82 404.585 336.29 410.223 336.29Z" fill="#CCCCCC" stroke="#040303" stroke-miterlimit="10"/>
<path d="M409.851 330.861C412.718 330.861 415.042 328.524 415.042 325.641C415.042 322.758 412.718 320.42 409.851 320.42C406.985 320.42 404.661 322.758 404.661 325.641C404.661 328.524 406.985 330.861 409.851 330.861Z" fill="#CCCCCC" stroke="#040303" stroke-width="2" stroke-miterlimit="10"/>
<path d="M448.764 336.454C454.699 336.454 459.51 331.53 459.51 325.455C459.51 319.38 454.699 314.455 448.764 314.455C442.829 314.455 438.018 319.38 438.018 325.455C438.018 331.53 442.829 336.454 448.764 336.454Z" fill="#040303"/>
<path d="M448.763 335.545C454.402 335.545 458.972 331.074 458.972 325.559C458.972 320.044 454.402 315.574 448.763 315.574C443.125 315.574 438.554 320.044 438.554 325.559C438.554 331.074 443.125 335.545 448.763 335.545Z" fill="#CCCCCC" stroke="#040303" stroke-miterlimit="10"/>
<path d="M448.391 330.115C451.257 330.115 453.581 327.778 453.581 324.895C453.581 322.012 451.257 319.675 448.391 319.675C445.524 319.675 443.2 322.012 443.2 324.895C443.2 327.778 445.524 330.115 448.391 330.115Z" fill="#CCCCCC" stroke="#040303" stroke-width="2" stroke-miterlimit="10"/>
<path d="M434.9 223.102H418.494V225.339H434.9V223.102Z" fill="#040303"/>
<path d="M453.543 231.305H400.596V233.542H453.543V231.305Z" fill="#040303"/>
<path d="M452.798 296.184H399.851V298.421H452.798V296.184Z" fill="#040303"/>
<path d="M461.001 238.763H393.139V241.746H461.001V238.763Z" fill="#040303"/>
<path d="M461.747 287.235H393.885V290.218H461.747V287.235Z" fill="#040303"/>
<path d="M465.475 246.965H388.665V249.948H465.475V246.965Z" fill="#040303"/>
<path d="M464.73 279.032H387.919V282.015H464.73V279.032Z" fill="#040303"/>
<path d="M468.458 255.169H385.682V258.152H468.458V255.169Z" fill="#040303"/>
<path d="M468.458 270.829H385.682V273.812H468.458V270.829Z" fill="#040303"/>
<path d="M468.458 262.626H384.936V266.355H468.458V262.626Z" fill="#040303"/>
<path d="M434.9 303.642H418.494V305.879H434.9V303.642Z" fill="#040303"/>
<path d="M61.4778 81.8256L116.433 77.5608L195.607 74.3567L263.602 77.5608L337.653 86.5644V101.728L339.981 179.444L337.653 200.294C338.429 216.722 339.981 250.525 339.981 254.316C339.981 258.107 338.429 285.907 337.653 299.334C336.721 302.651 334.206 309.854 331.598 312.128C328.99 314.403 321.197 313.076 317.626 312.128L236.125 319.71H141.117L40.9859 309.285V303.125L36.7943 283.696L34 220.197L36.7943 145.325L41.9173 84.195H46.1088L61.4778 81.8256Z" fill="url(#paint0_linear_801_822)"/>
<path d="M198.401 74.2437L195.607 74.3567M195.607 74.3567L116.433 77.5608L61.4778 81.8256L46.1088 84.195H41.9173L36.7943 145.325L34 220.197L36.7943 283.696L40.9859 303.125V309.285L141.117 319.71H236.125L317.626 312.128C321.197 313.076 328.99 314.403 331.598 312.128C334.206 309.854 336.721 302.651 337.653 299.334C338.429 285.907 339.981 258.107 339.981 254.316C339.981 250.525 338.429 216.722 337.653 200.294L339.981 179.444L337.653 101.728V86.5644L263.602 77.5608L195.607 74.3567Z" stroke="black"/>
<ellipse cx="32.0451" cy="14.9174" rx="32.0451" ry="14.9174" transform="matrix(-1 0 0 1 476.62 17.9312)" fill="black"/>
<rect width="33.0924" height="1.60733" rx="0.803663" transform="matrix(-0.733211 0.680001 0.73782 0.674997 484.944 4.09082)" fill="black"/>
<ellipse cx="1.67145" cy="1.5396" rx="1.67145" ry="1.5396" transform="matrix(-1 0 0 1 488.135 2.24316)" fill="black"/>
<rect width="46.7477" height="2.27057" rx="1.13529" transform="matrix(0.733211 0.680001 -0.73782 0.674997 406.509 2.60986)" fill="black"/>
<ellipse cx="404.361" cy="2.1749" rx="2.36115" ry="2.1749" fill="black"/>
<defs>
<linearGradient id="paint0_linear_801_822" x1="186.991" y1="74.2437" x2="186.991" y2="319.71" gradientUnits="userSpaceOnUse">
<stop stop-color="#F6DB79"/>
<stop offset="0.604167" stop-color="#FFFAE8" stop-opacity="0.588542"/>
<stop offset="1" stop-color="#D9D9D9" stop-opacity="0"/>
</linearGradient>
</defs>
</svg>
